G04 #@! TF.GenerationSoftware,KiCad,Pcbnew,8.0.6*
G04 #@! TF.CreationDate,2025-03-26T02:33:46-04:00*
G04 #@! TF.ProjectId,RAM128,52414d31-3238-42e6-9b69-6361645f7063,1.0*
G04 #@! TF.SameCoordinates,Original*
G04 #@! TF.FileFunction,Paste,Top*
G04 #@! TF.FilePolarity,Positive*
%FSLAX46Y46*%
G04 Gerber Fmt 4.6, Leading zero omitted, Abs format (unit mm)*
G04 Created by KiCad (PCBNEW 8.0.6) date 2025-03-26 02:33:46*
%MOMM*%
%LPD*%
G01*
G04 APERTURE LIST*
G04 Aperture macros list*
%AMRoundRect*
0 Rectangle with rounded corners*
0 $1 Rounding radius*
0 $2 $3 $4 $5 $6 $7 $8 $9 X,Y pos of 4 corners*
0 Add a 4 corners polygon primitive as box body*
4,1,4,$2,$3,$4,$5,$6,$7,$8,$9,$2,$3,0*
0 Add four circle primitives for the rounded corners*
1,1,$1+$1,$2,$3*
1,1,$1+$1,$4,$5*
1,1,$1+$1,$6,$7*
1,1,$1+$1,$8,$9*
0 Add four rect primitives between the rounded corners*
20,1,$1+$1,$2,$3,$4,$5,0*
20,1,$1+$1,$4,$5,$6,$7,0*
20,1,$1+$1,$6,$7,$8,$9,0*
20,1,$1+$1,$8,$9,$2,$3,0*%
G04 Aperture macros list end*
%ADD10RoundRect,0.192500X-0.242500X0.192500X-0.242500X-0.192500X0.242500X-0.192500X0.242500X0.192500X0*%
%ADD11RoundRect,0.200000X-0.475000X0.200000X-0.475000X-0.200000X0.475000X-0.200000X0.475000X0.200000X0*%
%ADD12RoundRect,0.250000X0.250000X0.425000X-0.250000X0.425000X-0.250000X-0.425000X0.250000X-0.425000X0*%
%ADD13RoundRect,0.092500X0.092500X-0.592500X0.092500X0.592500X-0.092500X0.592500X-0.092500X-0.592500X0*%
%ADD14RoundRect,0.224700X-0.437200X0.224700X-0.437200X-0.224700X0.437200X-0.224700X0.437200X0.224700X0*%
%ADD15RoundRect,0.150000X0.150000X0.275000X-0.150000X0.275000X-0.150000X-0.275000X0.150000X-0.275000X0*%
%ADD16RoundRect,0.080000X-0.380000X-0.080000X0.380000X-0.080000X0.380000X0.080000X-0.380000X0.080000X0*%
%ADD17RoundRect,0.150000X-0.150000X-0.275000X0.150000X-0.275000X0.150000X0.275000X-0.150000X0.275000X0*%
%ADD18RoundRect,0.192500X0.242500X-0.192500X0.242500X0.192500X-0.242500X0.192500X-0.242500X-0.192500X0*%
%ADD19RoundRect,0.177500X0.177500X-0.559500X0.177500X0.559500X-0.177500X0.559500X-0.177500X-0.559500X0*%
%ADD20RoundRect,0.192500X0.192500X0.242500X-0.192500X0.242500X-0.192500X-0.242500X0.192500X-0.242500X0*%
%ADD21RoundRect,0.092500X-0.092500X0.592500X-0.092500X-0.592500X0.092500X-0.592500X0.092500X0.592500X0*%
%ADD22RoundRect,0.150000X0.275000X-0.150000X0.275000X0.150000X-0.275000X0.150000X-0.275000X-0.150000X0*%
%ADD23RoundRect,0.250000X0.425000X-0.250000X0.425000X0.250000X-0.425000X0.250000X-0.425000X-0.250000X0*%
%ADD24RoundRect,0.080000X0.080000X-0.380000X0.080000X0.380000X-0.080000X0.380000X-0.080000X-0.380000X0*%
%ADD25RoundRect,0.080000X-0.080000X0.380000X-0.080000X-0.380000X0.080000X-0.380000X0.080000X0.380000X0*%
%ADD26RoundRect,0.137500X-0.137500X0.790000X-0.137500X-0.790000X0.137500X-0.790000X0.137500X0.790000X0*%
%ADD27RoundRect,0.250000X-0.250000X-0.425000X0.250000X-0.425000X0.250000X0.425000X-0.250000X0.425000X0*%
%ADD28RoundRect,0.175000X0.175000X-0.450000X0.175000X0.450000X-0.175000X0.450000X-0.175000X-0.450000X0*%
G04 APERTURE END LIST*
D10*
X101800000Y-105900000D03*
X101800000Y-107400000D03*
D11*
X58350000Y-97700000D03*
X58350000Y-99600000D03*
D12*
X76200000Y-128270000D03*
X74500000Y-128270000D03*
D10*
X117150000Y-92900000D03*
X117150000Y-94400000D03*
D13*
X103150000Y-98950000D03*
X103800000Y-98950000D03*
X104450000Y-98950000D03*
X105100000Y-98950000D03*
X105750000Y-98950000D03*
X106400000Y-98950000D03*
X107050000Y-98950000D03*
X107700000Y-98950000D03*
X108350000Y-98950000D03*
X109000000Y-98950000D03*
X109000000Y-93050000D03*
X108350000Y-93050000D03*
X107700000Y-93050000D03*
X107050000Y-93050000D03*
X106400000Y-93050000D03*
X105750000Y-93050000D03*
X105100000Y-93050000D03*
X104450000Y-93050000D03*
X103800000Y-93050000D03*
X103150000Y-93050000D03*
D14*
X61550000Y-94312500D03*
X61550000Y-96187500D03*
D15*
X113950000Y-99150000D03*
X112350000Y-99150000D03*
D10*
X110350000Y-105900000D03*
X110350000Y-107400000D03*
X118900000Y-118900000D03*
X118900000Y-120400000D03*
D16*
X54500000Y-120950000D03*
X54500000Y-121600000D03*
X54500000Y-122250000D03*
X56200000Y-122250000D03*
X56200000Y-120950000D03*
D11*
X67950000Y-97700000D03*
X67950000Y-99600000D03*
D13*
X94800000Y-124950000D03*
X95450000Y-124950000D03*
X96100000Y-124950000D03*
X96750000Y-124950000D03*
X97400000Y-124950000D03*
X98050000Y-124950000D03*
X98700000Y-124950000D03*
X98700000Y-119050000D03*
X98050000Y-119050000D03*
X97400000Y-119050000D03*
X96750000Y-119050000D03*
X96100000Y-119050000D03*
X95450000Y-119050000D03*
X94800000Y-119050000D03*
D12*
X120826000Y-128270000D03*
X119126000Y-128270000D03*
D17*
X112350000Y-94650000D03*
X113950000Y-94650000D03*
D14*
X53950000Y-94312500D03*
X53950000Y-96187500D03*
D10*
X101600000Y-92900000D03*
X101600000Y-94400000D03*
D18*
X129000000Y-124250000D03*
X129000000Y-122750000D03*
D11*
X61550000Y-97700000D03*
X61550000Y-99600000D03*
X56150000Y-97700000D03*
X56150000Y-99600000D03*
D13*
X103350000Y-124950000D03*
X104000000Y-124950000D03*
X104650000Y-124950000D03*
X105300000Y-124950000D03*
X105950000Y-124950000D03*
X106600000Y-124950000D03*
X107250000Y-124950000D03*
X107250000Y-119050000D03*
X106600000Y-119050000D03*
X105950000Y-119050000D03*
X105300000Y-119050000D03*
X104650000Y-119050000D03*
X104000000Y-119050000D03*
X103350000Y-119050000D03*
D10*
X135350000Y-122600000D03*
X135350000Y-124100000D03*
D17*
X132400000Y-128250000D03*
X134000000Y-128250000D03*
D19*
X132143500Y-97091500D03*
X133413500Y-97091500D03*
X134683500Y-97091500D03*
X135953500Y-97091500D03*
X137223500Y-97091500D03*
X137223500Y-89471500D03*
X135953500Y-89471500D03*
X134683500Y-89471500D03*
X133413500Y-89471500D03*
X132143500Y-89471500D03*
D20*
X56200000Y-119250000D03*
X54700000Y-119250000D03*
D21*
X79700000Y-119050000D03*
X79050000Y-119050000D03*
X78400000Y-119050000D03*
X77750000Y-119050000D03*
X77100000Y-119050000D03*
X76450000Y-119050000D03*
X75800000Y-119050000D03*
X75150000Y-119050000D03*
X74500000Y-119050000D03*
X73850000Y-119050000D03*
X73850000Y-124950000D03*
X74500000Y-124950000D03*
X75150000Y-124950000D03*
X75800000Y-124950000D03*
X76450000Y-124950000D03*
X77100000Y-124950000D03*
X77750000Y-124950000D03*
X78400000Y-124950000D03*
X79050000Y-124950000D03*
X79700000Y-124950000D03*
D22*
X51250000Y-123150000D03*
X51250000Y-121550000D03*
D13*
X103350000Y-111950000D03*
X104000000Y-111950000D03*
X104650000Y-111950000D03*
X105300000Y-111950000D03*
X105950000Y-111950000D03*
X106600000Y-111950000D03*
X107250000Y-111950000D03*
X107250000Y-106050000D03*
X106600000Y-106050000D03*
X105950000Y-106050000D03*
X105300000Y-106050000D03*
X104650000Y-106050000D03*
X104000000Y-106050000D03*
X103350000Y-106050000D03*
D10*
X118900000Y-105900000D03*
X118900000Y-107400000D03*
D23*
X101085500Y-111744500D03*
X101085500Y-110044500D03*
D13*
X83200000Y-124950000D03*
X83850000Y-124950000D03*
X84500000Y-124950000D03*
X85150000Y-124950000D03*
X85800000Y-124950000D03*
X86450000Y-124950000D03*
X87100000Y-124950000D03*
X87100000Y-119050000D03*
X86450000Y-119050000D03*
X85800000Y-119050000D03*
X85150000Y-119050000D03*
X84500000Y-119050000D03*
X83850000Y-119050000D03*
X83200000Y-119050000D03*
X118700000Y-98950000D03*
X119350000Y-98950000D03*
X120000000Y-98950000D03*
X120650000Y-98950000D03*
X121300000Y-98950000D03*
X121950000Y-98950000D03*
X122600000Y-98950000D03*
X123250000Y-98950000D03*
X123900000Y-98950000D03*
X124550000Y-98950000D03*
X124550000Y-93050000D03*
X123900000Y-93050000D03*
X123250000Y-93050000D03*
X122600000Y-93050000D03*
X121950000Y-93050000D03*
X121300000Y-93050000D03*
X120650000Y-93050000D03*
X120000000Y-93050000D03*
X119350000Y-93050000D03*
X118700000Y-93050000D03*
D10*
X81650000Y-118900000D03*
X81650000Y-120400000D03*
D22*
X58350000Y-122250000D03*
X58350000Y-120650000D03*
D15*
X113950000Y-93150000D03*
X112350000Y-93150000D03*
D10*
X130800000Y-122550000D03*
X130800000Y-124050000D03*
D11*
X64750000Y-97700000D03*
X64750000Y-99600000D03*
D17*
X142400000Y-120850000D03*
X144000000Y-120850000D03*
D15*
X127700000Y-126100000D03*
X126100000Y-126100000D03*
D12*
X137160000Y-128270000D03*
X135460000Y-128270000D03*
D10*
X52750000Y-121600000D03*
X52750000Y-123100000D03*
D15*
X113950000Y-96150000D03*
X112350000Y-96150000D03*
D24*
X136800000Y-124300000D03*
X137450000Y-124300000D03*
X138100000Y-124300000D03*
X138100000Y-122600000D03*
X136800000Y-122600000D03*
X132250000Y-124250000D03*
X132900000Y-124250000D03*
X133550000Y-124250000D03*
X133550000Y-122550000D03*
X132250000Y-122550000D03*
D25*
X127400000Y-122550000D03*
X126750000Y-122550000D03*
X126100000Y-122550000D03*
X126100000Y-124250000D03*
X127400000Y-124250000D03*
D26*
X93599000Y-93218000D03*
X92329000Y-93218000D03*
X91059000Y-93218000D03*
X89789000Y-93218000D03*
X88519000Y-93218000D03*
X87249000Y-93218000D03*
X85979000Y-93218000D03*
X84709000Y-93218000D03*
X83439000Y-93218000D03*
X82169000Y-93218000D03*
X80899000Y-93218000D03*
X79629000Y-93218000D03*
X78359000Y-93218000D03*
X77089000Y-93218000D03*
X75819000Y-93218000D03*
X74549000Y-93218000D03*
X74549000Y-106426000D03*
X75819000Y-106426000D03*
X77089000Y-106426000D03*
X78359000Y-106426000D03*
X79629000Y-106426000D03*
X80899000Y-106426000D03*
X82169000Y-106426000D03*
X83439000Y-106426000D03*
X84709000Y-106426000D03*
X85979000Y-106426000D03*
X87249000Y-106426000D03*
X88519000Y-106426000D03*
X89789000Y-106426000D03*
X91059000Y-106426000D03*
X92329000Y-106426000D03*
X93599000Y-106426000D03*
D13*
X120450000Y-111950000D03*
X121100000Y-111950000D03*
X121750000Y-111950000D03*
X122400000Y-111950000D03*
X123050000Y-111950000D03*
X123700000Y-111950000D03*
X124350000Y-111950000D03*
X124350000Y-106050000D03*
X123700000Y-106050000D03*
X123050000Y-106050000D03*
X122400000Y-106050000D03*
X121750000Y-106050000D03*
X121100000Y-106050000D03*
X120450000Y-106050000D03*
D11*
X53950000Y-97700000D03*
X53950000Y-99600000D03*
D13*
X111900000Y-124950000D03*
X112550000Y-124950000D03*
X113200000Y-124950000D03*
X113850000Y-124950000D03*
X114500000Y-124950000D03*
X115150000Y-124950000D03*
X115800000Y-124950000D03*
X115800000Y-119050000D03*
X115150000Y-119050000D03*
X114500000Y-119050000D03*
X113850000Y-119050000D03*
X113200000Y-119050000D03*
X112550000Y-119050000D03*
X111900000Y-119050000D03*
D22*
X140300000Y-124650000D03*
X140300000Y-123050000D03*
D15*
X113950000Y-97650000D03*
X112350000Y-97650000D03*
D10*
X93250000Y-118900000D03*
X93250000Y-120400000D03*
D14*
X56150000Y-94312500D03*
X56150000Y-96187500D03*
D10*
X110350000Y-118900000D03*
X110350000Y-120400000D03*
D27*
X115394000Y-128270000D03*
X117094000Y-128270000D03*
D14*
X67950000Y-94312500D03*
X67950000Y-96187500D03*
D10*
X101800000Y-118900000D03*
X101800000Y-120400000D03*
D13*
X120450000Y-124950000D03*
X121100000Y-124950000D03*
X121750000Y-124950000D03*
X122400000Y-124950000D03*
X123050000Y-124950000D03*
X123700000Y-124950000D03*
X124350000Y-124950000D03*
X124350000Y-119050000D03*
X123700000Y-119050000D03*
X123050000Y-119050000D03*
X122400000Y-119050000D03*
X121750000Y-119050000D03*
X121100000Y-119050000D03*
X120450000Y-119050000D03*
X111900000Y-111950000D03*
X112550000Y-111950000D03*
X113200000Y-111950000D03*
X113850000Y-111950000D03*
X114500000Y-111950000D03*
X115150000Y-111950000D03*
X115800000Y-111950000D03*
X115800000Y-106050000D03*
X115150000Y-106050000D03*
X114500000Y-106050000D03*
X113850000Y-106050000D03*
X113200000Y-106050000D03*
X112550000Y-106050000D03*
X111900000Y-106050000D03*
D18*
X81200000Y-124950000D03*
X81200000Y-123450000D03*
D14*
X58350000Y-94312500D03*
X58350000Y-96187500D03*
X64750000Y-94312500D03*
X64750000Y-96187500D03*
D28*
X141850000Y-124650000D03*
X143750000Y-124650000D03*
X142800000Y-122550000D03*
M02*
