G04 #@! TF.GenerationSoftware,KiCad,Pcbnew,7.0.1-0*
G04 #@! TF.CreationDate,2024-01-06T07:24:35-05:00*
G04 #@! TF.ProjectId,RAM128,52414d31-3238-42e6-9b69-6361645f7063,1.2*
G04 #@! TF.SameCoordinates,Original*
G04 #@! TF.FileFunction,Legend,Bot*
G04 #@! TF.FilePolarity,Positive*
%FSLAX46Y46*%
G04 Gerber Fmt 4.6, Leading zero omitted, Abs format (unit mm)*
G04 Created by KiCad (PCBNEW 7.0.1-0) date 2024-01-06 07:24:35*
%MOMM*%
%LPD*%
G01*
G04 APERTURE LIST*
G04 Aperture macros list*
%AMRoundRect*
0 Rectangle with rounded corners*
0 $1 Rounding radius*
0 $2 $3 $4 $5 $6 $7 $8 $9 X,Y pos of 4 corners*
0 Add a 4 corners polygon primitive as box body*
4,1,4,$2,$3,$4,$5,$6,$7,$8,$9,$2,$3,0*
0 Add four circle primitives for the rounded corners*
1,1,$1+$1,$2,$3*
1,1,$1+$1,$4,$5*
1,1,$1+$1,$6,$7*
1,1,$1+$1,$8,$9*
0 Add four rect primitives between the rounded corners*
20,1,$1+$1,$2,$3,$4,$5,0*
20,1,$1+$1,$4,$5,$6,$7,0*
20,1,$1+$1,$6,$7,$8,$9,0*
20,1,$1+$1,$8,$9,$2,$3,0*%
G04 Aperture macros list end*
%ADD10C,0.200000*%
%ADD11C,0.190500*%
%ADD12C,0.203200*%
%ADD13C,0.000000*%
%ADD14RoundRect,0.457200X0.381000X3.289000X-0.381000X3.289000X-0.381000X-3.289000X0.381000X-3.289000X0*%
%ADD15C,1.448000*%
G04 APERTURE END LIST*
D10*
X138049000Y-103886000D02*
X137668000Y-104267000D01*
X138049000Y-117983000D02*
X137668000Y-118364000D01*
X136779000Y-117983000D02*
X138049000Y-117983000D01*
X138049000Y-103886000D02*
X137668000Y-103505000D01*
X136779000Y-103886000D02*
X138049000Y-103886000D01*
X138049000Y-117983000D02*
X137668000Y-117602000D01*
X136398000Y-119189500D02*
X138303000Y-120269000D01*
X136398000Y-121348500D02*
X136398000Y-119189500D01*
X138303000Y-120269000D02*
X136398000Y-121348500D01*
X137969473Y-116646475D02*
X137969473Y-115920761D01*
X136699473Y-116283618D02*
X137969473Y-116283618D01*
X136699473Y-115315999D02*
X136759950Y-115436951D01*
X136759950Y-115436951D02*
X136820426Y-115497428D01*
X136820426Y-115497428D02*
X136941378Y-115557904D01*
X136941378Y-115557904D02*
X137304235Y-115557904D01*
X137304235Y-115557904D02*
X137425188Y-115497428D01*
X137425188Y-115497428D02*
X137485664Y-115436951D01*
X137485664Y-115436951D02*
X137546140Y-115315999D01*
X137546140Y-115315999D02*
X137546140Y-115134570D01*
X137546140Y-115134570D02*
X137485664Y-115013618D01*
X137485664Y-115013618D02*
X137425188Y-114953142D01*
X137425188Y-114953142D02*
X137304235Y-114892666D01*
X137304235Y-114892666D02*
X136941378Y-114892666D01*
X136941378Y-114892666D02*
X136820426Y-114953142D01*
X136820426Y-114953142D02*
X136759950Y-115013618D01*
X136759950Y-115013618D02*
X136699473Y-115134570D01*
X136699473Y-115134570D02*
X136699473Y-115315999D01*
X137546140Y-114469332D02*
X136699473Y-114227427D01*
X136699473Y-114227427D02*
X137304235Y-113985522D01*
X137304235Y-113985522D02*
X136699473Y-113743618D01*
X136699473Y-113743618D02*
X137546140Y-113501713D01*
X136699473Y-112473618D02*
X137364711Y-112473618D01*
X137364711Y-112473618D02*
X137485664Y-112534094D01*
X137485664Y-112534094D02*
X137546140Y-112655046D01*
X137546140Y-112655046D02*
X137546140Y-112896951D01*
X137546140Y-112896951D02*
X137485664Y-113017904D01*
X136759950Y-112473618D02*
X136699473Y-112594570D01*
X136699473Y-112594570D02*
X136699473Y-112896951D01*
X136699473Y-112896951D02*
X136759950Y-113017904D01*
X136759950Y-113017904D02*
X136880902Y-113078380D01*
X136880902Y-113078380D02*
X137001854Y-113078380D01*
X137001854Y-113078380D02*
X137122807Y-113017904D01*
X137122807Y-113017904D02*
X137183283Y-112896951D01*
X137183283Y-112896951D02*
X137183283Y-112594570D01*
X137183283Y-112594570D02*
X137243759Y-112473618D01*
X136699473Y-111868856D02*
X137546140Y-111868856D01*
X137304235Y-111868856D02*
X137425188Y-111808379D01*
X137425188Y-111808379D02*
X137485664Y-111747903D01*
X137485664Y-111747903D02*
X137546140Y-111626951D01*
X137546140Y-111626951D02*
X137546140Y-111505998D01*
X136699473Y-110538380D02*
X137969473Y-110538380D01*
X136759950Y-110538380D02*
X136699473Y-110659332D01*
X136699473Y-110659332D02*
X136699473Y-110901237D01*
X136699473Y-110901237D02*
X136759950Y-111022189D01*
X136759950Y-111022189D02*
X136820426Y-111082666D01*
X136820426Y-111082666D02*
X136941378Y-111143142D01*
X136941378Y-111143142D02*
X137304235Y-111143142D01*
X137304235Y-111143142D02*
X137425188Y-111082666D01*
X137425188Y-111082666D02*
X137485664Y-111022189D01*
X137485664Y-111022189D02*
X137546140Y-110901237D01*
X137546140Y-110901237D02*
X137546140Y-110659332D01*
X137546140Y-110659332D02*
X137485664Y-110538380D01*
X136699473Y-108240284D02*
X137304235Y-108663618D01*
X136699473Y-108965999D02*
X137969473Y-108965999D01*
X137969473Y-108965999D02*
X137969473Y-108482189D01*
X137969473Y-108482189D02*
X137908997Y-108361237D01*
X137908997Y-108361237D02*
X137848521Y-108300760D01*
X137848521Y-108300760D02*
X137727569Y-108240284D01*
X137727569Y-108240284D02*
X137546140Y-108240284D01*
X137546140Y-108240284D02*
X137425188Y-108300760D01*
X137425188Y-108300760D02*
X137364711Y-108361237D01*
X137364711Y-108361237D02*
X137304235Y-108482189D01*
X137304235Y-108482189D02*
X137304235Y-108965999D01*
X136759950Y-107212189D02*
X136699473Y-107333141D01*
X136699473Y-107333141D02*
X136699473Y-107575046D01*
X136699473Y-107575046D02*
X136759950Y-107695999D01*
X136759950Y-107695999D02*
X136880902Y-107756475D01*
X136880902Y-107756475D02*
X137364711Y-107756475D01*
X137364711Y-107756475D02*
X137485664Y-107695999D01*
X137485664Y-107695999D02*
X137546140Y-107575046D01*
X137546140Y-107575046D02*
X137546140Y-107333141D01*
X137546140Y-107333141D02*
X137485664Y-107212189D01*
X137485664Y-107212189D02*
X137364711Y-107151713D01*
X137364711Y-107151713D02*
X137243759Y-107151713D01*
X137243759Y-107151713D02*
X137122807Y-107756475D01*
X136699473Y-106063142D02*
X137364711Y-106063142D01*
X137364711Y-106063142D02*
X137485664Y-106123618D01*
X137485664Y-106123618D02*
X137546140Y-106244570D01*
X137546140Y-106244570D02*
X137546140Y-106486475D01*
X137546140Y-106486475D02*
X137485664Y-106607428D01*
X136759950Y-106063142D02*
X136699473Y-106184094D01*
X136699473Y-106184094D02*
X136699473Y-106486475D01*
X136699473Y-106486475D02*
X136759950Y-106607428D01*
X136759950Y-106607428D02*
X136880902Y-106667904D01*
X136880902Y-106667904D02*
X137001854Y-106667904D01*
X137001854Y-106667904D02*
X137122807Y-106607428D01*
X137122807Y-106607428D02*
X137183283Y-106486475D01*
X137183283Y-106486475D02*
X137183283Y-106184094D01*
X137183283Y-106184094D02*
X137243759Y-106063142D01*
X136699473Y-105458380D02*
X137546140Y-105458380D01*
X137304235Y-105458380D02*
X137425188Y-105397903D01*
X137425188Y-105397903D02*
X137485664Y-105337427D01*
X137485664Y-105337427D02*
X137546140Y-105216475D01*
X137546140Y-105216475D02*
X137546140Y-105095522D01*
D11*
X136797892Y-120269000D02*
X136759188Y-120230295D01*
X136759188Y-120230295D02*
X136720483Y-120269000D01*
X136720483Y-120269000D02*
X136759188Y-120307704D01*
X136759188Y-120307704D02*
X136797892Y-120269000D01*
X136797892Y-120269000D02*
X136720483Y-120269000D01*
X137030121Y-120269000D02*
X137494578Y-120307704D01*
X137494578Y-120307704D02*
X137533283Y-120269000D01*
X137533283Y-120269000D02*
X137494578Y-120230295D01*
X137494578Y-120230295D02*
X137030121Y-120269000D01*
X137030121Y-120269000D02*
X137533283Y-120269000D01*
D12*
X81056237Y-129865216D02*
X80514371Y-129865216D01*
X80514371Y-129865216D02*
X81056237Y-130678016D01*
X81056237Y-130678016D02*
X80514371Y-130678016D01*
X80204733Y-130678016D02*
X80204733Y-129865216D01*
X79740276Y-130678016D02*
X80088618Y-130213559D01*
X79740276Y-129865216D02*
X80204733Y-130329673D01*
X79353228Y-130639312D02*
X79353228Y-130678016D01*
X79353228Y-130678016D02*
X79391933Y-130755426D01*
X79391933Y-130755426D02*
X79430637Y-130794131D01*
X77959856Y-129903921D02*
X78037266Y-129865216D01*
X78037266Y-129865216D02*
X78153380Y-129865216D01*
X78153380Y-129865216D02*
X78269494Y-129903921D01*
X78269494Y-129903921D02*
X78346904Y-129981331D01*
X78346904Y-129981331D02*
X78385609Y-130058740D01*
X78385609Y-130058740D02*
X78424313Y-130213559D01*
X78424313Y-130213559D02*
X78424313Y-130329673D01*
X78424313Y-130329673D02*
X78385609Y-130484492D01*
X78385609Y-130484492D02*
X78346904Y-130561902D01*
X78346904Y-130561902D02*
X78269494Y-130639312D01*
X78269494Y-130639312D02*
X78153380Y-130678016D01*
X78153380Y-130678016D02*
X78075971Y-130678016D01*
X78075971Y-130678016D02*
X77959856Y-130639312D01*
X77959856Y-130639312D02*
X77921152Y-130600607D01*
X77921152Y-130600607D02*
X77921152Y-130329673D01*
X77921152Y-130329673D02*
X78075971Y-130329673D01*
X77301875Y-130252264D02*
X77572809Y-130252264D01*
X77572809Y-130678016D02*
X77572809Y-129865216D01*
X77572809Y-129865216D02*
X77185761Y-129865216D01*
X73804537Y-130252264D02*
X73688423Y-130290969D01*
X73688423Y-130290969D02*
X73649718Y-130329673D01*
X73649718Y-130329673D02*
X73611014Y-130407083D01*
X73611014Y-130407083D02*
X73611014Y-130523197D01*
X73611014Y-130523197D02*
X73649718Y-130600607D01*
X73649718Y-130600607D02*
X73688423Y-130639312D01*
X73688423Y-130639312D02*
X73765833Y-130678016D01*
X73765833Y-130678016D02*
X74075471Y-130678016D01*
X74075471Y-130678016D02*
X74075471Y-129865216D01*
X74075471Y-129865216D02*
X73804537Y-129865216D01*
X73804537Y-129865216D02*
X73727128Y-129903921D01*
X73727128Y-129903921D02*
X73688423Y-129942626D01*
X73688423Y-129942626D02*
X73649718Y-130020035D01*
X73649718Y-130020035D02*
X73649718Y-130097445D01*
X73649718Y-130097445D02*
X73688423Y-130174854D01*
X73688423Y-130174854D02*
X73727128Y-130213559D01*
X73727128Y-130213559D02*
X73804537Y-130252264D01*
X73804537Y-130252264D02*
X74075471Y-130252264D01*
X72836918Y-130678016D02*
X73301375Y-130678016D01*
X73069147Y-130678016D02*
X73069147Y-129865216D01*
X73069147Y-129865216D02*
X73146556Y-129981331D01*
X73146556Y-129981331D02*
X73223966Y-130058740D01*
X73223966Y-130058740D02*
X73301375Y-130097445D01*
X72527280Y-129942626D02*
X72488576Y-129903921D01*
X72488576Y-129903921D02*
X72411166Y-129865216D01*
X72411166Y-129865216D02*
X72217642Y-129865216D01*
X72217642Y-129865216D02*
X72140233Y-129903921D01*
X72140233Y-129903921D02*
X72101528Y-129942626D01*
X72101528Y-129942626D02*
X72062823Y-130020035D01*
X72062823Y-130020035D02*
X72062823Y-130097445D01*
X72062823Y-130097445D02*
X72101528Y-130213559D01*
X72101528Y-130213559D02*
X72565985Y-130678016D01*
X72565985Y-130678016D02*
X72062823Y-130678016D01*
%LPC*%
D13*
G36*
X139700000Y-139446000D02*
G01*
X139192000Y-139954000D01*
X74168000Y-139954000D01*
X73660000Y-139446000D01*
X73660000Y-132080000D01*
X139700000Y-132080000D01*
X139700000Y-139446000D01*
G37*
D14*
X137160000Y-135282000D03*
X134620000Y-135282000D03*
X132080000Y-135282000D03*
X129540000Y-135282000D03*
X127000000Y-135282000D03*
X124460000Y-135282000D03*
X121920000Y-135282000D03*
X119380000Y-135282000D03*
X116840000Y-135282000D03*
X114300000Y-135282000D03*
X111760000Y-135282000D03*
X109220000Y-135282000D03*
X106680000Y-135282000D03*
X104140000Y-135282000D03*
X101600000Y-135282000D03*
X99060000Y-135282000D03*
X96520000Y-135282000D03*
X93980000Y-135282000D03*
X91440000Y-135282000D03*
X88900000Y-135282000D03*
X86360000Y-135282000D03*
X83820000Y-135282000D03*
X81280000Y-135282000D03*
X78740000Y-135282000D03*
X76200000Y-135282000D03*
D15*
X70358000Y-129540000D03*
X136906000Y-122555000D03*
X133096000Y-129540000D03*
X136906000Y-101600000D03*
X70104000Y-105664000D03*
M02*
