M48
; DRILL file {KiCad (5.1.5-0-10_14)} date Tuesday, September 29, 2020 at 07:44:58 PM
; FORMAT={-:-/ absolute / inch / decimal}
; #@! TF.CreationDate,2020-09-29T19:44:58-04:00
; #@! TF.GenerationSoftware,Kicad,Pcbnew,(5.1.5-0-10_14)
FMAT,2
INCH
T1C0.0079
T2C0.0118
T3C0.0157
T4C0.0197
T5C0.0300
T6C0.0433
T7C0.0454
%
G90
G05
T1
X2.7Y-4.715
X2.7Y-4.915
X2.705Y-5.115
X2.71Y-4.505
X2.755Y-5.165
X2.8Y-4.815
X2.83Y-4.385
X2.9Y-4.715
X2.9Y-4.915
X2.95Y-5.17
X2.96Y-4.255
X3.05Y-5.17
X3.0768Y-4.7106
X3.08Y-4.135
X3.0807Y-4.4803
X3.1004Y-4.6673
X3.1004Y-4.7539
X3.1004Y-4.8996
X3.126Y-4.9862
X3.1457Y-4.4665
X3.15Y-5.17
X3.1516Y-4.8996
X3.1772Y-4.9862
X3.2028Y-4.8996
X3.2047Y-4.4055
X3.2047Y-4.5433
X3.2283Y-4.9862
X3.2421Y-4.5846
X3.245Y-4.125
X3.25Y-5.17
X3.2539Y-4.8996
X3.2795Y-4.4055
X3.2795Y-4.563
X3.2795Y-4.9862
X3.3307Y-4.7539
X3.3307Y-4.9862
X3.35Y-5.17
X3.3543Y-4.8839
X3.3543Y-4.9429
X3.378Y-4.5827
X3.3878Y-4.8524
X3.3878Y-4.9744
X3.4016Y-4.7736
X3.4213Y-4.8839
X3.4213Y-4.9429
X3.437Y-4.7106
X3.445Y-4.125
X3.45Y-5.17
X3.4606Y-4.6673
X3.4606Y-4.8976
X3.4921Y-4.8622
X3.5236Y-4.9882
X3.5315Y-4.6535
X3.5374Y-4.8996
X3.55Y-5.17
X3.563Y-4.9862
X3.5768Y-4.2126
X3.5886Y-4.8996
X3.6142Y-4.9862
X3.6161Y-4.2244
X3.6398Y-4.7106
X3.6398Y-4.9429
X3.6417Y-4.8839
X3.6417Y-4.9862
X3.645Y-4.125
X3.65Y-5.17
X3.6555Y-4.2362
X3.6752Y-4.8524
X3.6752Y-4.9744
X3.6949Y-4.248
X3.7087Y-4.6339
X3.7087Y-4.8839
X3.7087Y-4.9469
X3.7146Y-4.9882
X3.7244Y-4.7106
X3.7264Y-4.563
X3.7382Y-5.0748
X3.748Y-4.7539
X3.75Y-5.17
X3.7736Y-4.6673
X3.8051Y-4.878
X3.8248Y-4.7539
X3.8268Y-5.0374
X3.845Y-4.125
X3.85Y-5.17
X3.8504Y-4.6673
X3.8504Y-4.8996
X3.874Y-5.1122
X3.8976Y-4.4646
X3.9016Y-4.9862
X3.9055Y-5.0374
X3.9094Y-4.5728
X3.9134Y-4.7736
X3.9213Y-4.311
X3.9272Y-4.9429
X3.9291Y-4.8917
X3.9449Y-4.4252
X3.9449Y-4.6909
X3.95Y-5.17
X3.9626Y-4.8524
X3.9626Y-4.9744
X3.9626Y-5.1004
X3.9724Y-4.3071
X3.9724Y-4.3858
X3.9724Y-4.4252
X3.9724Y-4.4646
X3.9724Y-4.5236
X3.9724Y-4.563
X3.9783Y-4.6673
X3.9961Y-4.8839
X3.9961Y-4.9429
X4.0118Y-4.7106
X4.0354Y-4.7539
X4.045Y-4.125
X4.0472Y-4.3661
X4.0472Y-4.4252
X4.0472Y-4.5039
X4.0472Y-4.5433
X4.05Y-5.17
X4.0512Y-5.0886
X4.061Y-4.8071
X4.061Y-4.9862
X4.0787Y-4.3917
X4.0787Y-4.4587
X4.0866Y-4.5433
X4.0866Y-4.7539
X4.1024Y-4.813
X4.1122Y-4.6457
X4.1378Y-4.3917
X4.1378Y-4.4587
X4.15Y-5.17
X4.1673Y-4.8248
X4.1693Y-4.4252
X4.1791Y-4.5315
X4.1831Y-4.6358
X4.185Y-4.8976
X4.189Y-4.9862
X4.2146Y-4.7106
X4.2146Y-4.9429
X4.2165Y-4.8839
X4.2165Y-5.0827
X4.2185Y-4.7736
X4.2205Y-4.4528
X4.2205Y-4.5039
X4.2244Y-4.6122
X4.245Y-4.125
X4.25Y-4.8524
X4.25Y-4.9744
X4.25Y-5.17
X4.2638Y-4.5276
X4.2835Y-4.7638
X4.2835Y-4.8839
X4.2835Y-4.9429
X4.3Y-5.165
X4.3031Y-4.8366
X4.3071Y-4.376
X4.3071Y-4.4272
X4.3071Y-4.5039
X4.3228Y-4.6673
X4.3228Y-4.7539
X4.3386Y-4.4016
X4.3425Y-4.8366
X4.3425Y-5.0138
X4.35Y-5.17
X4.374Y-4.7539
X4.3937Y-5.0236
X4.3996Y-4.6673
X4.4Y-5.165
X4.4035Y-5.0827
X4.4055Y-4.2165
X4.4055Y-4.8976
X4.4134Y-5.126
X4.4311Y-4.7559
X4.437Y-4.25
X4.4409Y-4.5256
X4.445Y-4.125
X4.45Y-5.17
X4.4508Y-4.6673
X4.4508Y-4.8248
X4.4528Y-4.2736
X4.4764Y-4.8996
X4.4764Y-4.9862
X4.4961Y-4.1831
X4.4961Y-4.25
X4.502Y-4.9429
X4.5039Y-4.8839
X4.5276Y-4.2165
X4.5374Y-4.8524
X4.5374Y-4.9744
X4.5394Y-4.2736
X4.5394Y-4.3504
X4.5394Y-4.4272
X4.5394Y-5.0394
X4.55Y-5.17
X4.5689Y-4.3248
X4.5689Y-4.5039
X4.5709Y-4.8839
X4.5709Y-4.9429
X4.6083Y-4.7953
X4.6122Y-4.5276
X4.6319Y-4.7598
X4.645Y-4.125
X4.65Y-5.17
X4.6555Y-4.3504
X4.6555Y-4.4016
X4.6555Y-4.4528
X4.6555Y-4.5039
X4.6654Y-5.0591
X4.6949Y-4.3504
X4.6949Y-4.8996
X4.6988Y-5.1201
X4.7067Y-4.4783
X4.7343Y-4.7106
X4.75Y-5.17
X4.752Y-4.8051
X4.7539Y-4.2106
X4.7579Y-4.5276
X4.7579Y-4.6673
X4.7579Y-4.7539
X4.7736Y-4.376
X4.7776Y-5.0591
X4.7835Y-4.8858
X4.7835Y-4.9862
X4.7854Y-4.25
X4.8012Y-4.2736
X4.8012Y-4.4528
X4.8445Y-4.1831
X4.8445Y-4.25
X4.845Y-4.125
X4.85Y-5.17
X4.8504Y-4.9862
X4.8839Y-5.0472
X4.8858Y-4.8996
X4.8878Y-4.2736
X4.8878Y-4.3248
X4.8976Y-4.7835
X4.9035Y-4.376
X4.9035Y-4.4272
X4.9035Y-4.5039
X4.9114Y-4.9862
X4.9272Y-4.2854
X4.937Y-4.7106
X4.937Y-4.9429
X4.939Y-4.8839
X4.939Y-5.0984
X4.9469Y-4.5276
X4.95Y-5.17
X4.9724Y-4.8524
X4.9724Y-4.9744
X4.9862Y-4.1811
X4.9902Y-4.3504
X4.9902Y-4.4016
X4.9902Y-4.4783
X5.0059Y-4.8839
X5.0059Y-4.9429
X5.0118Y-4.6535
X5.0256Y-4.5866
X5.045Y-4.125
X5.05Y-5.17
X5.0886Y-4.2815
X5.1083Y-4.876
X5.1201Y-4.248
X5.1201Y-4.315
X5.1358Y-4.3504
X5.15Y-5.17
X5.1791Y-4.248
X5.1791Y-4.315
X5.19Y-5.04
X5.2Y-5.16
X5.2106Y-4.2815
X5.2106Y-4.7736
X5.2224Y-4.3504
X5.2224Y-4.4528
X5.2224Y-4.5039
X5.245Y-4.125
X5.25Y-5.17
X5.29Y-4.34
X5.29Y-4.54
X5.29Y-4.94
X5.3Y-5.16
X5.35Y-5.17
X5.36Y-4.24
X5.36Y-4.44
X5.36Y-4.84
X5.405Y-4.13
X5.455Y-4.18
X5.46Y-4.34
X5.46Y-4.54
X5.46Y-4.74
X5.46Y-4.94
X5.46Y-5.17
T2
X5.4Y-4.985
T3
X2.86Y-4.61
X5.29Y-5.035
X5.335Y-4.985
X5.335Y-5.085
T4
X2.7264Y-4.9724
X2.7717Y-4.9213
X2.7717Y-5.0236
X2.8386Y-4.9213
X2.8386Y-5.0236
X2.8839Y-4.9724
T5
X5.4Y-5.1
T6
X2.87Y-5.1
T7
X2.77Y-4.535
X5.29Y-4.195
X5.25Y-5.1
T0
M30
