M48
; DRILL file {KiCad (5.1.5-0-10_14)} date Friday, December 04, 2020 at 06:35:06 AM
; FORMAT={-:-/ absolute / inch / decimal}
; #@! TF.CreationDate,2020-12-04T06:35:06-05:00
; #@! TF.GenerationSoftware,Kicad,Pcbnew,(5.1.5-0-10_14)
FMAT,2
INCH
T1C0.0079
T2C0.0118
T3C0.0157
T4C0.0197
T5C0.0300
T6C0.0433
T7C0.0454
%
G90
G05
T1
X2.4Y-4.915
X2.405Y-5.115
X2.41Y-4.255
X2.4154Y-4.5138
X2.439Y-4.4705
X2.439Y-4.5571
X2.439Y-4.7894
X2.455Y-5.165
X2.4646Y-4.7028
X2.4902Y-4.7894
X2.5157Y-4.7028
X2.53Y-4.135
X2.5413Y-4.7894
X2.5669Y-4.7028
X2.5925Y-4.7894
X2.6181Y-4.7028
X2.66Y-4.005
X2.6693Y-4.5571
X2.6693Y-4.7028
X2.6693Y-4.7894
X2.6929Y-4.687
X2.6929Y-4.7461
X2.7264Y-4.6555
X2.7264Y-4.7776
X2.75Y-5.17
X2.7598Y-4.687
X2.7598Y-4.7461
X2.7775Y-4.2125
X2.78Y-3.885
X2.805Y-4.16
X2.805Y-4.265
X2.9272Y-4.9685
X2.95Y-5.17
X2.9587Y-4.935
X3.0177Y-4.935
X3.045Y-3.875
X3.0492Y-4.9685
X3.05Y-5.17
X3.055Y-4.685
X3.0728Y-4.9331
X3.0984Y-5.0
X3.12Y-4.835
X3.124Y-4.9331
X3.1476Y-5.0354
X3.15Y-5.17
X3.1516Y-4.9685
X3.155Y-4.685
X3.155Y-4.79
X3.1752Y-4.9331
X3.18Y-4.905
X3.2008Y-5.0
X3.22Y-4.87
X3.2264Y-4.9331
X3.245Y-3.875
X3.25Y-5.0354
X3.25Y-5.17
X3.2539Y-4.9685
X3.2776Y-4.9331
X3.3031Y-5.0
X3.3287Y-4.9331
X3.35Y-5.17
X3.3524Y-5.0354
X3.3543Y-4.9685
X3.3878Y-4.937
X3.3878Y-5.0591
X3.4213Y-5.0276
X3.4232Y-4.9685
X3.435Y-4.635
X3.445Y-3.875
X3.45Y-5.17
X3.455Y-4.685
X3.4941Y-4.8169
X3.55Y-4.84
X3.55Y-5.17
X3.555Y-4.685
X3.555Y-4.79
X3.5886Y-4.6772
X3.5886Y-4.7362
X3.622Y-4.6457
X3.622Y-4.7677
X3.645Y-3.875
X3.65Y-5.17
X3.6555Y-4.6772
X3.6555Y-4.7362
X3.6831Y-4.6772
X3.6831Y-4.7362
X3.7165Y-4.6457
X3.7165Y-4.7677
X3.75Y-4.7362
X3.75Y-5.17
X3.7539Y-4.6772
X3.7776Y-4.6339
X3.7776Y-4.7205
X3.7776Y-4.8661
X3.8031Y-4.9528
X3.8287Y-4.7835
X3.845Y-3.875
X3.85Y-5.17
X3.8543Y-4.8661
X3.8602Y-4.311
X3.8799Y-4.7205
X3.9055Y-4.2146
X3.9055Y-4.2657
X3.9055Y-4.3681
X3.9055Y-4.4449
X3.9055Y-4.7835
X3.9311Y-4.7205
X3.9311Y-4.8661
X3.9311Y-4.9528
X3.9488Y-4.4685
X3.95Y-5.17
X3.9547Y-4.9094
X3.9705Y-4.6772
X3.9705Y-4.7362
X3.9921Y-4.4449
X3.9961Y-4.2264
X4.0Y-5.045
X4.0039Y-4.6457
X4.0039Y-4.7677
X4.0374Y-4.7362
X4.0413Y-4.6772
X4.045Y-3.875
X4.05Y-5.17
X4.065Y-4.6339
X4.065Y-4.7205
X4.065Y-4.8661
X4.0906Y-4.1575
X4.0906Y-4.9528
X4.1083Y-4.8406
X4.1161Y-4.6339
X4.1161Y-4.9961
X4.122Y-4.124
X4.122Y-4.1909
X4.1378Y-4.2146
X4.1378Y-4.4449
X4.1417Y-4.8661
X4.15Y-5.17
X4.1614Y-5.0984
X4.1673Y-4.9528
X4.1811Y-4.124
X4.1811Y-4.1909
X4.1929Y-4.7559
X4.1929Y-4.9961
X4.2126Y-4.1575
X4.2185Y-4.7205
X4.2185Y-4.8661
X4.2185Y-4.9528
X4.2244Y-4.2146
X4.2343Y-5.128
X4.2421Y-4.9094
X4.245Y-3.875
X4.25Y-5.17
X4.2579Y-4.6772
X4.2579Y-4.7362
X4.2815Y-5.0354
X4.2815Y-5.0945
X4.2913Y-4.6457
X4.2913Y-4.7677
X4.315Y-5.0039
X4.315Y-5.126
X4.3248Y-4.7362
X4.3287Y-4.6772
X4.3287Y-4.9094
X4.3445Y-5.0
X4.3484Y-5.0945
X4.35Y-5.17
X4.3504Y-5.0354
X4.3524Y-4.6339
X4.3524Y-4.7205
X4.3602Y-4.7618
X4.374Y-5.0
X4.378Y-4.8661
X4.3996Y-5.0669
X4.4035Y-4.8642
X4.4094Y-4.9803
X4.4252Y-5.1378
X4.445Y-3.875
X4.4488Y-5.1024
X4.45Y-5.17
X4.4547Y-4.8661
X4.4744Y-4.5551
X4.4764Y-4.9882
X4.4941Y-4.2146
X4.4941Y-4.2657
X4.4941Y-4.3681
X4.4941Y-4.4449
X4.498Y-4.4862
X4.5Y-4.7677
X4.5Y-4.9528
X4.5039Y-4.8661
X4.5138Y-5.0098
X4.5295Y-4.9094
X4.5295Y-5.0492
X4.5374Y-4.4685
X4.5413Y-4.6201
X4.5453Y-4.6772
X4.5453Y-4.7362
X4.55Y-5.17
X4.5531Y-4.8406
X4.5787Y-4.6457
X4.5787Y-4.7677
X4.5807Y-4.2402
X4.5807Y-4.3937
X4.5807Y-4.4449
X4.5827Y-5.0354
X4.5827Y-5.0945
X4.5846Y-4.3406
X4.6043Y-4.8406
X4.6122Y-4.7362
X4.6161Y-4.6772
X4.6161Y-4.9409
X4.6161Y-5.0039
X4.6161Y-5.126
X4.6398Y-4.6339
X4.6398Y-4.7205
X4.6398Y-4.8642
X4.645Y-3.875
X4.6457Y-5.0039
X4.6496Y-5.0945
X4.65Y-5.17
X4.6516Y-4.7579
X4.6516Y-5.0354
X4.6654Y-4.6024
X4.6752Y-4.5079
X4.6752Y-5.0039
X4.6791Y-4.1575
X4.689Y-4.8642
X4.7Y-5.165
X4.7106Y-4.124
X4.7106Y-4.1909
X4.7146Y-4.311
X4.7165Y-4.8642
X4.7264Y-4.2146
X4.7264Y-4.4449
X4.7283Y-5.1378
X4.75Y-5.1024
X4.75Y-5.17
X4.7618Y-4.8602
X4.7677Y-4.7362
X4.7697Y-4.124
X4.7697Y-4.1909
X4.7756Y-5.0354
X4.7854Y-4.9508
X4.7894Y-4.5669
X4.7933Y-4.6319
X4.7933Y-4.8661
X4.7992Y-5.002
X4.7992Y-5.1378
X4.8012Y-4.1575
X4.813Y-4.2146
X4.8169Y-4.9094
X4.8327Y-4.6772
X4.8327Y-4.7362
X4.845Y-3.875
X4.85Y-5.17
X4.8504Y-5.1378
X4.8661Y-4.6457
X4.874Y-5.1024
X4.876Y-4.8543
X4.876Y-4.8937
X4.8878Y-5.0354
X4.8996Y-4.7362
X4.9035Y-4.6772
X4.9213Y-5.0039
X4.9213Y-5.126
X4.9272Y-4.6339
X4.9272Y-4.7205
X4.9272Y-4.9528
X4.95Y-5.17
X4.9528Y-4.8661
X4.9547Y-5.0945
X4.9567Y-5.0354
X4.9665Y-4.9606
X4.9803Y-4.1969
X4.9803Y-5.0039
X4.9921Y-4.4409
X4.9921Y-4.752
X4.998Y-4.8406
X5.0039Y-4.9528
X5.0059Y-5.1378
X5.0118Y-4.7343
X5.0157Y-4.4055
X5.0295Y-4.8661
X5.0315Y-5.0
X5.0413Y-4.5433
X5.045Y-3.875
X5.05Y-5.17
X5.0551Y-5.1024
X5.0591Y-5.0354
X5.0669Y-4.5433
X5.0807Y-4.8661
X5.0807Y-4.9528
X5.0827Y-5.0
X5.0906Y-4.5079
X5.0925Y-4.6181
X5.1043Y-4.9094
X5.1181Y-4.8091
X5.128Y-5.1378
X5.1299Y-4.9567
X5.15Y-5.17
X5.1575Y-4.8701
X5.1575Y-5.1024
X5.2Y-5.16
X5.245Y-3.875
X5.25Y-5.17
X5.2579Y-4.5925
X5.35Y-5.17
X5.36Y-3.99
X5.405Y-3.88
X5.455Y-3.93
X5.46Y-4.34
X5.46Y-4.54
X5.46Y-4.74
X5.46Y-4.94
X5.46Y-5.17
T2
X5.4Y-4.985
T3
X5.29Y-5.025
X5.335Y-4.985
X5.345Y-5.085
T4
X2.4264Y-4.9724
X2.4717Y-4.9213
X2.4717Y-5.0236
X2.5386Y-4.9213
X2.5386Y-5.0236
X2.5839Y-4.9724
T5
X2.975Y-5.13
X5.4Y-5.1
T6
X5.24Y-5.1
T7
X2.47Y-4.285
X5.39Y-4.815
X5.29Y-3.945
X2.57Y-5.1
T0
M30
