G04 #@! TF.GenerationSoftware,KiCad,Pcbnew,8.0.6*
G04 #@! TF.CreationDate,2025-03-26T02:33:46-04:00*
G04 #@! TF.ProjectId,RAM128,52414d31-3238-42e6-9b69-6361645f7063,1.0*
G04 #@! TF.SameCoordinates,Original*
G04 #@! TF.FileFunction,Copper,L4,Bot*
G04 #@! TF.FilePolarity,Positive*
%FSLAX46Y46*%
G04 Gerber Fmt 4.6, Leading zero omitted, Abs format (unit mm)*
G04 Created by KiCad (PCBNEW 8.0.6) date 2025-03-26 02:33:46*
%MOMM*%
%LPD*%
G01*
G04 APERTURE LIST*
G04 Aperture macros list*
%AMRoundRect*
0 Rectangle with rounded corners*
0 $1 Rounding radius*
0 $2 $3 $4 $5 $6 $7 $8 $9 X,Y pos of 4 corners*
0 Add a 4 corners polygon primitive as box body*
4,1,4,$2,$3,$4,$5,$6,$7,$8,$9,$2,$3,0*
0 Add four circle primitives for the rounded corners*
1,1,$1+$1,$2,$3*
1,1,$1+$1,$4,$5*
1,1,$1+$1,$6,$7*
1,1,$1+$1,$8,$9*
0 Add four rect primitives between the rounded corners*
20,1,$1+$1,$2,$3,$4,$5,0*
20,1,$1+$1,$4,$5,$6,$7,0*
20,1,$1+$1,$6,$7,$8,$9,0*
20,1,$1+$1,$8,$9,$2,$3,0*%
G04 Aperture macros list end*
G04 #@! TA.AperFunction,SMDPad,CuDef*
%ADD10RoundRect,0.381000X0.381000X3.289000X-0.381000X3.289000X-0.381000X-3.289000X0.381000X-3.289000X0*%
G04 #@! TD*
G04 #@! TA.AperFunction,ViaPad*
%ADD11C,0.500000*%
G04 #@! TD*
G04 #@! TA.AperFunction,ViaPad*
%ADD12C,1.524000*%
G04 #@! TD*
G04 #@! TA.AperFunction,ViaPad*
%ADD13C,0.800000*%
G04 #@! TD*
G04 #@! TA.AperFunction,ViaPad*
%ADD14C,0.600000*%
G04 #@! TD*
G04 #@! TA.AperFunction,Conductor*
%ADD15C,0.150000*%
G04 #@! TD*
G04 #@! TA.AperFunction,Conductor*
%ADD16C,0.800000*%
G04 #@! TD*
G04 #@! TA.AperFunction,Conductor*
%ADD17C,1.524000*%
G04 #@! TD*
G04 #@! TA.AperFunction,Conductor*
%ADD18C,0.450000*%
G04 #@! TD*
G04 #@! TA.AperFunction,Conductor*
%ADD19C,0.500000*%
G04 #@! TD*
G04 APERTURE END LIST*
D10*
X137160000Y-135282000D03*
X134620000Y-135282000D03*
X132080000Y-135282000D03*
X129540000Y-135282000D03*
X127000000Y-135282000D03*
X124460000Y-135282000D03*
X121920000Y-135282000D03*
X119380000Y-135282000D03*
X116840000Y-135282000D03*
X114300000Y-135282000D03*
X111760000Y-135282000D03*
X109220000Y-135282000D03*
X106680000Y-135282000D03*
X104140000Y-135282000D03*
X101600000Y-135282000D03*
X99060000Y-135282000D03*
X96520000Y-135282000D03*
X93980000Y-135282000D03*
X91440000Y-135282000D03*
X88900000Y-135282000D03*
X86360000Y-135282000D03*
X83820000Y-135282000D03*
X81280000Y-135282000D03*
X78740000Y-135282000D03*
X76200000Y-135282000D03*
D11*
X119800000Y-119050000D03*
X118700000Y-91950000D03*
X109500000Y-119050000D03*
X118900000Y-118100000D03*
X51250000Y-123900000D03*
X111900000Y-117950000D03*
X103350000Y-104950000D03*
X111250000Y-106050000D03*
X83200000Y-117950000D03*
X110350000Y-105100000D03*
X103150000Y-94150000D03*
X103350000Y-120150000D03*
X101600000Y-92100000D03*
X103150000Y-91950000D03*
X102700000Y-106050000D03*
X80800000Y-119050000D03*
X83200000Y-120150000D03*
X56200000Y-120350000D03*
X81650000Y-118100000D03*
X101800000Y-118100000D03*
X92400000Y-119050000D03*
X117150000Y-92100000D03*
D12*
X137160000Y-129794000D03*
D11*
X101800000Y-105100000D03*
X120450000Y-107150000D03*
X82550000Y-119050000D03*
X109500000Y-106050000D03*
X120450000Y-117950000D03*
X100950000Y-119050000D03*
D13*
X138303000Y-128270000D03*
D14*
X82100000Y-124800000D03*
D11*
X100950000Y-106050000D03*
X118900000Y-105100000D03*
X111900000Y-107150000D03*
X79700000Y-123850000D03*
X118050000Y-106050000D03*
X100750000Y-93050000D03*
X103350000Y-117950000D03*
X118700000Y-94150000D03*
X110350000Y-118100000D03*
X94800000Y-120150000D03*
X116300000Y-93050000D03*
X56050000Y-118400000D03*
D14*
X81200000Y-125800000D03*
D13*
X137160000Y-127000000D03*
D11*
X94800000Y-117950000D03*
X79850000Y-126050000D03*
X119800000Y-106050000D03*
X120450000Y-104950000D03*
X111900000Y-120150000D03*
X57100000Y-120950000D03*
X102700000Y-119050000D03*
X118050000Y-119050000D03*
X111250000Y-119050000D03*
X94150000Y-119050000D03*
X80325000Y-124950000D03*
X111900000Y-104950000D03*
X102500000Y-93050000D03*
X120450000Y-120150000D03*
X118050000Y-93050000D03*
X103350000Y-107150000D03*
X93250000Y-118100000D03*
X143383000Y-100965000D03*
X118110000Y-131318000D03*
X64008000Y-122936000D03*
X124350000Y-110850000D03*
X123063000Y-85725000D03*
X82550000Y-131318000D03*
X116300000Y-94250000D03*
X92710000Y-131318000D03*
X100950000Y-107250000D03*
X97790000Y-131318000D03*
X87100000Y-126050000D03*
X97663000Y-80645000D03*
X61468000Y-115316000D03*
X72263000Y-80645000D03*
X69088000Y-128016000D03*
X133350000Y-131318000D03*
X107950000Y-131318000D03*
X109600000Y-98950000D03*
X138303000Y-80645000D03*
X107250000Y-110850000D03*
X119750000Y-107400000D03*
X119750000Y-120400000D03*
X138430000Y-131318000D03*
X124550000Y-97850000D03*
X67183000Y-80645000D03*
X124350000Y-113050000D03*
X66675000Y-131318000D03*
X46355000Y-129540000D03*
X53975000Y-85725000D03*
X62103000Y-80645000D03*
X48133000Y-131318000D03*
X100330000Y-131318000D03*
X102870000Y-131318000D03*
X107250000Y-126050000D03*
X144780000Y-123825000D03*
X115800000Y-126050000D03*
X111200000Y-107400000D03*
X87700000Y-124950000D03*
X116400000Y-111950000D03*
X143383000Y-85725000D03*
X144780000Y-103505000D03*
X105410000Y-131318000D03*
X73850000Y-117900000D03*
X135763000Y-83185000D03*
X73850000Y-120200000D03*
X56515000Y-131318000D03*
X87100000Y-123850000D03*
X128143000Y-80645000D03*
X143383000Y-90805000D03*
X107850000Y-111950000D03*
X82500000Y-120400000D03*
X48895000Y-90805000D03*
X64008000Y-117856000D03*
X128270000Y-131318000D03*
X102743000Y-85725000D03*
X77343000Y-80645000D03*
X123063000Y-80645000D03*
X144780000Y-82423000D03*
X133223000Y-85725000D03*
X71755000Y-131318000D03*
X53600000Y-122250000D03*
X51435000Y-131318000D03*
X82423000Y-80645000D03*
X107250000Y-113050000D03*
X118000000Y-94400000D03*
X73200000Y-119050000D03*
X124950000Y-111950000D03*
X56515000Y-83185000D03*
X112903000Y-80645000D03*
X125150000Y-98950000D03*
X120523000Y-83185000D03*
X90170000Y-131318000D03*
D13*
X74549000Y-129540000D03*
D11*
X77470000Y-131318000D03*
D13*
X135509000Y-127000000D03*
D11*
X46355000Y-119761000D03*
X111200000Y-120400000D03*
X144780000Y-118745000D03*
X100950000Y-120250000D03*
X100750000Y-94250000D03*
X98700000Y-123850000D03*
X53848000Y-128016000D03*
X113030000Y-131318000D03*
X59182000Y-80645000D03*
X109500000Y-120250000D03*
D14*
X82100000Y-123600000D03*
D11*
X51435000Y-88265000D03*
X144780000Y-98425000D03*
X116400000Y-124950000D03*
X61595000Y-131318000D03*
X69088000Y-112776000D03*
X54850000Y-120100000D03*
X143383000Y-95885000D03*
X115800000Y-110850000D03*
X144780000Y-88265000D03*
D13*
X135509000Y-129540000D03*
D11*
X102650000Y-107400000D03*
X107850000Y-124950000D03*
X61468000Y-125476000D03*
X52750000Y-123900000D03*
X124350000Y-126050000D03*
X117983000Y-80645000D03*
X54850000Y-118400000D03*
X144780000Y-113665000D03*
X46355000Y-109601000D03*
X58928000Y-128016000D03*
X46355000Y-124841000D03*
X138303000Y-85725000D03*
X143002000Y-131318000D03*
X133223000Y-80645000D03*
X124550000Y-100050000D03*
X80010000Y-131318000D03*
X144780000Y-129540000D03*
X109000000Y-97850000D03*
X54500000Y-122850000D03*
X143002000Y-80645000D03*
X102450000Y-94400000D03*
X100203000Y-83185000D03*
X118050000Y-107250000D03*
X46355000Y-114681000D03*
X94100000Y-120400000D03*
X124350000Y-123850000D03*
X144780000Y-93345000D03*
X92400000Y-120250000D03*
X98700000Y-126050000D03*
X105283000Y-83185000D03*
X135890000Y-131318000D03*
X95250000Y-131318000D03*
X80350000Y-123350000D03*
X123190000Y-131318000D03*
X87630000Y-131318000D03*
X130810000Y-131318000D03*
X115800000Y-113050000D03*
X85090000Y-131318000D03*
X125603000Y-83185000D03*
X102650000Y-120400000D03*
X66548000Y-115316000D03*
X120650000Y-131318000D03*
X115570000Y-131318000D03*
X87503000Y-80645000D03*
X124950000Y-124950000D03*
X92583000Y-80645000D03*
D13*
X73406000Y-128524000D03*
D11*
X107250000Y-123850000D03*
X64008000Y-128016000D03*
X140843000Y-88265000D03*
X115800000Y-123850000D03*
X130683000Y-83185000D03*
X107823000Y-80645000D03*
X109500000Y-107250000D03*
X99300000Y-124950000D03*
X102743000Y-80645000D03*
X144780000Y-108585000D03*
X125730000Y-131318000D03*
X128143000Y-85725000D03*
X46355000Y-93472000D03*
X64008000Y-112776000D03*
X80800000Y-120250000D03*
X110490000Y-131318000D03*
X125603000Y-128905000D03*
X109000000Y-100050000D03*
X118050000Y-120250000D03*
X73850000Y-126050000D03*
X75150000Y-126050000D03*
D13*
X114300000Y-128270000D03*
X115443000Y-129540000D03*
X76200000Y-129540000D03*
X77343000Y-128270000D03*
X120777000Y-129540000D03*
X121856500Y-128270000D03*
X119126000Y-129540000D03*
X117094000Y-129540000D03*
D11*
X74500000Y-123850000D03*
X132080000Y-131191000D03*
X77100000Y-123850000D03*
X78400000Y-123850000D03*
X77750000Y-123050000D03*
X76450000Y-123050000D03*
X75800000Y-123850000D03*
X134620000Y-131191000D03*
D15*
X134620000Y-135382000D02*
X134620000Y-131191000D01*
D16*
X136915002Y-127000000D02*
X137160000Y-127000000D01*
D17*
X137160000Y-129794000D02*
X137160000Y-127000000D01*
D16*
X138620500Y-127952500D02*
X138112500Y-127952500D01*
D18*
X137856000Y-129794000D02*
X137160000Y-129794000D01*
D19*
X137160000Y-128940000D02*
X137160000Y-129794000D01*
D16*
X137160000Y-127000000D02*
X136906000Y-127000000D01*
D17*
X138303000Y-128651000D02*
X137160000Y-129794000D01*
X138303000Y-128143000D02*
X137160000Y-127000000D01*
D16*
X138112500Y-127952500D02*
X137160000Y-127000000D01*
D17*
X138303000Y-128270000D02*
X138303000Y-128651000D01*
X138303000Y-128270000D02*
X138303000Y-128143000D01*
D19*
X138530000Y-128270000D02*
X138303000Y-128270000D01*
X137160000Y-127000000D02*
X137310000Y-126850000D01*
X137160000Y-129540000D02*
X137160000Y-129794000D01*
D16*
X137160000Y-127000000D02*
X137160000Y-127960000D01*
D15*
X136906000Y-131318000D02*
X137160000Y-131572000D01*
X137414000Y-131318000D02*
X137160000Y-131572000D01*
X135890000Y-131318000D02*
X136906000Y-131318000D01*
D17*
X137160000Y-135382000D02*
X137160000Y-131572000D01*
D15*
X138430000Y-131318000D02*
X137414000Y-131318000D01*
X75050000Y-127250000D02*
X77750000Y-127250000D01*
X73850000Y-126050000D02*
X75050000Y-127250000D01*
X77750000Y-127250000D02*
X78740000Y-128240000D01*
X78740000Y-128240000D02*
X78740000Y-135282000D01*
X83820000Y-131070000D02*
X82900000Y-130150000D01*
X75150000Y-126450000D02*
X75150000Y-126050000D01*
X82900000Y-130150000D02*
X81498528Y-130150000D01*
X83820000Y-135282000D02*
X83820000Y-131070000D01*
X75350000Y-126650000D02*
X75150000Y-126450000D01*
X81498528Y-130150000D02*
X77998528Y-126650000D01*
X77998528Y-126650000D02*
X75350000Y-126650000D01*
D17*
X76200000Y-135382000D02*
X76200000Y-129540000D01*
X76200000Y-128397000D02*
X76200000Y-129540000D01*
X76200000Y-129540000D02*
X76200000Y-129413000D01*
X76200000Y-129413000D02*
X77343000Y-128270000D01*
X76327000Y-128270000D02*
X76200000Y-128397000D01*
X77343000Y-128270000D02*
X76327000Y-128270000D01*
X119380000Y-129794000D02*
X119126000Y-129540000D01*
X119380000Y-135382000D02*
X119380000Y-129794000D01*
X116840000Y-135382000D02*
X116840000Y-129794000D01*
X116840000Y-129794000D02*
X117094000Y-129540000D01*
D15*
X75200000Y-126950000D02*
X77874264Y-126950000D01*
X74500000Y-123850000D02*
X74500000Y-126250000D01*
X81280000Y-130355736D02*
X81280000Y-135282000D01*
X74500000Y-126250000D02*
X75200000Y-126950000D01*
X77874264Y-126950000D02*
X81280000Y-130355736D01*
X132080000Y-135382000D02*
X132080000Y-131191000D01*
X86774264Y-130000000D02*
X90500000Y-130000000D01*
X81871320Y-129250000D02*
X86024264Y-129250000D01*
X77100000Y-123850000D02*
X77100000Y-125500000D01*
X77100000Y-125500000D02*
X77350000Y-125750000D01*
X91440000Y-130940000D02*
X91440000Y-135282000D01*
X78371320Y-125750000D02*
X81871320Y-129250000D01*
X90500000Y-130000000D02*
X91440000Y-130940000D01*
X77350000Y-125750000D02*
X78371320Y-125750000D01*
X86024264Y-129250000D02*
X86774264Y-130000000D01*
X127000000Y-129600000D02*
X127000000Y-135282000D01*
X80040076Y-125540076D02*
X80400000Y-125900000D01*
X86274264Y-128650000D02*
X87024264Y-129400000D01*
X80400000Y-126930152D02*
X82119848Y-128650000D01*
X95000000Y-129400000D02*
X96520000Y-130920000D01*
X82119848Y-128650000D02*
X86274264Y-128650000D01*
X96520000Y-130920000D02*
X96520000Y-135282000D01*
X78400000Y-124930152D02*
X79009924Y-125540076D01*
X87024264Y-129400000D02*
X95000000Y-129400000D01*
X79009924Y-125540076D02*
X80040076Y-125540076D01*
X80400000Y-125900000D02*
X80400000Y-126930152D01*
X78400000Y-123850000D02*
X78400000Y-124930152D01*
X86900000Y-129700000D02*
X92900000Y-129700000D01*
X77750000Y-124704416D02*
X81995584Y-128950000D01*
X86150000Y-128950000D02*
X86900000Y-129700000D01*
X81995584Y-128950000D02*
X86150000Y-128950000D01*
X92900000Y-129700000D02*
X93980000Y-130780000D01*
X93980000Y-130780000D02*
X93980000Y-135282000D01*
X77750000Y-123050000D02*
X77750000Y-124704416D01*
X88900000Y-135282000D02*
X88900000Y-131000000D01*
X78247056Y-126050000D02*
X77000000Y-126050000D01*
X88900000Y-131000000D02*
X88200000Y-130300000D01*
X85900000Y-129550000D02*
X81747056Y-129550000D01*
X77000000Y-126050000D02*
X76450000Y-125500000D01*
X76450000Y-125500000D02*
X76450000Y-123050000D01*
X88200000Y-130300000D02*
X86650000Y-130300000D01*
X86650000Y-130300000D02*
X85900000Y-129550000D01*
X81747056Y-129550000D02*
X78247056Y-126050000D01*
X76850000Y-126350000D02*
X78122792Y-126350000D01*
X81622792Y-129850000D02*
X85225000Y-129850000D01*
X86360000Y-130985000D02*
X86360000Y-135282000D01*
X75800000Y-123850000D02*
X75800000Y-125300000D01*
X78122792Y-126350000D02*
X81622792Y-129850000D01*
X85225000Y-129850000D02*
X86360000Y-130985000D01*
X75800000Y-125300000D02*
X76850000Y-126350000D01*
X101051000Y-129200000D02*
X99060000Y-131191000D01*
X99060000Y-131191000D02*
X99060000Y-135382000D01*
X102321000Y-129200000D02*
X101051000Y-129200000D01*
X124460000Y-135382000D02*
X124460000Y-129460000D01*
M02*
