M48
; DRILL file {KiCad 8.0.6} date 2025-03-26T02:33:47-0400
; FORMAT={-:-/ absolute / metric / decimal}
; #@! TF.CreationDate,2025-03-26T02:33:47-04:00
; #@! TF.GenerationSoftware,Kicad,Pcbnew,8.0.6
; #@! TF.FileFunction,MixedPlating,1,4
FMAT,2
METRIC
; #@! TA.AperFunction,Plated,PTH,ViaDrill
T1C0.300
; #@! TA.AperFunction,Plated,PTH,ViaDrill
T2C0.400
; #@! TA.AperFunction,Plated,PTH,ViaDrill
T3C0.762
; #@! TA.AperFunction,NonPlated,NPTH,ComponentDrill
T4C1.152
%
G90
G05
T1
X46.355Y-93.472
X46.355Y-109.601
X46.355Y-114.681
X46.355Y-119.761
X46.355Y-124.841
X46.355Y-129.54
X48.133Y-131.318
X48.895Y-90.805
X51.25Y-123.9
X51.435Y-88.265
X51.435Y-131.318
X52.75Y-123.9
X53.6Y-122.25
X53.848Y-128.016
X53.975Y-85.725
X54.5Y-122.85
X54.85Y-118.4
X54.85Y-120.1
X56.05Y-118.4
X56.2Y-120.35
X56.515Y-83.185
X56.515Y-131.318
X57.1Y-120.95
X58.928Y-128.016
X59.182Y-80.645
X61.468Y-115.316
X61.468Y-125.476
X61.595Y-131.318
X62.103Y-80.645
X64.008Y-112.776
X64.008Y-117.856
X64.008Y-122.936
X64.008Y-128.016
X66.548Y-115.316
X66.675Y-131.318
X67.183Y-80.645
X69.088Y-112.776
X69.088Y-128.016
X71.755Y-131.318
X72.263Y-80.645
X73.2Y-119.05
X73.85Y-117.9
X73.85Y-120.2
X73.85Y-126.05
X74.5Y-123.85
X75.15Y-126.05
X75.8Y-123.85
X76.45Y-123.05
X77.1Y-123.85
X77.343Y-80.645
X77.47Y-131.318
X77.75Y-123.05
X78.4Y-123.85
X79.7Y-123.85
X79.85Y-126.05
X80.01Y-131.318
X80.325Y-124.95
X80.35Y-123.35
X80.8Y-119.05
X80.8Y-120.25
X81.2Y-125.8
X81.65Y-118.1
X82.1Y-123.6
X82.1Y-124.8
X82.423Y-80.645
X82.5Y-120.4
X82.55Y-119.05
X82.55Y-131.318
X83.2Y-117.95
X83.2Y-120.15
X85.09Y-131.318
X87.1Y-123.85
X87.1Y-126.05
X87.503Y-80.645
X87.63Y-131.318
X87.7Y-124.95
X90.17Y-131.318
X92.4Y-119.05
X92.4Y-120.25
X92.583Y-80.645
X92.71Y-131.318
X93.25Y-118.1
X94.1Y-120.4
X94.15Y-119.05
X94.8Y-117.95
X94.8Y-120.15
X95.25Y-131.318
X97.663Y-80.645
X97.79Y-131.318
X98.7Y-123.85
X98.7Y-126.05
X99.3Y-124.95
X100.203Y-83.185
X100.33Y-131.318
X100.75Y-93.05
X100.75Y-94.25
X100.95Y-106.05
X100.95Y-107.25
X100.95Y-119.05
X100.95Y-120.25
X101.6Y-92.1
X101.8Y-105.1
X101.8Y-118.1
X102.45Y-94.4
X102.5Y-93.05
X102.65Y-107.4
X102.65Y-120.4
X102.7Y-106.05
X102.7Y-119.05
X102.743Y-80.645
X102.743Y-85.725
X102.87Y-131.318
X103.15Y-91.95
X103.15Y-94.15
X103.35Y-104.95
X103.35Y-107.15
X103.35Y-117.95
X103.35Y-120.15
X105.283Y-83.185
X105.41Y-131.318
X107.25Y-110.85
X107.25Y-113.05
X107.25Y-123.85
X107.25Y-126.05
X107.823Y-80.645
X107.85Y-111.95
X107.85Y-124.95
X107.95Y-131.318
X109.0Y-97.85
X109.0Y-100.05
X109.5Y-106.05
X109.5Y-107.25
X109.5Y-119.05
X109.5Y-120.25
X109.6Y-98.95
X110.35Y-105.1
X110.35Y-118.1
X110.49Y-131.318
X111.2Y-107.4
X111.2Y-120.4
X111.25Y-106.05
X111.25Y-119.05
X111.9Y-104.95
X111.9Y-107.15
X111.9Y-117.95
X111.9Y-120.15
X112.903Y-80.645
X113.03Y-131.318
X115.57Y-131.318
X115.8Y-110.85
X115.8Y-113.05
X115.8Y-123.85
X115.8Y-126.05
X116.3Y-93.05
X116.3Y-94.25
X116.4Y-111.95
X116.4Y-124.95
X117.15Y-92.1
X117.983Y-80.645
X118.0Y-94.4
X118.05Y-93.05
X118.05Y-106.05
X118.05Y-107.25
X118.05Y-119.05
X118.05Y-120.25
X118.11Y-131.318
X118.7Y-91.95
X118.7Y-94.15
X118.9Y-105.1
X118.9Y-118.1
X119.75Y-107.4
X119.75Y-120.4
X119.8Y-106.05
X119.8Y-119.05
X120.45Y-104.95
X120.45Y-107.15
X120.45Y-117.95
X120.45Y-120.15
X120.523Y-83.185
X120.65Y-131.318
X123.063Y-80.645
X123.063Y-85.725
X123.19Y-131.318
X124.35Y-110.85
X124.35Y-113.05
X124.35Y-123.85
X124.35Y-126.05
X124.55Y-97.85
X124.55Y-100.05
X124.95Y-111.95
X124.95Y-124.95
X125.15Y-98.95
X125.603Y-83.185
X125.603Y-128.905
X125.73Y-131.318
X128.143Y-80.645
X128.143Y-85.725
X128.27Y-131.318
X130.683Y-83.185
X130.81Y-131.318
X132.08Y-131.191
X133.223Y-80.645
X133.223Y-85.725
X133.35Y-131.318
X134.62Y-131.191
X135.763Y-83.185
X135.89Y-131.318
X138.303Y-80.645
X138.303Y-85.725
X138.43Y-131.318
X140.843Y-88.265
X143.002Y-80.645
X143.002Y-131.318
X143.383Y-85.725
X143.383Y-90.805
X143.383Y-95.885
X143.383Y-100.965
X144.78Y-82.423
X144.78Y-88.265
X144.78Y-93.345
X144.78Y-98.425
X144.78Y-103.505
X144.78Y-108.585
X144.78Y-113.665
X144.78Y-118.745
X144.78Y-123.825
X144.78Y-129.54
T2
X73.406Y-128.524
X74.549Y-129.54
X76.2Y-129.54
X77.343Y-128.27
X114.3Y-128.27
X115.443Y-129.54
X117.094Y-129.54
X119.126Y-129.54
X120.777Y-129.54
X121.856Y-128.27
X135.509Y-127.0
X135.509Y-129.54
X137.16Y-127.0
X138.303Y-128.27
T3
X137.16Y-129.794
T4
X48.133Y-127.0
X57.023Y-84.709
X140.462Y-82.423
X140.462Y-129.54
X143.002Y-127.0
M30
