G04 #@! TF.GenerationSoftware,KiCad,Pcbnew,8.0.6*
G04 #@! TF.CreationDate,2025-03-26T02:33:46-04:00*
G04 #@! TF.ProjectId,RAM128,52414d31-3238-42e6-9b69-6361645f7063,1.0*
G04 #@! TF.SameCoordinates,Original*
G04 #@! TF.FileFunction,Copper,L1,Top*
G04 #@! TF.FilePolarity,Positive*
%FSLAX46Y46*%
G04 Gerber Fmt 4.6, Leading zero omitted, Abs format (unit mm)*
G04 Created by KiCad (PCBNEW 8.0.6) date 2025-03-26 02:33:46*
%MOMM*%
%LPD*%
G01*
G04 APERTURE LIST*
G04 Aperture macros list*
%AMRoundRect*
0 Rectangle with rounded corners*
0 $1 Rounding radius*
0 $2 $3 $4 $5 $6 $7 $8 $9 X,Y pos of 4 corners*
0 Add a 4 corners polygon primitive as box body*
4,1,4,$2,$3,$4,$5,$6,$7,$8,$9,$2,$3,0*
0 Add four circle primitives for the rounded corners*
1,1,$1+$1,$2,$3*
1,1,$1+$1,$4,$5*
1,1,$1+$1,$6,$7*
1,1,$1+$1,$8,$9*
0 Add four rect primitives between the rounded corners*
20,1,$1+$1,$2,$3,$4,$5,0*
20,1,$1+$1,$4,$5,$6,$7,0*
20,1,$1+$1,$6,$7,$8,$9,0*
20,1,$1+$1,$8,$9,$2,$3,0*%
G04 Aperture macros list end*
G04 #@! TA.AperFunction,SMDPad,CuDef*
%ADD10RoundRect,0.212500X-0.262500X0.212500X-0.262500X-0.212500X0.262500X-0.212500X0.262500X0.212500X0*%
G04 #@! TD*
G04 #@! TA.AperFunction,SMDPad,CuDef*
%ADD11RoundRect,0.212500X-0.487500X0.212500X-0.487500X-0.212500X0.487500X-0.212500X0.487500X0.212500X0*%
G04 #@! TD*
G04 #@! TA.AperFunction,SMDPad,CuDef*
%ADD12RoundRect,0.262500X0.262500X0.437500X-0.262500X0.437500X-0.262500X-0.437500X0.262500X-0.437500X0*%
G04 #@! TD*
G04 #@! TA.AperFunction,SMDPad,CuDef*
%ADD13C,1.000000*%
G04 #@! TD*
G04 #@! TA.AperFunction,SMDPad,CuDef*
%ADD14RoundRect,0.112500X0.112500X-0.612500X0.112500X0.612500X-0.112500X0.612500X-0.112500X-0.612500X0*%
G04 #@! TD*
G04 #@! TA.AperFunction,SMDPad,CuDef*
%ADD15RoundRect,0.243750X-0.456250X0.243750X-0.456250X-0.243750X0.456250X-0.243750X0.456250X0.243750X0*%
G04 #@! TD*
G04 #@! TA.AperFunction,SMDPad,CuDef*
%ADD16RoundRect,0.175000X0.175000X0.300000X-0.175000X0.300000X-0.175000X-0.300000X0.175000X-0.300000X0*%
G04 #@! TD*
G04 #@! TA.AperFunction,SMDPad,CuDef*
%ADD17RoundRect,0.100000X-0.400000X-0.100000X0.400000X-0.100000X0.400000X0.100000X-0.400000X0.100000X0*%
G04 #@! TD*
G04 #@! TA.AperFunction,SMDPad,CuDef*
%ADD18RoundRect,0.175000X-0.175000X-0.300000X0.175000X-0.300000X0.175000X0.300000X-0.175000X0.300000X0*%
G04 #@! TD*
G04 #@! TA.AperFunction,SMDPad,CuDef*
%ADD19RoundRect,0.212500X0.262500X-0.212500X0.262500X0.212500X-0.262500X0.212500X-0.262500X-0.212500X0*%
G04 #@! TD*
G04 #@! TA.AperFunction,SMDPad,CuDef*
%ADD20RoundRect,0.190000X0.190000X-0.572000X0.190000X0.572000X-0.190000X0.572000X-0.190000X-0.572000X0*%
G04 #@! TD*
G04 #@! TA.AperFunction,SMDPad,CuDef*
%ADD21RoundRect,0.212500X0.212500X0.262500X-0.212500X0.262500X-0.212500X-0.262500X0.212500X-0.262500X0*%
G04 #@! TD*
G04 #@! TA.AperFunction,SMDPad,CuDef*
%ADD22RoundRect,0.381000X0.381000X3.289000X-0.381000X3.289000X-0.381000X-3.289000X0.381000X-3.289000X0*%
G04 #@! TD*
G04 #@! TA.AperFunction,SMDPad,CuDef*
%ADD23RoundRect,0.112500X-0.112500X0.612500X-0.112500X-0.612500X0.112500X-0.612500X0.112500X0.612500X0*%
G04 #@! TD*
G04 #@! TA.AperFunction,SMDPad,CuDef*
%ADD24RoundRect,0.175000X0.300000X-0.175000X0.300000X0.175000X-0.300000X0.175000X-0.300000X-0.175000X0*%
G04 #@! TD*
G04 #@! TA.AperFunction,SMDPad,CuDef*
%ADD25RoundRect,0.262500X0.437500X-0.262500X0.437500X0.262500X-0.437500X0.262500X-0.437500X-0.262500X0*%
G04 #@! TD*
G04 #@! TA.AperFunction,SMDPad,CuDef*
%ADD26RoundRect,0.100000X0.100000X-0.400000X0.100000X0.400000X-0.100000X0.400000X-0.100000X-0.400000X0*%
G04 #@! TD*
G04 #@! TA.AperFunction,SMDPad,CuDef*
%ADD27RoundRect,0.100000X-0.100000X0.400000X-0.100000X-0.400000X0.100000X-0.400000X0.100000X0.400000X0*%
G04 #@! TD*
G04 #@! TA.AperFunction,SMDPad,CuDef*
%ADD28RoundRect,0.150000X-0.150000X0.802500X-0.150000X-0.802500X0.150000X-0.802500X0.150000X0.802500X0*%
G04 #@! TD*
G04 #@! TA.AperFunction,SMDPad,CuDef*
%ADD29RoundRect,0.262500X-0.262500X-0.437500X0.262500X-0.437500X0.262500X0.437500X-0.262500X0.437500X0*%
G04 #@! TD*
G04 #@! TA.AperFunction,SMDPad,CuDef*
%ADD30RoundRect,0.200000X0.200000X-0.475000X0.200000X0.475000X-0.200000X0.475000X-0.200000X-0.475000X0*%
G04 #@! TD*
G04 #@! TA.AperFunction,ViaPad*
%ADD31C,0.500000*%
G04 #@! TD*
G04 #@! TA.AperFunction,ViaPad*
%ADD32C,1.524000*%
G04 #@! TD*
G04 #@! TA.AperFunction,ViaPad*
%ADD33C,0.800000*%
G04 #@! TD*
G04 #@! TA.AperFunction,ViaPad*
%ADD34C,0.600000*%
G04 #@! TD*
G04 #@! TA.AperFunction,Conductor*
%ADD35C,0.150000*%
G04 #@! TD*
G04 #@! TA.AperFunction,Conductor*
%ADD36C,0.450000*%
G04 #@! TD*
G04 #@! TA.AperFunction,Conductor*
%ADD37C,0.500000*%
G04 #@! TD*
G04 #@! TA.AperFunction,Conductor*
%ADD38C,0.800000*%
G04 #@! TD*
G04 #@! TA.AperFunction,Conductor*
%ADD39C,0.400000*%
G04 #@! TD*
G04 #@! TA.AperFunction,Conductor*
%ADD40C,1.524000*%
G04 #@! TD*
G04 #@! TA.AperFunction,Conductor*
%ADD41C,0.600000*%
G04 #@! TD*
G04 #@! TA.AperFunction,Conductor*
%ADD42C,0.762000*%
G04 #@! TD*
G04 APERTURE END LIST*
D10*
X101800000Y-105900000D03*
X101800000Y-107400000D03*
D11*
X58350000Y-97700000D03*
X58350000Y-99600000D03*
D12*
X76200000Y-128270000D03*
X74500000Y-128270000D03*
D13*
X143002000Y-82423000D03*
D10*
X117150000Y-92900000D03*
X117150000Y-94400000D03*
D14*
X103150000Y-98950000D03*
X103800000Y-98950000D03*
X104450000Y-98950000D03*
X105100000Y-98950000D03*
X105750000Y-98950000D03*
X106400000Y-98950000D03*
X107050000Y-98950000D03*
X107700000Y-98950000D03*
X108350000Y-98950000D03*
X109000000Y-98950000D03*
X109000000Y-93050000D03*
X108350000Y-93050000D03*
X107700000Y-93050000D03*
X107050000Y-93050000D03*
X106400000Y-93050000D03*
X105750000Y-93050000D03*
X105100000Y-93050000D03*
X104450000Y-93050000D03*
X103800000Y-93050000D03*
X103150000Y-93050000D03*
D15*
X61550000Y-94312500D03*
X61550000Y-96187500D03*
D16*
X113950000Y-99150000D03*
X112350000Y-99150000D03*
D10*
X110350000Y-105900000D03*
X110350000Y-107400000D03*
X118900000Y-118900000D03*
X118900000Y-120400000D03*
D17*
X54500000Y-120950000D03*
X54500000Y-121600000D03*
X54500000Y-122250000D03*
X56200000Y-122250000D03*
X56200000Y-120950000D03*
D13*
X143002000Y-129540000D03*
D11*
X67950000Y-97700000D03*
X67950000Y-99600000D03*
D14*
X94800000Y-124950000D03*
X95450000Y-124950000D03*
X96100000Y-124950000D03*
X96750000Y-124950000D03*
X97400000Y-124950000D03*
X98050000Y-124950000D03*
X98700000Y-124950000D03*
X98700000Y-119050000D03*
X98050000Y-119050000D03*
X97400000Y-119050000D03*
X96750000Y-119050000D03*
X96100000Y-119050000D03*
X95450000Y-119050000D03*
X94800000Y-119050000D03*
D12*
X120826000Y-128270000D03*
X119126000Y-128270000D03*
D18*
X112350000Y-94650000D03*
X113950000Y-94650000D03*
D15*
X53950000Y-94312500D03*
X53950000Y-96187500D03*
D13*
X48133000Y-93599000D03*
D10*
X101600000Y-92900000D03*
X101600000Y-94400000D03*
D19*
X129000000Y-124250000D03*
X129000000Y-122750000D03*
D11*
X61550000Y-97700000D03*
X61550000Y-99600000D03*
X56150000Y-97700000D03*
X56150000Y-99600000D03*
D14*
X103350000Y-124950000D03*
X104000000Y-124950000D03*
X104650000Y-124950000D03*
X105300000Y-124950000D03*
X105950000Y-124950000D03*
X106600000Y-124950000D03*
X107250000Y-124950000D03*
X107250000Y-119050000D03*
X106600000Y-119050000D03*
X105950000Y-119050000D03*
X105300000Y-119050000D03*
X104650000Y-119050000D03*
X104000000Y-119050000D03*
X103350000Y-119050000D03*
D10*
X135350000Y-122600000D03*
X135350000Y-124100000D03*
D18*
X132400000Y-128250000D03*
X134000000Y-128250000D03*
D20*
X132143500Y-97091500D03*
X133413500Y-97091500D03*
X134683500Y-97091500D03*
X135953500Y-97091500D03*
X137223500Y-97091500D03*
X137223500Y-89471500D03*
X135953500Y-89471500D03*
X134683500Y-89471500D03*
X133413500Y-89471500D03*
X132143500Y-89471500D03*
D21*
X56200000Y-119250000D03*
X54700000Y-119250000D03*
D22*
X76200000Y-135282000D03*
X78740000Y-135282000D03*
X81280000Y-135282000D03*
X83820000Y-135282000D03*
X86360000Y-135282000D03*
X88900000Y-135282000D03*
X91440000Y-135282000D03*
X93980000Y-135282000D03*
X96520000Y-135282000D03*
X99060000Y-135282000D03*
X101600000Y-135282000D03*
X104140000Y-135282000D03*
X106680000Y-135282000D03*
X109220000Y-135282000D03*
X111760000Y-135282000D03*
X114300000Y-135282000D03*
X116840000Y-135282000D03*
X119380000Y-135282000D03*
X121920000Y-135282000D03*
X124460000Y-135282000D03*
X127000000Y-135282000D03*
X129540000Y-135282000D03*
X132080000Y-135282000D03*
X134620000Y-135282000D03*
X137160000Y-135282000D03*
D23*
X79700000Y-119050000D03*
X79050000Y-119050000D03*
X78400000Y-119050000D03*
X77750000Y-119050000D03*
X77100000Y-119050000D03*
X76450000Y-119050000D03*
X75800000Y-119050000D03*
X75150000Y-119050000D03*
X74500000Y-119050000D03*
X73850000Y-119050000D03*
X73850000Y-124950000D03*
X74500000Y-124950000D03*
X75150000Y-124950000D03*
X75800000Y-124950000D03*
X76450000Y-124950000D03*
X77100000Y-124950000D03*
X77750000Y-124950000D03*
X78400000Y-124950000D03*
X79050000Y-124950000D03*
X79700000Y-124950000D03*
D24*
X51250000Y-123150000D03*
X51250000Y-121550000D03*
D14*
X103350000Y-111950000D03*
X104000000Y-111950000D03*
X104650000Y-111950000D03*
X105300000Y-111950000D03*
X105950000Y-111950000D03*
X106600000Y-111950000D03*
X107250000Y-111950000D03*
X107250000Y-106050000D03*
X106600000Y-106050000D03*
X105950000Y-106050000D03*
X105300000Y-106050000D03*
X104650000Y-106050000D03*
X104000000Y-106050000D03*
X103350000Y-106050000D03*
D10*
X118900000Y-105900000D03*
X118900000Y-107400000D03*
D25*
X101085500Y-111744500D03*
X101085500Y-110044500D03*
D14*
X83200000Y-124950000D03*
X83850000Y-124950000D03*
X84500000Y-124950000D03*
X85150000Y-124950000D03*
X85800000Y-124950000D03*
X86450000Y-124950000D03*
X87100000Y-124950000D03*
X87100000Y-119050000D03*
X86450000Y-119050000D03*
X85800000Y-119050000D03*
X85150000Y-119050000D03*
X84500000Y-119050000D03*
X83850000Y-119050000D03*
X83200000Y-119050000D03*
X118700000Y-98950000D03*
X119350000Y-98950000D03*
X120000000Y-98950000D03*
X120650000Y-98950000D03*
X121300000Y-98950000D03*
X121950000Y-98950000D03*
X122600000Y-98950000D03*
X123250000Y-98950000D03*
X123900000Y-98950000D03*
X124550000Y-98950000D03*
X124550000Y-93050000D03*
X123900000Y-93050000D03*
X123250000Y-93050000D03*
X122600000Y-93050000D03*
X121950000Y-93050000D03*
X121300000Y-93050000D03*
X120650000Y-93050000D03*
X120000000Y-93050000D03*
X119350000Y-93050000D03*
X118700000Y-93050000D03*
D10*
X81650000Y-118900000D03*
X81650000Y-120400000D03*
D24*
X58350000Y-122250000D03*
X58350000Y-120650000D03*
D16*
X113950000Y-93150000D03*
X112350000Y-93150000D03*
D10*
X130800000Y-122550000D03*
X130800000Y-124050000D03*
D11*
X64750000Y-97700000D03*
X64750000Y-99600000D03*
D18*
X142400000Y-120850000D03*
X144000000Y-120850000D03*
D16*
X127700000Y-126100000D03*
X126100000Y-126100000D03*
D12*
X137160000Y-128270000D03*
X135460000Y-128270000D03*
D10*
X52750000Y-121600000D03*
X52750000Y-123100000D03*
D16*
X113950000Y-96150000D03*
X112350000Y-96150000D03*
D26*
X136800000Y-124300000D03*
X137450000Y-124300000D03*
X138100000Y-124300000D03*
X138100000Y-122600000D03*
X136800000Y-122600000D03*
X132250000Y-124250000D03*
X132900000Y-124250000D03*
X133550000Y-124250000D03*
X133550000Y-122550000D03*
X132250000Y-122550000D03*
D27*
X127400000Y-122550000D03*
X126750000Y-122550000D03*
X126100000Y-122550000D03*
X126100000Y-124250000D03*
X127400000Y-124250000D03*
D13*
X48133000Y-129540000D03*
D28*
X93599000Y-93218000D03*
X92329000Y-93218000D03*
X91059000Y-93218000D03*
X89789000Y-93218000D03*
X88519000Y-93218000D03*
X87249000Y-93218000D03*
X85979000Y-93218000D03*
X84709000Y-93218000D03*
X83439000Y-93218000D03*
X82169000Y-93218000D03*
X80899000Y-93218000D03*
X79629000Y-93218000D03*
X78359000Y-93218000D03*
X77089000Y-93218000D03*
X75819000Y-93218000D03*
X74549000Y-93218000D03*
X74549000Y-106426000D03*
X75819000Y-106426000D03*
X77089000Y-106426000D03*
X78359000Y-106426000D03*
X79629000Y-106426000D03*
X80899000Y-106426000D03*
X82169000Y-106426000D03*
X83439000Y-106426000D03*
X84709000Y-106426000D03*
X85979000Y-106426000D03*
X87249000Y-106426000D03*
X88519000Y-106426000D03*
X89789000Y-106426000D03*
X91059000Y-106426000D03*
X92329000Y-106426000D03*
X93599000Y-106426000D03*
D14*
X120450000Y-111950000D03*
X121100000Y-111950000D03*
X121750000Y-111950000D03*
X122400000Y-111950000D03*
X123050000Y-111950000D03*
X123700000Y-111950000D03*
X124350000Y-111950000D03*
X124350000Y-106050000D03*
X123700000Y-106050000D03*
X123050000Y-106050000D03*
X122400000Y-106050000D03*
X121750000Y-106050000D03*
X121100000Y-106050000D03*
X120450000Y-106050000D03*
D11*
X53950000Y-97700000D03*
X53950000Y-99600000D03*
D13*
X58801000Y-82931000D03*
D14*
X111900000Y-124950000D03*
X112550000Y-124950000D03*
X113200000Y-124950000D03*
X113850000Y-124950000D03*
X114500000Y-124950000D03*
X115150000Y-124950000D03*
X115800000Y-124950000D03*
X115800000Y-119050000D03*
X115150000Y-119050000D03*
X114500000Y-119050000D03*
X113850000Y-119050000D03*
X113200000Y-119050000D03*
X112550000Y-119050000D03*
X111900000Y-119050000D03*
D24*
X140300000Y-124650000D03*
X140300000Y-123050000D03*
D16*
X113950000Y-97650000D03*
X112350000Y-97650000D03*
D10*
X93250000Y-118900000D03*
X93250000Y-120400000D03*
D15*
X56150000Y-94312500D03*
X56150000Y-96187500D03*
D10*
X110350000Y-118900000D03*
X110350000Y-120400000D03*
D29*
X115394000Y-128270000D03*
X117094000Y-128270000D03*
D15*
X67950000Y-94312500D03*
X67950000Y-96187500D03*
D10*
X101800000Y-118900000D03*
X101800000Y-120400000D03*
D14*
X120450000Y-124950000D03*
X121100000Y-124950000D03*
X121750000Y-124950000D03*
X122400000Y-124950000D03*
X123050000Y-124950000D03*
X123700000Y-124950000D03*
X124350000Y-124950000D03*
X124350000Y-119050000D03*
X123700000Y-119050000D03*
X123050000Y-119050000D03*
X122400000Y-119050000D03*
X121750000Y-119050000D03*
X121100000Y-119050000D03*
X120450000Y-119050000D03*
X111900000Y-111950000D03*
X112550000Y-111950000D03*
X113200000Y-111950000D03*
X113850000Y-111950000D03*
X114500000Y-111950000D03*
X115150000Y-111950000D03*
X115800000Y-111950000D03*
X115800000Y-106050000D03*
X115150000Y-106050000D03*
X114500000Y-106050000D03*
X113850000Y-106050000D03*
X113200000Y-106050000D03*
X112550000Y-106050000D03*
X111900000Y-106050000D03*
D19*
X81200000Y-124950000D03*
X81200000Y-123450000D03*
D15*
X58350000Y-94312500D03*
X58350000Y-96187500D03*
X64750000Y-94312500D03*
X64750000Y-96187500D03*
D30*
X141850000Y-124650000D03*
X143750000Y-124650000D03*
X142800000Y-122550000D03*
D31*
X119800000Y-119050000D03*
X118700000Y-91950000D03*
X109500000Y-119050000D03*
X118900000Y-118100000D03*
X51250000Y-123900000D03*
X111900000Y-117950000D03*
X103350000Y-104950000D03*
X111250000Y-106050000D03*
X83200000Y-117950000D03*
X110350000Y-105100000D03*
X103150000Y-94150000D03*
X103350000Y-120150000D03*
X101600000Y-92100000D03*
X103150000Y-91950000D03*
X102700000Y-106050000D03*
X80800000Y-119050000D03*
X83200000Y-120150000D03*
X56200000Y-120350000D03*
X81650000Y-118100000D03*
X101800000Y-118100000D03*
X92400000Y-119050000D03*
X117150000Y-92100000D03*
D32*
X137160000Y-129794000D03*
D31*
X101800000Y-105100000D03*
X120450000Y-107150000D03*
X82550000Y-119050000D03*
X109500000Y-106050000D03*
X120450000Y-117950000D03*
X100950000Y-119050000D03*
D33*
X138303000Y-128270000D03*
D34*
X82100000Y-124800000D03*
D31*
X100950000Y-106050000D03*
X118900000Y-105100000D03*
X111900000Y-107150000D03*
X79700000Y-123850000D03*
X118050000Y-106050000D03*
X100750000Y-93050000D03*
X103350000Y-117950000D03*
X118700000Y-94150000D03*
X110350000Y-118100000D03*
X94800000Y-120150000D03*
X116300000Y-93050000D03*
X56050000Y-118400000D03*
D34*
X81200000Y-125800000D03*
D33*
X137160000Y-127000000D03*
D31*
X94800000Y-117950000D03*
X79850000Y-126050000D03*
X119800000Y-106050000D03*
X120450000Y-104950000D03*
X111900000Y-120150000D03*
X57100000Y-120950000D03*
X102700000Y-119050000D03*
X118050000Y-119050000D03*
X111250000Y-119050000D03*
X94150000Y-119050000D03*
X80325000Y-124950000D03*
X111900000Y-104950000D03*
X102500000Y-93050000D03*
X120450000Y-120150000D03*
X118050000Y-93050000D03*
X103350000Y-107150000D03*
X93250000Y-118100000D03*
X143383000Y-100965000D03*
X118110000Y-131318000D03*
X64008000Y-122936000D03*
X124350000Y-110850000D03*
X123063000Y-85725000D03*
X82550000Y-131318000D03*
X116300000Y-94250000D03*
X92710000Y-131318000D03*
X100950000Y-107250000D03*
X97790000Y-131318000D03*
X87100000Y-126050000D03*
X97663000Y-80645000D03*
X61468000Y-115316000D03*
X72263000Y-80645000D03*
X69088000Y-128016000D03*
X133350000Y-131318000D03*
X107950000Y-131318000D03*
X109600000Y-98950000D03*
X138303000Y-80645000D03*
X107250000Y-110850000D03*
X119750000Y-107400000D03*
X119750000Y-120400000D03*
X138430000Y-131318000D03*
X124550000Y-97850000D03*
X67183000Y-80645000D03*
X124350000Y-113050000D03*
X66675000Y-131318000D03*
X46355000Y-129540000D03*
X53975000Y-85725000D03*
X62103000Y-80645000D03*
X48133000Y-131318000D03*
X100330000Y-131318000D03*
X102870000Y-131318000D03*
X107250000Y-126050000D03*
X144780000Y-123825000D03*
X115800000Y-126050000D03*
X111200000Y-107400000D03*
X87700000Y-124950000D03*
X116400000Y-111950000D03*
X143383000Y-85725000D03*
X144780000Y-103505000D03*
X105410000Y-131318000D03*
X73850000Y-117900000D03*
X135763000Y-83185000D03*
X73850000Y-120200000D03*
X56515000Y-131318000D03*
X87100000Y-123850000D03*
X128143000Y-80645000D03*
X143383000Y-90805000D03*
X107850000Y-111950000D03*
X82500000Y-120400000D03*
X48895000Y-90805000D03*
X64008000Y-117856000D03*
X128270000Y-131318000D03*
X102743000Y-85725000D03*
X77343000Y-80645000D03*
X123063000Y-80645000D03*
X144780000Y-82423000D03*
X133223000Y-85725000D03*
X71755000Y-131318000D03*
X53600000Y-122250000D03*
X51435000Y-131318000D03*
X82423000Y-80645000D03*
X107250000Y-113050000D03*
X118000000Y-94400000D03*
X73200000Y-119050000D03*
X124950000Y-111950000D03*
X56515000Y-83185000D03*
X112903000Y-80645000D03*
X125150000Y-98950000D03*
X120523000Y-83185000D03*
X90170000Y-131318000D03*
D33*
X74549000Y-129540000D03*
D31*
X77470000Y-131318000D03*
D33*
X135509000Y-127000000D03*
D31*
X46355000Y-119761000D03*
X111200000Y-120400000D03*
X144780000Y-118745000D03*
X100950000Y-120250000D03*
X100750000Y-94250000D03*
X98700000Y-123850000D03*
X53848000Y-128016000D03*
X113030000Y-131318000D03*
X59182000Y-80645000D03*
X109500000Y-120250000D03*
D34*
X82100000Y-123600000D03*
D31*
X51435000Y-88265000D03*
X144780000Y-98425000D03*
X116400000Y-124950000D03*
X61595000Y-131318000D03*
X69088000Y-112776000D03*
X54850000Y-120100000D03*
X143383000Y-95885000D03*
X115800000Y-110850000D03*
X144780000Y-88265000D03*
D33*
X135509000Y-129540000D03*
D31*
X102650000Y-107400000D03*
X107850000Y-124950000D03*
X61468000Y-125476000D03*
X52750000Y-123900000D03*
X124350000Y-126050000D03*
X117983000Y-80645000D03*
X54850000Y-118400000D03*
X144780000Y-113665000D03*
X46355000Y-109601000D03*
X58928000Y-128016000D03*
X46355000Y-124841000D03*
X138303000Y-85725000D03*
X143002000Y-131318000D03*
X133223000Y-80645000D03*
X124550000Y-100050000D03*
X80010000Y-131318000D03*
X144780000Y-129540000D03*
X109000000Y-97850000D03*
X54500000Y-122850000D03*
X143002000Y-80645000D03*
X102450000Y-94400000D03*
X100203000Y-83185000D03*
X118050000Y-107250000D03*
X46355000Y-114681000D03*
X94100000Y-120400000D03*
X124350000Y-123850000D03*
X144780000Y-93345000D03*
X92400000Y-120250000D03*
X98700000Y-126050000D03*
X105283000Y-83185000D03*
X135890000Y-131318000D03*
X95250000Y-131318000D03*
X80350000Y-123350000D03*
X123190000Y-131318000D03*
X87630000Y-131318000D03*
X130810000Y-131318000D03*
X115800000Y-113050000D03*
X85090000Y-131318000D03*
X125603000Y-83185000D03*
X102650000Y-120400000D03*
X66548000Y-115316000D03*
X120650000Y-131318000D03*
X115570000Y-131318000D03*
X87503000Y-80645000D03*
X124950000Y-124950000D03*
X92583000Y-80645000D03*
D33*
X73406000Y-128524000D03*
D31*
X107250000Y-123850000D03*
X64008000Y-128016000D03*
X140843000Y-88265000D03*
X115800000Y-123850000D03*
X130683000Y-83185000D03*
X107823000Y-80645000D03*
X109500000Y-107250000D03*
X99300000Y-124950000D03*
X102743000Y-80645000D03*
X144780000Y-108585000D03*
X125730000Y-131318000D03*
X128143000Y-85725000D03*
X46355000Y-93472000D03*
X64008000Y-112776000D03*
X80800000Y-120250000D03*
X110490000Y-131318000D03*
X125603000Y-128905000D03*
X109000000Y-100050000D03*
X118050000Y-120250000D03*
X73850000Y-126050000D03*
X75150000Y-126050000D03*
D33*
X114300000Y-128270000D03*
X115443000Y-129540000D03*
X76200000Y-129540000D03*
X77343000Y-128270000D03*
X120777000Y-129540000D03*
X121856500Y-128270000D03*
X119126000Y-129540000D03*
X117094000Y-129540000D03*
D31*
X74500000Y-123850000D03*
X132080000Y-131191000D03*
X77100000Y-123850000D03*
X78400000Y-123850000D03*
X77750000Y-123050000D03*
X76450000Y-123050000D03*
X75800000Y-123850000D03*
X134620000Y-131191000D03*
D35*
X134620000Y-135382000D02*
X134620000Y-131191000D01*
D36*
X79700000Y-124950000D02*
X79700000Y-125900000D01*
D37*
X118900000Y-105900000D02*
X119650000Y-105900000D01*
X101600000Y-92900000D02*
X101600000Y-92100000D01*
D36*
X94800000Y-119050000D02*
X94800000Y-117950000D01*
D37*
X110350000Y-105900000D02*
X110350000Y-105100000D01*
X101800000Y-118900000D02*
X101100000Y-118900000D01*
X101100000Y-118900000D02*
X100950000Y-119050000D01*
D36*
X120450000Y-106050000D02*
X119800000Y-106050000D01*
D37*
X100900000Y-92900000D02*
X100750000Y-93050000D01*
X93250000Y-118900000D02*
X94000000Y-118900000D01*
D38*
X137160000Y-127000000D02*
X137750000Y-127000000D01*
D37*
X118900000Y-105900000D02*
X118200000Y-105900000D01*
X102550000Y-105900000D02*
X102700000Y-106050000D01*
X110350000Y-105900000D02*
X109650000Y-105900000D01*
D36*
X103150000Y-93050000D02*
X103150000Y-94150000D01*
D39*
X56200000Y-120950000D02*
X57100000Y-120950000D01*
D37*
X118900000Y-118900000D02*
X118900000Y-118100000D01*
D36*
X111900000Y-106050000D02*
X111250000Y-106050000D01*
D37*
X109650000Y-118900000D02*
X109500000Y-119050000D01*
X116450000Y-92900000D02*
X116300000Y-93050000D01*
D36*
X103150000Y-93050000D02*
X103150000Y-91950000D01*
D37*
X81650000Y-118900000D02*
X81650000Y-118100000D01*
D36*
X103350000Y-106050000D02*
X102700000Y-106050000D01*
D37*
X101800000Y-105900000D02*
X102550000Y-105900000D01*
X101800000Y-118900000D02*
X102550000Y-118900000D01*
X117150000Y-92900000D02*
X117900000Y-92900000D01*
X109650000Y-105900000D02*
X109500000Y-106050000D01*
D36*
X118700000Y-93050000D02*
X118700000Y-94150000D01*
D37*
X110350000Y-118900000D02*
X110350000Y-118100000D01*
X101800000Y-118900000D02*
X101800000Y-118100000D01*
D36*
X103350000Y-119050000D02*
X103350000Y-120150000D01*
D40*
X137160000Y-135382000D02*
X137160000Y-129794000D01*
D37*
X102350000Y-92900000D02*
X102500000Y-93050000D01*
D36*
X83200000Y-119050000D02*
X82550000Y-119050000D01*
D37*
X93250000Y-118900000D02*
X92550000Y-118900000D01*
X82400000Y-118900000D02*
X82550000Y-119050000D01*
D38*
X137160000Y-128270000D02*
X137160000Y-129794000D01*
D36*
X120450000Y-119050000D02*
X120450000Y-120150000D01*
X103350000Y-106050000D02*
X103350000Y-104950000D01*
D37*
X119650000Y-118900000D02*
X119800000Y-119050000D01*
D38*
X137668000Y-129794000D02*
X138303000Y-129159000D01*
D36*
X120450000Y-119050000D02*
X120450000Y-117950000D01*
D37*
X111100000Y-105900000D02*
X111250000Y-106050000D01*
D38*
X138303000Y-127381000D02*
X138303000Y-128270000D01*
X137160000Y-130937000D02*
X137160000Y-135382000D01*
D41*
X81225000Y-124950000D02*
X80325000Y-124950000D01*
D42*
X137160000Y-128270000D02*
X137160000Y-127000000D01*
D37*
X117900000Y-92900000D02*
X118050000Y-93050000D01*
X101800000Y-105900000D02*
X101100000Y-105900000D01*
D36*
X120450000Y-106050000D02*
X120450000Y-107150000D01*
X120450000Y-106050000D02*
X120450000Y-104950000D01*
D38*
X137922000Y-127000000D02*
X138303000Y-127381000D01*
D36*
X103350000Y-106050000D02*
X103350000Y-107150000D01*
D37*
X93250000Y-118900000D02*
X93250000Y-118100000D01*
X110350000Y-118900000D02*
X111100000Y-118900000D01*
D36*
X111900000Y-119050000D02*
X111900000Y-117950000D01*
X111900000Y-106050000D02*
X111900000Y-107150000D01*
D37*
X102550000Y-118900000D02*
X102700000Y-119050000D01*
D36*
X79700000Y-124950000D02*
X80325000Y-124950000D01*
D37*
X110350000Y-105900000D02*
X111100000Y-105900000D01*
X118200000Y-118900000D02*
X118050000Y-119050000D01*
X117150000Y-92900000D02*
X116450000Y-92900000D01*
X110350000Y-118900000D02*
X109650000Y-118900000D01*
D39*
X51250000Y-123150000D02*
X51250000Y-123900000D01*
D37*
X119650000Y-105900000D02*
X119800000Y-106050000D01*
D41*
X81200000Y-124950000D02*
X81200000Y-125800000D01*
D36*
X120450000Y-119050000D02*
X119800000Y-119050000D01*
X103350000Y-119050000D02*
X102700000Y-119050000D01*
D39*
X56200000Y-120950000D02*
X56200000Y-120350000D01*
D37*
X118900000Y-118900000D02*
X118200000Y-118900000D01*
X101600000Y-92900000D02*
X102350000Y-92900000D01*
X118900000Y-105900000D02*
X118900000Y-105100000D01*
D36*
X94800000Y-119050000D02*
X94150000Y-119050000D01*
D37*
X56200000Y-118550000D02*
X56050000Y-118400000D01*
X56200000Y-119250000D02*
X56200000Y-120350000D01*
D36*
X111900000Y-106050000D02*
X111900000Y-104950000D01*
D37*
X81650000Y-118900000D02*
X82400000Y-118900000D01*
D36*
X118700000Y-93050000D02*
X118700000Y-91950000D01*
X83200000Y-119050000D02*
X83200000Y-117950000D01*
D37*
X81650000Y-118900000D02*
X80950000Y-118900000D01*
D36*
X118700000Y-93050000D02*
X118050000Y-93050000D01*
D37*
X101800000Y-105900000D02*
X101800000Y-105100000D01*
X80950000Y-118900000D02*
X80800000Y-119050000D01*
X117150000Y-92900000D02*
X117150000Y-92100000D01*
X101600000Y-92900000D02*
X100900000Y-92900000D01*
X101100000Y-105900000D02*
X100950000Y-106050000D01*
X118900000Y-118900000D02*
X119650000Y-118900000D01*
D36*
X103150000Y-93050000D02*
X102500000Y-93050000D01*
X111900000Y-119050000D02*
X111900000Y-120150000D01*
D38*
X138303000Y-129159000D02*
X138303000Y-128270000D01*
D36*
X79700000Y-124950000D02*
X79700000Y-123850000D01*
D38*
X137160000Y-129794000D02*
X137668000Y-129794000D01*
D37*
X118200000Y-105900000D02*
X118050000Y-106050000D01*
D36*
X79700000Y-125900000D02*
X79850000Y-126050000D01*
X111900000Y-119050000D02*
X111250000Y-119050000D01*
X83200000Y-119050000D02*
X83200000Y-120150000D01*
D38*
X137160000Y-127000000D02*
X137922000Y-127000000D01*
D41*
X81950000Y-124950000D02*
X82100000Y-124800000D01*
D36*
X103350000Y-119050000D02*
X103350000Y-117950000D01*
X94800000Y-119050000D02*
X94800000Y-120150000D01*
D37*
X56200000Y-119250000D02*
X56200000Y-118550000D01*
D41*
X81200000Y-124950000D02*
X81950000Y-124950000D01*
D37*
X92550000Y-118900000D02*
X92400000Y-119050000D01*
X94000000Y-118900000D02*
X94150000Y-119050000D01*
X111100000Y-118900000D02*
X111250000Y-119050000D01*
D42*
X137160000Y-128270000D02*
X138303000Y-128270000D01*
D37*
X100900000Y-94400000D02*
X100750000Y-94250000D01*
X109650000Y-107400000D02*
X109500000Y-107250000D01*
X110350000Y-107400000D02*
X109650000Y-107400000D01*
X101800000Y-120400000D02*
X101100000Y-120400000D01*
X81650000Y-120400000D02*
X82500000Y-120400000D01*
D36*
X73850000Y-119050000D02*
X73850000Y-117900000D01*
D37*
X101600000Y-94400000D02*
X102450000Y-94400000D01*
X101800000Y-107400000D02*
X101100000Y-107400000D01*
X118200000Y-120400000D02*
X118050000Y-120250000D01*
X80450000Y-123450000D02*
X80350000Y-123350000D01*
D42*
X135460000Y-129491000D02*
X135509000Y-129540000D01*
D36*
X107250000Y-124950000D02*
X107850000Y-124950000D01*
D38*
X73406000Y-128524000D02*
X73660000Y-128270000D01*
D36*
X87100000Y-124950000D02*
X87100000Y-126050000D01*
D37*
X118200000Y-107400000D02*
X118050000Y-107250000D01*
D36*
X73850000Y-119050000D02*
X73200000Y-119050000D01*
D37*
X80950000Y-120400000D02*
X80800000Y-120250000D01*
D36*
X107250000Y-111950000D02*
X107850000Y-111950000D01*
X124550000Y-98950000D02*
X124550000Y-97850000D01*
X124550000Y-98950000D02*
X125150000Y-98950000D01*
D37*
X118900000Y-120400000D02*
X118200000Y-120400000D01*
X81650000Y-120400000D02*
X80950000Y-120400000D01*
D36*
X124350000Y-111950000D02*
X124350000Y-110850000D01*
X109000000Y-98950000D02*
X109600000Y-98950000D01*
D37*
X54700000Y-119250000D02*
X54700000Y-118550000D01*
D38*
X74500000Y-128270000D02*
X74500000Y-129491000D01*
D37*
X92550000Y-120400000D02*
X92400000Y-120250000D01*
D36*
X124350000Y-124950000D02*
X124350000Y-123850000D01*
X109000000Y-98950000D02*
X109000000Y-97850000D01*
D37*
X109650000Y-120400000D02*
X109500000Y-120250000D01*
D36*
X115800000Y-124950000D02*
X116400000Y-124950000D01*
D39*
X54500000Y-122250000D02*
X54500000Y-122850000D01*
D36*
X87100000Y-124950000D02*
X87700000Y-124950000D01*
X124350000Y-111950000D02*
X124950000Y-111950000D01*
X98700000Y-124950000D02*
X99300000Y-124950000D01*
X115800000Y-111950000D02*
X116400000Y-111950000D01*
X124350000Y-111950000D02*
X124350000Y-113050000D01*
D38*
X74500000Y-129491000D02*
X74549000Y-129540000D01*
D37*
X101800000Y-107400000D02*
X102650000Y-107400000D01*
X118900000Y-107400000D02*
X119750000Y-107400000D01*
X93250000Y-120400000D02*
X92550000Y-120400000D01*
D36*
X107250000Y-124950000D02*
X107250000Y-126050000D01*
X124550000Y-98950000D02*
X124550000Y-100050000D01*
D39*
X54500000Y-122250000D02*
X53600000Y-122250000D01*
D36*
X98700000Y-124950000D02*
X98700000Y-123850000D01*
D41*
X81200000Y-123450000D02*
X81950000Y-123450000D01*
D37*
X118900000Y-107400000D02*
X118200000Y-107400000D01*
D38*
X73660000Y-128270000D02*
X74500000Y-128270000D01*
D42*
X135460000Y-127049000D02*
X135509000Y-127000000D01*
D36*
X115800000Y-111950000D02*
X115800000Y-113050000D01*
X107250000Y-111950000D02*
X107250000Y-113050000D01*
X115800000Y-124950000D02*
X115800000Y-123850000D01*
D37*
X117150000Y-94400000D02*
X116450000Y-94400000D01*
D36*
X109000000Y-98950000D02*
X109000000Y-100050000D01*
D37*
X110350000Y-120400000D02*
X109650000Y-120400000D01*
X54700000Y-118550000D02*
X54850000Y-118400000D01*
X116450000Y-94400000D02*
X116300000Y-94250000D01*
X93250000Y-120400000D02*
X94100000Y-120400000D01*
D42*
X135460000Y-128270000D02*
X135460000Y-129491000D01*
D37*
X54700000Y-119950000D02*
X54850000Y-120100000D01*
X101100000Y-107400000D02*
X100950000Y-107250000D01*
D42*
X135460000Y-128270000D02*
X135460000Y-127049000D01*
D36*
X107250000Y-124950000D02*
X107250000Y-123850000D01*
X87100000Y-124950000D02*
X87100000Y-123850000D01*
D39*
X52750000Y-123100000D02*
X52750000Y-123900000D01*
D36*
X107250000Y-111950000D02*
X107250000Y-110850000D01*
D37*
X81200000Y-123450000D02*
X80450000Y-123450000D01*
X101800000Y-120400000D02*
X102650000Y-120400000D01*
D41*
X81950000Y-123450000D02*
X82100000Y-123600000D01*
D37*
X101600000Y-94400000D02*
X100900000Y-94400000D01*
X101100000Y-120400000D02*
X100950000Y-120250000D01*
D36*
X115800000Y-124950000D02*
X115800000Y-126050000D01*
X124350000Y-124950000D02*
X124350000Y-126050000D01*
D37*
X117150000Y-94400000D02*
X118000000Y-94400000D01*
X110350000Y-120400000D02*
X111200000Y-120400000D01*
D36*
X115800000Y-111950000D02*
X115800000Y-110850000D01*
D37*
X54700000Y-119250000D02*
X54700000Y-119950000D01*
X110350000Y-107400000D02*
X111200000Y-107400000D01*
D36*
X98700000Y-124950000D02*
X98700000Y-126050000D01*
X124350000Y-124950000D02*
X124950000Y-124950000D01*
X73850000Y-119050000D02*
X73850000Y-120200000D01*
D37*
X118900000Y-120400000D02*
X119750000Y-120400000D01*
D39*
X54500000Y-121600000D02*
X52750000Y-121600000D01*
X52700000Y-121550000D02*
X52750000Y-121600000D01*
X51250000Y-121550000D02*
X52700000Y-121550000D01*
D37*
X53950000Y-96187500D02*
X53950000Y-97700000D01*
X56150000Y-97700000D02*
X56150000Y-96187500D01*
X58350000Y-97700000D02*
X58350000Y-96187500D01*
X61550000Y-96187500D02*
X61550000Y-97700000D01*
X64250000Y-96187500D02*
X64250000Y-97700000D01*
X67950000Y-96187500D02*
X67950000Y-97700000D01*
D35*
X93300000Y-127150000D02*
X90900000Y-124750000D01*
X104140000Y-135382000D02*
X104140000Y-131040000D01*
X90900000Y-124750000D02*
X90900000Y-118200000D01*
X100250000Y-127150000D02*
X93300000Y-127150000D01*
X104140000Y-131040000D02*
X100250000Y-127150000D01*
X73850000Y-124950000D02*
X73850000Y-126050000D01*
X75150000Y-124950000D02*
X75150000Y-126050000D01*
X110709000Y-127600000D02*
X114300000Y-131191000D01*
X114300000Y-131191000D02*
X114300000Y-135382000D01*
D38*
X76200000Y-128270000D02*
X76200000Y-129540000D01*
X115394000Y-128270000D02*
X114300000Y-128270000D01*
X115394000Y-129491000D02*
X115443000Y-129540000D01*
X115394000Y-128270000D02*
X115394000Y-129491000D01*
X76200000Y-128270000D02*
X77343000Y-128270000D01*
X120826000Y-129491000D02*
X120777000Y-129540000D01*
X120826000Y-128270000D02*
X121856500Y-128270000D01*
X119126000Y-128270000D02*
X119126000Y-129540000D01*
X120826000Y-128270000D02*
X120826000Y-129491000D01*
X117094000Y-128270000D02*
X117094000Y-129540000D01*
D35*
X96520000Y-135382000D02*
X96520000Y-129120000D01*
X95450000Y-128050000D02*
X92850000Y-128050000D01*
X96520000Y-129120000D02*
X95450000Y-128050000D01*
X90000000Y-125200000D02*
X90000000Y-117900000D01*
X92850000Y-128050000D02*
X90000000Y-125200000D01*
X106680000Y-135382000D02*
X106680000Y-130880000D01*
X100650000Y-126850000D02*
X93450000Y-126850000D01*
X106200000Y-130400000D02*
X104200000Y-130400000D01*
X91200000Y-124600000D02*
X91200000Y-117950000D01*
X106680000Y-130880000D02*
X106200000Y-130400000D01*
X93450000Y-126850000D02*
X91200000Y-124600000D01*
X104200000Y-130400000D02*
X100650000Y-126850000D01*
X88500000Y-126150000D02*
X85650000Y-129000000D01*
X83344000Y-129000000D02*
X81280000Y-131064000D01*
X86450000Y-124950000D02*
X86450000Y-123800000D01*
X88500000Y-118350000D02*
X88500000Y-126150000D01*
X85386000Y-105081500D02*
X85386000Y-108381500D01*
X86450000Y-123800000D02*
X86900000Y-123350000D01*
X84709000Y-93218000D02*
X84709000Y-104404500D01*
X85650000Y-129000000D02*
X83344000Y-129000000D01*
X94300000Y-123350000D02*
X94800000Y-123850000D01*
X81280000Y-131064000D02*
X81280000Y-135382000D01*
X84709000Y-104404500D02*
X85386000Y-105081500D01*
X94800000Y-123850000D02*
X94800000Y-124950000D01*
X86450000Y-124950000D02*
X86450000Y-126150000D01*
X74500000Y-124950000D02*
X74500000Y-123850000D01*
X86360000Y-135382000D02*
X86360000Y-129190000D01*
X86360000Y-129190000D02*
X89100000Y-126450000D01*
X89100000Y-126450000D02*
X89100000Y-118000000D01*
X86536000Y-105231500D02*
X86536000Y-108281500D01*
X85979000Y-93218000D02*
X85979000Y-104674500D01*
X85979000Y-104674500D02*
X86536000Y-105231500D01*
X132080000Y-135382000D02*
X132080000Y-131191000D01*
X77100000Y-124950000D02*
X77100000Y-123850000D01*
X88900000Y-127100000D02*
X88900000Y-135382000D01*
X89400000Y-117700000D02*
X89400000Y-126600000D01*
X89400000Y-126600000D02*
X88900000Y-127100000D01*
X78400000Y-124950000D02*
X78400000Y-123850000D01*
X77750000Y-124950000D02*
X77750000Y-123050000D01*
X109500000Y-130890000D02*
X109220000Y-131170000D01*
X109220000Y-131170000D02*
X109220000Y-135382000D01*
X116840000Y-131190000D02*
X116840000Y-135382000D01*
X110850000Y-127300000D02*
X114390000Y-130840000D01*
X114390000Y-130840000D02*
X116490000Y-130840000D01*
X116490000Y-130840000D02*
X116840000Y-131190000D01*
X99060000Y-135382000D02*
X99060000Y-129660000D01*
X90300000Y-125050000D02*
X90300000Y-117950000D01*
X93000000Y-127750000D02*
X90300000Y-125050000D01*
X99060000Y-129660000D02*
X97150000Y-127750000D01*
X97150000Y-127750000D02*
X93000000Y-127750000D01*
X76450000Y-124950000D02*
X76450000Y-123050000D01*
X101600000Y-129700000D02*
X99350000Y-127450000D01*
X93150000Y-127450000D02*
X90600000Y-124900000D01*
X99350000Y-127450000D02*
X93150000Y-127450000D01*
X101600000Y-135382000D02*
X101600000Y-129700000D01*
X90600000Y-124900000D02*
X90600000Y-118200000D01*
X85500000Y-128700000D02*
X88200000Y-126000000D01*
X85800000Y-124950000D02*
X85800000Y-124000000D01*
X96950000Y-123050000D02*
X97400000Y-123500000D01*
X85800000Y-126100000D02*
X85800000Y-124950000D01*
X88200000Y-126000000D02*
X88200000Y-117750000D01*
X85800000Y-124000000D02*
X86750000Y-123050000D01*
X78740000Y-135382000D02*
X78740000Y-131191000D01*
X95450000Y-123300000D02*
X95700000Y-123050000D01*
X95700000Y-123050000D02*
X96950000Y-123050000D01*
X78740000Y-131191000D02*
X81231000Y-128700000D01*
X97400000Y-123500000D02*
X97400000Y-124950000D01*
X95200000Y-123050000D02*
X95450000Y-123300000D01*
X81231000Y-128700000D02*
X85500000Y-128700000D01*
X95450000Y-123300000D02*
X95450000Y-124950000D01*
X104350000Y-129800000D02*
X110800000Y-129800000D01*
X93600000Y-126550000D02*
X101100000Y-126550000D01*
X101100000Y-126550000D02*
X104350000Y-129800000D01*
X110800000Y-129800000D02*
X111760000Y-130760000D01*
X111760000Y-130760000D02*
X111760000Y-135382000D01*
X91500000Y-124450000D02*
X93600000Y-126550000D01*
X91500000Y-117700000D02*
X91500000Y-124450000D01*
X75800000Y-124950000D02*
X75800000Y-123850000D01*
X103350000Y-126000000D02*
X103350000Y-124950000D01*
X84950000Y-129300000D02*
X85800000Y-129300000D01*
X83820000Y-135382000D02*
X83820000Y-130430000D01*
X83820000Y-130430000D02*
X84950000Y-129300000D01*
X85979000Y-106426000D02*
X85979000Y-108188500D01*
X85800000Y-129300000D02*
X88800000Y-126300000D01*
X88800000Y-126300000D02*
X88800000Y-118200000D01*
X102800000Y-126550000D02*
X103350000Y-126000000D01*
X89700000Y-125700000D02*
X89700000Y-117750000D01*
X93980000Y-129980000D02*
X89700000Y-125700000D01*
X93980000Y-135382000D02*
X93980000Y-129980000D01*
X144000000Y-120850000D02*
X144000000Y-122300000D01*
X143750000Y-122550000D02*
X142800000Y-122550000D01*
X144000000Y-122300000D02*
X143750000Y-122550000D01*
D39*
X56200000Y-122250000D02*
X58350000Y-122250000D01*
D35*
X140200000Y-120850000D02*
X139200000Y-121850000D01*
X139200000Y-121850000D02*
X139200000Y-125550000D01*
X142400000Y-120850000D02*
X140200000Y-120850000D01*
X119380000Y-131180000D02*
X119380000Y-135382000D01*
X114540000Y-130540000D02*
X118740000Y-130540000D01*
X118740000Y-130540000D02*
X119380000Y-131180000D01*
M02*
