M48
; DRILL file {KiCad 7.0.1-0} date 2024 January 30, Tuesday 21:09:44
; FORMAT={-:-/ absolute / inch / decimal}
; #@! TF.CreationDate,2024-01-30T21:09:44-05:00
; #@! TF.GenerationSoftware,Kicad,Pcbnew,7.0.1-0
; #@! TF.FileFunction,MixedPlating,1,4
FMAT,2
INCH
; #@! TA.AperFunction,Plated,PTH,ViaDrill
T1C0.0118
; #@! TA.AperFunction,Plated,PTH,ViaDrill
T2C0.0157
; #@! TA.AperFunction,Plated,PTH,ViaDrill
T3C0.0300
; #@! TA.AperFunction,NonPlated,NPTH,ComponentDrill
T4C0.0454
%
G90
G05
T1
X2.6Y-4.43
X2.6Y-4.63
X2.6Y-4.83
X2.6Y-5.03
X2.605Y-5.115
X2.61Y-4.23
X2.655Y-5.165
X2.695Y-4.53
X2.7Y-4.33
X2.7Y-4.73
X2.7Y-4.93
X2.73Y-4.11
X2.75Y-5.17
X2.775Y-4.34
X2.775Y-4.72
X2.7925Y-4.88
X2.8Y-4.83
X2.8Y-5.03
X2.8169Y-5.1299
X2.825Y-4.34
X2.8524Y-5.0866
X2.86Y-3.98
X2.8701Y-4.8622
X2.9Y-4.13
X2.9Y-4.33
X2.9Y-4.7224
X2.905Y-4.53
X2.9094Y-4.8406
X2.9225Y-4.68
X2.9272Y-4.9843
X2.9449Y-4.8228
X2.95Y-5.17
X2.9587Y-4.9587
X2.98Y-3.86
X2.9843Y-4.815
X3.0Y-4.03
X3.0Y-4.23
X3.0Y-4.43
X3.0177Y-4.9587
X3.0217Y-4.8268
X3.0325Y-3.9675
X3.0413Y-4.9311
X3.045Y-3.85
X3.0492Y-4.9882
X3.05Y-5.17
X3.0591Y-4.8386
X3.06Y-3.915
X3.06Y-4.02
X3.061Y-4.624
X3.061Y-4.6772
X3.065Y-4.9567
X3.0669Y-4.878
X3.0945Y-4.9311
X3.0965Y-4.8504
X3.124Y-4.9567
X3.128Y-4.6811
X3.128Y-4.9075
X3.1339Y-4.6417
X3.1476Y-5.0591
X3.15Y-5.17
X3.1516Y-4.9921
X3.1575Y-4.5984
X3.1752Y-4.9567
X3.1831Y-4.685
X3.2008Y-5.0236
X3.2264Y-4.9567
X3.245Y-3.85
X3.25Y-5.0591
X3.25Y-5.17
X3.2539Y-4.9921
X3.2559Y-4.3012
X3.2776Y-4.9567
X3.3031Y-5.0236
X3.31Y-4.4375
X3.3287Y-4.9567
X3.3406Y-4.2874
X3.35Y-5.17
X3.3524Y-5.0591
X3.3543Y-4.9921
X3.3878Y-4.8307
X3.3878Y-4.9606
X3.4075Y-4.315
X3.41Y-4.5425
X3.4114Y-4.874
X3.4213Y-5.0512
X3.4232Y-4.9921
X3.4331Y-4.685
X3.445Y-3.85
X3.45Y-5.17
X3.4705Y-5.0433
X3.4843Y-4.689
X3.4921Y-4.8858
X3.4961Y-4.8465
X3.5197Y-4.9331
X3.5197Y-4.9783
X3.53Y-5.0236
X3.55Y-5.17
X3.6325Y-4.0625
X3.635Y-4.0225
X3.645Y-3.85
X3.65Y-5.17
X3.6575Y-4.2717
X3.6614Y-4.313
X3.6673Y-4.9331
X3.6791Y-4.6024
X3.6791Y-4.7441
X3.6831Y-4.6417
X3.685Y-4.0225
X3.685Y-4.5413
X3.6925Y-4.4075
X3.7008Y-4.9705
X3.71Y-4.44
X3.7185Y-4.6102
X3.7185Y-4.7323
X3.72Y-4.1225
X3.735Y-4.0225
X3.735Y-4.0825
X3.75Y-4.7008
X3.75Y-5.17
X3.7539Y-4.6417
X3.7638Y-4.5984
X3.7776Y-4.685
X3.7776Y-4.8307
X3.785Y-4.0225
X3.79Y-4.0825
X3.8031Y-4.6004
X3.81Y-4.435
X3.81Y-4.5425
X3.8375Y-4.49
X3.845Y-3.85
X3.845Y-4.0825
X3.8465Y-5.0433
X3.8494Y-4.7392
X3.85Y-5.17
X3.8543Y-4.8307
X3.8583Y-4.9705
X3.8642Y-4.378
X3.8799Y-4.685
X3.8799Y-4.9173
X3.8976Y-4.3465
X3.8976Y-4.4685
X3.9055Y-4.748
X3.9252Y-4.9173
X3.9311Y-4.378
X3.9311Y-4.437
X3.9311Y-4.685
X3.9311Y-4.8307
X3.939Y-5.0
X3.939Y-5.0591
X3.95Y-5.17
X3.9547Y-4.874
X3.9705Y-4.6417
X3.9705Y-4.7008
X3.9724Y-4.9685
X4.002Y-4.3819
X4.0039Y-4.6102
X4.0039Y-4.7323
X4.0059Y-5.0591
X4.0079Y-5.0
X4.0256Y-4.3484
X4.0315Y-4.5886
X4.0315Y-4.9646
X4.0374Y-4.7008
X4.0413Y-4.6417
X4.045Y-3.85
X4.05Y-5.17
X4.0571Y-5.0315
X4.065Y-4.5984
X4.065Y-4.685
X4.065Y-4.8307
X4.0827Y-4.4469
X4.0886Y-4.9193
X4.1063Y-5.0669
X4.1083Y-4.7953
X4.1161Y-4.5984
X4.124Y-4.937
X4.126Y-5.002
X4.1417Y-4.3996
X4.1417Y-4.8307
X4.1496Y-4.9665
X4.1496Y-5.1024
X4.15Y-5.17
X4.1752Y-4.9193
X4.1752Y-5.0315
X4.1929Y-4.7205
X4.2047Y-4.5768
X4.2087Y-5.1024
X4.2185Y-4.685
X4.2185Y-4.8307
X4.2224Y-4.9173
X4.2244Y-4.1791
X4.2244Y-4.2303
X4.2244Y-4.3327
X4.2244Y-4.4035
X4.2244Y-5.0
X4.2244Y-5.0669
X4.2362Y-4.9547
X4.2382Y-5.1299
X4.2421Y-4.874
X4.245Y-3.85
X4.25Y-5.17
X4.2579Y-4.6417
X4.2579Y-4.7008
X4.2677Y-4.4331
X4.2776Y-4.8976
X4.2776Y-5.128
X4.2815Y-5.0
X4.2815Y-5.0591
X4.2913Y-4.6102
X4.2913Y-4.7323
X4.311Y-4.3583
X4.311Y-4.4094
X4.315Y-4.1909
X4.315Y-4.9685
X4.315Y-5.0906
X4.3248Y-4.7008
X4.3268Y-4.878
X4.3287Y-4.6417
X4.3386Y-4.248
X4.3445Y-4.9646
X4.3484Y-5.0591
X4.35Y-5.17
X4.3504Y-5.0
X4.3524Y-4.5984
X4.3524Y-4.685
X4.3602Y-4.7264
X4.374Y-4.9646
X4.378Y-4.8307
X4.3996Y-5.0315
X4.4094Y-4.9449
X4.4173Y-4.8228
X4.4252Y-4.4921
X4.4252Y-5.1024
X4.445Y-3.85
X4.4488Y-5.0669
X4.45Y-5.17
X4.4567Y-4.1791
X4.4567Y-4.4094
X4.4744Y-4.5846
X4.4744Y-4.9744
X4.5Y-4.1555
X4.5Y-4.7323
X4.5Y-4.9173
X4.5039Y-4.8307
X4.5295Y-4.874
X4.5295Y-5.0138
X4.5394Y-4.5984
X4.5413Y-4.7953
X4.5433Y-4.1791
X4.5433Y-4.2382
X4.5453Y-4.6417
X4.5453Y-4.7008
X4.55Y-5.17
X4.5768Y-4.1476
X4.5768Y-4.2697
X4.5787Y-4.6102
X4.5787Y-4.7323
X4.5827Y-5.0
X4.5827Y-5.0591
X4.6043Y-4.0768
X4.6083Y-4.7953
X4.6102Y-4.1791
X4.6102Y-4.2382
X4.6122Y-4.7008
X4.6161Y-4.6417
X4.6161Y-4.9685
X4.6161Y-5.0906
X4.6319Y-4.4134
X4.6398Y-4.5984
X4.6398Y-4.685
X4.645Y-3.85
X4.6457Y-4.8287
X4.6457Y-4.9685
X4.6496Y-4.0945
X4.6496Y-5.0591
X4.65Y-5.17
X4.6516Y-4.7224
X4.6516Y-5.0
X4.6654Y-4.435
X4.6752Y-4.9685
X4.6791Y-4.5906
X4.685Y-4.8287
X4.689Y-4.1102
X4.6969Y-5.128
X4.6988Y-4.4567
X4.7244Y-4.8287
X4.7283Y-5.1024
X4.7323Y-4.122
X4.7421Y-4.9213
X4.75Y-5.0669
X4.75Y-5.17
X4.7625Y-4.7425
X4.7638Y-4.8287
X4.7677Y-4.7008
X4.7756Y-4.1339
X4.7756Y-5.0
X4.7776Y-4.5157
X4.7854Y-4.3327
X4.7854Y-4.9154
X4.7933Y-4.5965
X4.7933Y-4.8307
X4.7972Y-5.1024
X4.7992Y-4.1791
X4.7992Y-4.2303
X4.7992Y-4.4094
X4.7992Y-4.9665
X4.8169Y-4.874
X4.8327Y-4.6417
X4.8327Y-4.7008
X4.8425Y-4.4331
X4.845Y-3.85
X4.85Y-5.17
X4.8504Y-5.1024
X4.8661Y-4.6102
X4.874Y-5.0669
X4.876Y-4.8189
X4.876Y-4.8583
X4.8858Y-4.2047
X4.8858Y-4.3583
X4.8858Y-4.4094
X4.8878Y-5.0
X4.8898Y-4.3091
X4.8996Y-4.7008
X4.9016Y-4.5217
X4.9035Y-4.6417
X4.9154Y-4.2421
X4.9154Y-4.8189
X4.9213Y-4.9685
X4.9213Y-5.0906
X4.9272Y-4.5984
X4.9272Y-4.685
X4.9272Y-4.9173
X4.95Y-5.17
X4.9547Y-5.065
X4.9567Y-5.0
X4.9587Y-4.8228
X4.9665Y-4.9252
X4.9803Y-4.9685
X4.998Y-4.8051
X5.002Y-4.3091
X5.002Y-4.7067
X5.0039Y-4.9173
X5.0059Y-5.128
X5.0276Y-4.4823
X5.0295Y-4.8307
X5.0315Y-4.1791
X5.0315Y-4.4094
X5.0315Y-4.9646
X5.0394Y-4.5335
X5.045Y-3.85
X5.0472Y-4.7205
X5.05Y-5.17
X5.0551Y-5.0669
X5.0591Y-5.0
X5.0748Y-4.1555
X5.0768Y-4.9154
X5.0787Y-4.7736
X5.0807Y-4.5984
X5.0807Y-4.8307
X5.0827Y-4.9665
X5.1043Y-4.874
X5.1181Y-4.1791
X5.1181Y-4.2382
X5.122Y-4.815
X5.124Y-4.9193
X5.128Y-5.1024
X5.15Y-5.17
X5.1516Y-4.1476
X5.1516Y-4.2697
X5.1575Y-5.0669
X5.1594Y-4.5689
X5.1594Y-4.6909
X5.1752Y-4.8622
X5.185Y-4.1791
X5.185Y-4.2382
X5.1929Y-4.6004
X5.1929Y-4.6594
X5.1949Y-4.7224
X5.2Y-5.16
X5.2185Y-4.565
X5.2224Y-5.0059
X5.2382Y-4.189
X5.245Y-3.85
X5.25Y-4.5413
X5.25Y-5.17
X5.2697Y-4.7028
X5.2815Y-4.9921
X5.2894Y-4.2047
X5.29Y-5.025
X5.2933Y-4.6673
X5.335Y-4.985
X5.3366Y-4.7559
X5.345Y-5.085
X5.35Y-5.17
X5.36Y-4.405
X5.36Y-4.605
X5.405Y-3.855
X5.455Y-3.905
X5.46Y-4.105
X5.46Y-4.305
X5.46Y-4.505
X5.46Y-4.705
X5.46Y-4.905
X5.46Y-5.105
X5.46Y-5.17
T2
X5.4Y-4.985
T3
X2.975Y-5.13
X5.4Y-5.1
T4
X2.76Y-4.16
X2.77Y-5.1
X5.24Y-5.1
X5.39Y-4.0
X5.39Y-4.825
T0
M30
