G04 #@! TF.GenerationSoftware,KiCad,Pcbnew,(6.0.2-0)*
G04 #@! TF.CreationDate,2022-08-07T04:59:55-04:00*
G04 #@! TF.ProjectId,RAM128,52414d31-3238-42e6-9b69-6361645f7063,1.0*
G04 #@! TF.SameCoordinates,Original*
G04 #@! TF.FileFunction,Legend,Bot*
G04 #@! TF.FilePolarity,Positive*
%FSLAX46Y46*%
G04 Gerber Fmt 4.6, Leading zero omitted, Abs format (unit mm)*
G04 Created by KiCad (PCBNEW (6.0.2-0)) date 2022-08-07 04:59:55*
%MOMM*%
%LPD*%
G01*
G04 APERTURE LIST*
G04 Aperture macros list*
%AMRoundRect*
0 Rectangle with rounded corners*
0 $1 Rounding radius*
0 $2 $3 $4 $5 $6 $7 $8 $9 X,Y pos of 4 corners*
0 Add a 4 corners polygon primitive as box body*
4,1,4,$2,$3,$4,$5,$6,$7,$8,$9,$2,$3,0*
0 Add four circle primitives for the rounded corners*
1,1,$1+$1,$2,$3*
1,1,$1+$1,$4,$5*
1,1,$1+$1,$6,$7*
1,1,$1+$1,$8,$9*
0 Add four rect primitives between the rounded corners*
20,1,$1+$1,$2,$3,$4,$5,0*
20,1,$1+$1,$4,$5,$6,$7,0*
20,1,$1+$1,$6,$7,$8,$9,0*
20,1,$1+$1,$8,$9,$2,$3,0*%
G04 Aperture macros list end*
%ADD10C,0.200000*%
%ADD11C,0.190500*%
%ADD12C,0.000000*%
%ADD13RoundRect,0.457200X0.381000X3.289000X-0.381000X3.289000X-0.381000X-3.289000X0.381000X-3.289000X0*%
%ADD14C,1.448000*%
G04 APERTURE END LIST*
D10*
X138049000Y-103886000D02*
X137668000Y-104267000D01*
X138176000Y-120269000D02*
X136398000Y-121285000D01*
X136398000Y-121285000D02*
X136398000Y-119253000D01*
X138049000Y-117983000D02*
X137668000Y-118364000D01*
X136779000Y-117983000D02*
X138049000Y-117983000D01*
X138049000Y-103886000D02*
X137668000Y-103505000D01*
X136779000Y-103886000D02*
X138049000Y-103886000D01*
X138049000Y-117983000D02*
X137668000Y-117602000D01*
X136398000Y-119253000D02*
X138176000Y-120269000D01*
X137982476Y-116646476D02*
X137982476Y-115920761D01*
X136712476Y-116283619D02*
X137982476Y-116283619D01*
X136712476Y-115316000D02*
X136772952Y-115436952D01*
X136833428Y-115497428D01*
X136954380Y-115557904D01*
X137317238Y-115557904D01*
X137438190Y-115497428D01*
X137498666Y-115436952D01*
X137559142Y-115316000D01*
X137559142Y-115134571D01*
X137498666Y-115013619D01*
X137438190Y-114953142D01*
X137317238Y-114892666D01*
X136954380Y-114892666D01*
X136833428Y-114953142D01*
X136772952Y-115013619D01*
X136712476Y-115134571D01*
X136712476Y-115316000D01*
X137559142Y-114469333D02*
X136712476Y-114227428D01*
X137317238Y-113985523D01*
X136712476Y-113743619D01*
X137559142Y-113501714D01*
X136712476Y-112473619D02*
X137377714Y-112473619D01*
X137498666Y-112534095D01*
X137559142Y-112655047D01*
X137559142Y-112896952D01*
X137498666Y-113017904D01*
X136772952Y-112473619D02*
X136712476Y-112594571D01*
X136712476Y-112896952D01*
X136772952Y-113017904D01*
X136893904Y-113078380D01*
X137014857Y-113078380D01*
X137135809Y-113017904D01*
X137196285Y-112896952D01*
X137196285Y-112594571D01*
X137256761Y-112473619D01*
X136712476Y-111868857D02*
X137559142Y-111868857D01*
X137317238Y-111868857D02*
X137438190Y-111808380D01*
X137498666Y-111747904D01*
X137559142Y-111626952D01*
X137559142Y-111506000D01*
X136712476Y-110538380D02*
X137982476Y-110538380D01*
X136772952Y-110538380D02*
X136712476Y-110659333D01*
X136712476Y-110901238D01*
X136772952Y-111022190D01*
X136833428Y-111082666D01*
X136954380Y-111143142D01*
X137317238Y-111143142D01*
X137438190Y-111082666D01*
X137498666Y-111022190D01*
X137559142Y-110901238D01*
X137559142Y-110659333D01*
X137498666Y-110538380D01*
X136712476Y-108240285D02*
X137317238Y-108663619D01*
X136712476Y-108966000D02*
X137982476Y-108966000D01*
X137982476Y-108482190D01*
X137922000Y-108361238D01*
X137861523Y-108300761D01*
X137740571Y-108240285D01*
X137559142Y-108240285D01*
X137438190Y-108300761D01*
X137377714Y-108361238D01*
X137317238Y-108482190D01*
X137317238Y-108966000D01*
X136772952Y-107212190D02*
X136712476Y-107333142D01*
X136712476Y-107575047D01*
X136772952Y-107696000D01*
X136893904Y-107756476D01*
X137377714Y-107756476D01*
X137498666Y-107696000D01*
X137559142Y-107575047D01*
X137559142Y-107333142D01*
X137498666Y-107212190D01*
X137377714Y-107151714D01*
X137256761Y-107151714D01*
X137135809Y-107756476D01*
X136712476Y-106063142D02*
X137377714Y-106063142D01*
X137498666Y-106123619D01*
X137559142Y-106244571D01*
X137559142Y-106486476D01*
X137498666Y-106607428D01*
X136772952Y-106063142D02*
X136712476Y-106184095D01*
X136712476Y-106486476D01*
X136772952Y-106607428D01*
X136893904Y-106667904D01*
X137014857Y-106667904D01*
X137135809Y-106607428D01*
X137196285Y-106486476D01*
X137196285Y-106184095D01*
X137256761Y-106063142D01*
X136712476Y-105458380D02*
X137559142Y-105458380D01*
X137317238Y-105458380D02*
X137438190Y-105397904D01*
X137498666Y-105337428D01*
X137559142Y-105216476D01*
X137559142Y-105095523D01*
D11*
X136760857Y-120269000D02*
X136724571Y-120232714D01*
X136688285Y-120269000D01*
X136724571Y-120305285D01*
X136760857Y-120269000D01*
X136688285Y-120269000D01*
X136978571Y-120269000D02*
X137414000Y-120305285D01*
X137450285Y-120269000D01*
X137414000Y-120232714D01*
X136978571Y-120269000D01*
X137450285Y-120269000D01*
%LPC*%
D12*
G36*
X139700000Y-139446000D02*
G01*
X139192000Y-139954000D01*
X74168000Y-139954000D01*
X73660000Y-139446000D01*
X73660000Y-132080000D01*
X139700000Y-132080000D01*
X139700000Y-139446000D01*
G37*
D13*
X137160000Y-135282000D03*
X134620000Y-135282000D03*
X132080000Y-135282000D03*
X129540000Y-135282000D03*
X127000000Y-135282000D03*
X124460000Y-135282000D03*
X121920000Y-135282000D03*
X119380000Y-135282000D03*
X116840000Y-135282000D03*
X114300000Y-135282000D03*
X111760000Y-135282000D03*
X109220000Y-135282000D03*
X106680000Y-135282000D03*
X104140000Y-135282000D03*
X101600000Y-135282000D03*
X99060000Y-135282000D03*
X96520000Y-135282000D03*
X93980000Y-135282000D03*
X91440000Y-135282000D03*
X88900000Y-135282000D03*
X86360000Y-135282000D03*
X83820000Y-135282000D03*
X81280000Y-135282000D03*
X78740000Y-135282000D03*
X76200000Y-135282000D03*
D14*
X70358000Y-129540000D03*
X136906000Y-122555000D03*
X133096000Y-129540000D03*
X136906000Y-101600000D03*
X70104000Y-105664000D03*
M02*
