M48
; DRILL file {KiCad (5.1.5-0-10_14)} date Saturday, April 11, 2020 at 03:56:32 AM
; FORMAT={-:-/ absolute / inch / decimal}
; #@! TF.CreationDate,2020-04-11T03:56:32-04:00
; #@! TF.GenerationSoftware,Kicad,Pcbnew,(5.1.5-0-10_14)
FMAT,2
INCH
T1C0.0118
T2C0.0157
T3C0.0300
T4C0.0433
%
G90
G05
T1
X2.95Y-5.17
X3.05Y-5.17
X3.135Y-4.86
X3.15Y-5.17
X3.1575Y-5.0525
X3.16Y-4.275
X3.16Y-4.325
X3.16Y-4.375
X3.16Y-4.425
X3.16Y-4.475
X3.16Y-4.525
X3.16Y-4.575
X3.16Y-4.625
X3.2025Y-5.08
X3.25Y-5.17
X3.305Y-4.8
X3.325Y-4.65
X3.325Y-4.7
X3.35Y-5.07
X3.405Y-4.65
X3.4175Y-4.5
X3.45Y-5.17
X3.47Y-4.965
X3.4775Y-5.0725
X3.5Y-4.675
X3.505Y-4.22
X3.525Y-4.91
X3.535Y-5.03
X3.55Y-5.17
X3.65Y-5.17
X3.67Y-4.765
X3.68Y-4.5
X3.68Y-4.8675
X3.681Y-5.118
X3.696Y-4.669
X3.71Y-4.625
X3.75Y-5.17
X3.835Y-4.625
X3.835Y-4.675
X3.835Y-4.725
X3.835Y-4.775
X3.835Y-4.825
X3.835Y-4.875
X3.835Y-5.025
X3.85Y-5.17
X3.875Y-4.325
X3.875Y-4.375
X3.875Y-4.425
X3.8775Y-4.865
X3.93Y-4.72
X3.945Y-4.45
X3.95Y-5.17
X3.995Y-4.4
X4.02Y-4.45
X4.045Y-4.35
X4.045Y-4.6
X4.05Y-4.9
X4.05Y-5.025
X4.05Y-5.075
X4.05Y-5.17
X4.07Y-4.4
X4.07Y-4.475
X4.07Y-4.525
X4.075Y-4.815
X4.15Y-4.85
X4.15Y-4.95
X4.15Y-5.17
X4.1775Y-4.76
X4.195Y-4.475
X4.25Y-5.17
X4.35Y-4.775
X4.35Y-4.825
X4.35Y-4.875
X4.35Y-4.925
X4.35Y-4.975
X4.35Y-5.17
X4.355Y-4.325
X4.355Y-4.375
X4.355Y-4.425
X4.355Y-4.475
X4.355Y-4.525
X4.355Y-4.575
X4.385Y-4.8
X4.385Y-4.85
X4.4225Y-5.075
X4.445Y-4.525
X4.445Y-4.575
X4.445Y-4.625
X4.445Y-4.775
X4.45Y-5.17
X4.4725Y-4.985
X4.5Y-4.375
X4.54Y-4.985
X4.55Y-4.325
X4.55Y-5.17
X4.565Y-4.405
X4.59Y-5.06
X4.615Y-4.405
X4.615Y-4.945
X4.65Y-5.17
X4.66Y-4.24
X4.665Y-4.405
X4.665Y-4.8475
X4.75Y-5.17
X4.765Y-4.945
X4.8Y-5.145
X4.815Y-4.945
X4.85Y-5.17
X4.855Y-5.0
X4.865Y-4.945
X4.87Y-4.24
X4.945Y-5.1
X4.95Y-5.17
X4.985Y-4.725
X4.985Y-4.825
X5.035Y-5.0
X5.05Y-5.17
X5.085Y-4.675
X5.15Y-5.17
X5.2Y-4.675
X5.2Y-5.16
X5.25Y-5.17
X5.27Y-4.575
X5.28Y-4.775
X5.3Y-5.16
X5.35Y-5.17
X5.4Y-4.985
X5.45Y-5.17
T2
X2.71Y-4.515
X2.71Y-4.715
X2.71Y-4.915
X2.71Y-5.115
X2.755Y-5.16
X2.81Y-5.015
X2.835Y-4.39
X2.86Y-4.61
X2.965Y-4.26
X3.0Y-4.6575
X3.065Y-5.085
X3.07Y-4.985
X3.09Y-4.135
X3.11Y-5.035
X3.16Y-4.725
X3.2225Y-4.76
X3.245Y-4.135
X3.285Y-4.725
X3.445Y-4.135
X3.525Y-4.275
X3.5875Y-4.24
X3.61Y-4.96
X3.61Y-5.025
X3.645Y-4.135
X3.65Y-4.275
X3.66Y-4.915
X3.7Y-4.3
X3.71Y-5.025
X3.845Y-4.135
X4.045Y-4.135
X4.225Y-4.275
X4.245Y-4.135
X4.2875Y-4.24
X4.355Y-4.275
X4.445Y-4.135
X4.645Y-4.135
X4.655Y-4.335
X4.665Y-4.95
X4.7Y-4.285
X4.765Y-4.285
X4.765Y-4.385
X4.765Y-4.51
X4.81Y-4.335
X4.845Y-4.135
X5.045Y-4.135
X5.08Y-4.525
X5.08Y-4.825
X5.1425Y-4.49
X5.1425Y-4.86
X5.205Y-4.525
X5.205Y-4.825
X5.2275Y-4.44
X5.245Y-4.135
X5.27Y-4.39
X5.275Y-4.525
X5.29Y-5.035
X5.335Y-4.985
X5.335Y-5.085
X5.3375Y-4.39
X5.3375Y-4.49
X5.38Y-4.44
X5.4Y-4.525
X5.405Y-4.135
X5.45Y-4.18
X5.45Y-4.34
X5.45Y-4.54
X5.45Y-4.74
X5.45Y-4.94
T3
X3.0Y-5.1
X5.4Y-5.1
T4
X5.29Y-4.195
X3.21Y-4.195
X2.77Y-4.635
X5.25Y-5.1
X2.87Y-5.1
T0
M30
