G04 #@! TF.GenerationSoftware,KiCad,Pcbnew,(5.1.5-0-10_14)*
G04 #@! TF.CreationDate,2020-04-11T03:56:32-04:00*
G04 #@! TF.ProjectId,Voyager128,566f7961-6765-4723-9132-382e6b696361,rev?*
G04 #@! TF.SameCoordinates,Original*
G04 #@! TF.FileFunction,Soldermask,Top*
G04 #@! TF.FilePolarity,Negative*
%FSLAX46Y46*%
G04 Gerber Fmt 4.6, Leading zero omitted, Abs format (unit mm)*
G04 Created by KiCad (PCBNEW (5.1.5-0-10_14)) date 2020-04-11 03:56:32*
%MOMM*%
%LPD*%
G04 APERTURE LIST*
%ADD10C,0.100000*%
G04 APERTURE END LIST*
D10*
G36*
X139700000Y-139446000D02*
G01*
X139192000Y-139954000D01*
X74168000Y-139954000D01*
X73660000Y-139446000D01*
X73660000Y-132080000D01*
X139700000Y-132080000D01*
X139700000Y-139446000D01*
G37*
G36*
X137686355Y-131543544D02*
G01*
X137758967Y-131565570D01*
X137825881Y-131601336D01*
X137884531Y-131649469D01*
X137932664Y-131708119D01*
X137968430Y-131775033D01*
X137990456Y-131847645D01*
X137998200Y-131926267D01*
X137998200Y-138637733D01*
X137990456Y-138716355D01*
X137968430Y-138788967D01*
X137932664Y-138855881D01*
X137884531Y-138914531D01*
X137825881Y-138962664D01*
X137758967Y-138998430D01*
X137686355Y-139020456D01*
X137607733Y-139028200D01*
X136712267Y-139028200D01*
X136633645Y-139020456D01*
X136561033Y-138998430D01*
X136494119Y-138962664D01*
X136435469Y-138914531D01*
X136387336Y-138855881D01*
X136351570Y-138788967D01*
X136329544Y-138716355D01*
X136321800Y-138637733D01*
X136321800Y-131926267D01*
X136329544Y-131847645D01*
X136351570Y-131775033D01*
X136387336Y-131708119D01*
X136435469Y-131649469D01*
X136494119Y-131601336D01*
X136561033Y-131565570D01*
X136633645Y-131543544D01*
X136712267Y-131535800D01*
X137607733Y-131535800D01*
X137686355Y-131543544D01*
G37*
G36*
X135146355Y-131543544D02*
G01*
X135218967Y-131565570D01*
X135285881Y-131601336D01*
X135344531Y-131649469D01*
X135392664Y-131708119D01*
X135428430Y-131775033D01*
X135450456Y-131847645D01*
X135458200Y-131926267D01*
X135458200Y-138637733D01*
X135450456Y-138716355D01*
X135428430Y-138788967D01*
X135392664Y-138855881D01*
X135344531Y-138914531D01*
X135285881Y-138962664D01*
X135218967Y-138998430D01*
X135146355Y-139020456D01*
X135067733Y-139028200D01*
X134172267Y-139028200D01*
X134093645Y-139020456D01*
X134021033Y-138998430D01*
X133954119Y-138962664D01*
X133895469Y-138914531D01*
X133847336Y-138855881D01*
X133811570Y-138788967D01*
X133789544Y-138716355D01*
X133781800Y-138637733D01*
X133781800Y-131926267D01*
X133789544Y-131847645D01*
X133811570Y-131775033D01*
X133847336Y-131708119D01*
X133895469Y-131649469D01*
X133954119Y-131601336D01*
X134021033Y-131565570D01*
X134093645Y-131543544D01*
X134172267Y-131535800D01*
X135067733Y-131535800D01*
X135146355Y-131543544D01*
G37*
G36*
X132606355Y-131543544D02*
G01*
X132678967Y-131565570D01*
X132745881Y-131601336D01*
X132804531Y-131649469D01*
X132852664Y-131708119D01*
X132888430Y-131775033D01*
X132910456Y-131847645D01*
X132918200Y-131926267D01*
X132918200Y-138637733D01*
X132910456Y-138716355D01*
X132888430Y-138788967D01*
X132852664Y-138855881D01*
X132804531Y-138914531D01*
X132745881Y-138962664D01*
X132678967Y-138998430D01*
X132606355Y-139020456D01*
X132527733Y-139028200D01*
X131632267Y-139028200D01*
X131553645Y-139020456D01*
X131481033Y-138998430D01*
X131414119Y-138962664D01*
X131355469Y-138914531D01*
X131307336Y-138855881D01*
X131271570Y-138788967D01*
X131249544Y-138716355D01*
X131241800Y-138637733D01*
X131241800Y-131926267D01*
X131249544Y-131847645D01*
X131271570Y-131775033D01*
X131307336Y-131708119D01*
X131355469Y-131649469D01*
X131414119Y-131601336D01*
X131481033Y-131565570D01*
X131553645Y-131543544D01*
X131632267Y-131535800D01*
X132527733Y-131535800D01*
X132606355Y-131543544D01*
G37*
G36*
X130066355Y-131543544D02*
G01*
X130138967Y-131565570D01*
X130205881Y-131601336D01*
X130264531Y-131649469D01*
X130312664Y-131708119D01*
X130348430Y-131775033D01*
X130370456Y-131847645D01*
X130378200Y-131926267D01*
X130378200Y-138637733D01*
X130370456Y-138716355D01*
X130348430Y-138788967D01*
X130312664Y-138855881D01*
X130264531Y-138914531D01*
X130205881Y-138962664D01*
X130138967Y-138998430D01*
X130066355Y-139020456D01*
X129987733Y-139028200D01*
X129092267Y-139028200D01*
X129013645Y-139020456D01*
X128941033Y-138998430D01*
X128874119Y-138962664D01*
X128815469Y-138914531D01*
X128767336Y-138855881D01*
X128731570Y-138788967D01*
X128709544Y-138716355D01*
X128701800Y-138637733D01*
X128701800Y-131926267D01*
X128709544Y-131847645D01*
X128731570Y-131775033D01*
X128767336Y-131708119D01*
X128815469Y-131649469D01*
X128874119Y-131601336D01*
X128941033Y-131565570D01*
X129013645Y-131543544D01*
X129092267Y-131535800D01*
X129987733Y-131535800D01*
X130066355Y-131543544D01*
G37*
G36*
X127526355Y-131543544D02*
G01*
X127598967Y-131565570D01*
X127665881Y-131601336D01*
X127724531Y-131649469D01*
X127772664Y-131708119D01*
X127808430Y-131775033D01*
X127830456Y-131847645D01*
X127838200Y-131926267D01*
X127838200Y-138637733D01*
X127830456Y-138716355D01*
X127808430Y-138788967D01*
X127772664Y-138855881D01*
X127724531Y-138914531D01*
X127665881Y-138962664D01*
X127598967Y-138998430D01*
X127526355Y-139020456D01*
X127447733Y-139028200D01*
X126552267Y-139028200D01*
X126473645Y-139020456D01*
X126401033Y-138998430D01*
X126334119Y-138962664D01*
X126275469Y-138914531D01*
X126227336Y-138855881D01*
X126191570Y-138788967D01*
X126169544Y-138716355D01*
X126161800Y-138637733D01*
X126161800Y-131926267D01*
X126169544Y-131847645D01*
X126191570Y-131775033D01*
X126227336Y-131708119D01*
X126275469Y-131649469D01*
X126334119Y-131601336D01*
X126401033Y-131565570D01*
X126473645Y-131543544D01*
X126552267Y-131535800D01*
X127447733Y-131535800D01*
X127526355Y-131543544D01*
G37*
G36*
X124986355Y-131543544D02*
G01*
X125058967Y-131565570D01*
X125125881Y-131601336D01*
X125184531Y-131649469D01*
X125232664Y-131708119D01*
X125268430Y-131775033D01*
X125290456Y-131847645D01*
X125298200Y-131926267D01*
X125298200Y-138637733D01*
X125290456Y-138716355D01*
X125268430Y-138788967D01*
X125232664Y-138855881D01*
X125184531Y-138914531D01*
X125125881Y-138962664D01*
X125058967Y-138998430D01*
X124986355Y-139020456D01*
X124907733Y-139028200D01*
X124012267Y-139028200D01*
X123933645Y-139020456D01*
X123861033Y-138998430D01*
X123794119Y-138962664D01*
X123735469Y-138914531D01*
X123687336Y-138855881D01*
X123651570Y-138788967D01*
X123629544Y-138716355D01*
X123621800Y-138637733D01*
X123621800Y-131926267D01*
X123629544Y-131847645D01*
X123651570Y-131775033D01*
X123687336Y-131708119D01*
X123735469Y-131649469D01*
X123794119Y-131601336D01*
X123861033Y-131565570D01*
X123933645Y-131543544D01*
X124012267Y-131535800D01*
X124907733Y-131535800D01*
X124986355Y-131543544D01*
G37*
G36*
X122446355Y-131543544D02*
G01*
X122518967Y-131565570D01*
X122585881Y-131601336D01*
X122644531Y-131649469D01*
X122692664Y-131708119D01*
X122728430Y-131775033D01*
X122750456Y-131847645D01*
X122758200Y-131926267D01*
X122758200Y-138637733D01*
X122750456Y-138716355D01*
X122728430Y-138788967D01*
X122692664Y-138855881D01*
X122644531Y-138914531D01*
X122585881Y-138962664D01*
X122518967Y-138998430D01*
X122446355Y-139020456D01*
X122367733Y-139028200D01*
X121472267Y-139028200D01*
X121393645Y-139020456D01*
X121321033Y-138998430D01*
X121254119Y-138962664D01*
X121195469Y-138914531D01*
X121147336Y-138855881D01*
X121111570Y-138788967D01*
X121089544Y-138716355D01*
X121081800Y-138637733D01*
X121081800Y-131926267D01*
X121089544Y-131847645D01*
X121111570Y-131775033D01*
X121147336Y-131708119D01*
X121195469Y-131649469D01*
X121254119Y-131601336D01*
X121321033Y-131565570D01*
X121393645Y-131543544D01*
X121472267Y-131535800D01*
X122367733Y-131535800D01*
X122446355Y-131543544D01*
G37*
G36*
X119906355Y-131543544D02*
G01*
X119978967Y-131565570D01*
X120045881Y-131601336D01*
X120104531Y-131649469D01*
X120152664Y-131708119D01*
X120188430Y-131775033D01*
X120210456Y-131847645D01*
X120218200Y-131926267D01*
X120218200Y-138637733D01*
X120210456Y-138716355D01*
X120188430Y-138788967D01*
X120152664Y-138855881D01*
X120104531Y-138914531D01*
X120045881Y-138962664D01*
X119978967Y-138998430D01*
X119906355Y-139020456D01*
X119827733Y-139028200D01*
X118932267Y-139028200D01*
X118853645Y-139020456D01*
X118781033Y-138998430D01*
X118714119Y-138962664D01*
X118655469Y-138914531D01*
X118607336Y-138855881D01*
X118571570Y-138788967D01*
X118549544Y-138716355D01*
X118541800Y-138637733D01*
X118541800Y-131926267D01*
X118549544Y-131847645D01*
X118571570Y-131775033D01*
X118607336Y-131708119D01*
X118655469Y-131649469D01*
X118714119Y-131601336D01*
X118781033Y-131565570D01*
X118853645Y-131543544D01*
X118932267Y-131535800D01*
X119827733Y-131535800D01*
X119906355Y-131543544D01*
G37*
G36*
X117366355Y-131543544D02*
G01*
X117438967Y-131565570D01*
X117505881Y-131601336D01*
X117564531Y-131649469D01*
X117612664Y-131708119D01*
X117648430Y-131775033D01*
X117670456Y-131847645D01*
X117678200Y-131926267D01*
X117678200Y-138637733D01*
X117670456Y-138716355D01*
X117648430Y-138788967D01*
X117612664Y-138855881D01*
X117564531Y-138914531D01*
X117505881Y-138962664D01*
X117438967Y-138998430D01*
X117366355Y-139020456D01*
X117287733Y-139028200D01*
X116392267Y-139028200D01*
X116313645Y-139020456D01*
X116241033Y-138998430D01*
X116174119Y-138962664D01*
X116115469Y-138914531D01*
X116067336Y-138855881D01*
X116031570Y-138788967D01*
X116009544Y-138716355D01*
X116001800Y-138637733D01*
X116001800Y-131926267D01*
X116009544Y-131847645D01*
X116031570Y-131775033D01*
X116067336Y-131708119D01*
X116115469Y-131649469D01*
X116174119Y-131601336D01*
X116241033Y-131565570D01*
X116313645Y-131543544D01*
X116392267Y-131535800D01*
X117287733Y-131535800D01*
X117366355Y-131543544D01*
G37*
G36*
X114826355Y-131543544D02*
G01*
X114898967Y-131565570D01*
X114965881Y-131601336D01*
X115024531Y-131649469D01*
X115072664Y-131708119D01*
X115108430Y-131775033D01*
X115130456Y-131847645D01*
X115138200Y-131926267D01*
X115138200Y-138637733D01*
X115130456Y-138716355D01*
X115108430Y-138788967D01*
X115072664Y-138855881D01*
X115024531Y-138914531D01*
X114965881Y-138962664D01*
X114898967Y-138998430D01*
X114826355Y-139020456D01*
X114747733Y-139028200D01*
X113852267Y-139028200D01*
X113773645Y-139020456D01*
X113701033Y-138998430D01*
X113634119Y-138962664D01*
X113575469Y-138914531D01*
X113527336Y-138855881D01*
X113491570Y-138788967D01*
X113469544Y-138716355D01*
X113461800Y-138637733D01*
X113461800Y-131926267D01*
X113469544Y-131847645D01*
X113491570Y-131775033D01*
X113527336Y-131708119D01*
X113575469Y-131649469D01*
X113634119Y-131601336D01*
X113701033Y-131565570D01*
X113773645Y-131543544D01*
X113852267Y-131535800D01*
X114747733Y-131535800D01*
X114826355Y-131543544D01*
G37*
G36*
X112286355Y-131543544D02*
G01*
X112358967Y-131565570D01*
X112425881Y-131601336D01*
X112484531Y-131649469D01*
X112532664Y-131708119D01*
X112568430Y-131775033D01*
X112590456Y-131847645D01*
X112598200Y-131926267D01*
X112598200Y-138637733D01*
X112590456Y-138716355D01*
X112568430Y-138788967D01*
X112532664Y-138855881D01*
X112484531Y-138914531D01*
X112425881Y-138962664D01*
X112358967Y-138998430D01*
X112286355Y-139020456D01*
X112207733Y-139028200D01*
X111312267Y-139028200D01*
X111233645Y-139020456D01*
X111161033Y-138998430D01*
X111094119Y-138962664D01*
X111035469Y-138914531D01*
X110987336Y-138855881D01*
X110951570Y-138788967D01*
X110929544Y-138716355D01*
X110921800Y-138637733D01*
X110921800Y-131926267D01*
X110929544Y-131847645D01*
X110951570Y-131775033D01*
X110987336Y-131708119D01*
X111035469Y-131649469D01*
X111094119Y-131601336D01*
X111161033Y-131565570D01*
X111233645Y-131543544D01*
X111312267Y-131535800D01*
X112207733Y-131535800D01*
X112286355Y-131543544D01*
G37*
G36*
X109746355Y-131543544D02*
G01*
X109818967Y-131565570D01*
X109885881Y-131601336D01*
X109944531Y-131649469D01*
X109992664Y-131708119D01*
X110028430Y-131775033D01*
X110050456Y-131847645D01*
X110058200Y-131926267D01*
X110058200Y-138637733D01*
X110050456Y-138716355D01*
X110028430Y-138788967D01*
X109992664Y-138855881D01*
X109944531Y-138914531D01*
X109885881Y-138962664D01*
X109818967Y-138998430D01*
X109746355Y-139020456D01*
X109667733Y-139028200D01*
X108772267Y-139028200D01*
X108693645Y-139020456D01*
X108621033Y-138998430D01*
X108554119Y-138962664D01*
X108495469Y-138914531D01*
X108447336Y-138855881D01*
X108411570Y-138788967D01*
X108389544Y-138716355D01*
X108381800Y-138637733D01*
X108381800Y-131926267D01*
X108389544Y-131847645D01*
X108411570Y-131775033D01*
X108447336Y-131708119D01*
X108495469Y-131649469D01*
X108554119Y-131601336D01*
X108621033Y-131565570D01*
X108693645Y-131543544D01*
X108772267Y-131535800D01*
X109667733Y-131535800D01*
X109746355Y-131543544D01*
G37*
G36*
X107206355Y-131543544D02*
G01*
X107278967Y-131565570D01*
X107345881Y-131601336D01*
X107404531Y-131649469D01*
X107452664Y-131708119D01*
X107488430Y-131775033D01*
X107510456Y-131847645D01*
X107518200Y-131926267D01*
X107518200Y-138637733D01*
X107510456Y-138716355D01*
X107488430Y-138788967D01*
X107452664Y-138855881D01*
X107404531Y-138914531D01*
X107345881Y-138962664D01*
X107278967Y-138998430D01*
X107206355Y-139020456D01*
X107127733Y-139028200D01*
X106232267Y-139028200D01*
X106153645Y-139020456D01*
X106081033Y-138998430D01*
X106014119Y-138962664D01*
X105955469Y-138914531D01*
X105907336Y-138855881D01*
X105871570Y-138788967D01*
X105849544Y-138716355D01*
X105841800Y-138637733D01*
X105841800Y-131926267D01*
X105849544Y-131847645D01*
X105871570Y-131775033D01*
X105907336Y-131708119D01*
X105955469Y-131649469D01*
X106014119Y-131601336D01*
X106081033Y-131565570D01*
X106153645Y-131543544D01*
X106232267Y-131535800D01*
X107127733Y-131535800D01*
X107206355Y-131543544D01*
G37*
G36*
X104666355Y-131543544D02*
G01*
X104738967Y-131565570D01*
X104805881Y-131601336D01*
X104864531Y-131649469D01*
X104912664Y-131708119D01*
X104948430Y-131775033D01*
X104970456Y-131847645D01*
X104978200Y-131926267D01*
X104978200Y-138637733D01*
X104970456Y-138716355D01*
X104948430Y-138788967D01*
X104912664Y-138855881D01*
X104864531Y-138914531D01*
X104805881Y-138962664D01*
X104738967Y-138998430D01*
X104666355Y-139020456D01*
X104587733Y-139028200D01*
X103692267Y-139028200D01*
X103613645Y-139020456D01*
X103541033Y-138998430D01*
X103474119Y-138962664D01*
X103415469Y-138914531D01*
X103367336Y-138855881D01*
X103331570Y-138788967D01*
X103309544Y-138716355D01*
X103301800Y-138637733D01*
X103301800Y-131926267D01*
X103309544Y-131847645D01*
X103331570Y-131775033D01*
X103367336Y-131708119D01*
X103415469Y-131649469D01*
X103474119Y-131601336D01*
X103541033Y-131565570D01*
X103613645Y-131543544D01*
X103692267Y-131535800D01*
X104587733Y-131535800D01*
X104666355Y-131543544D01*
G37*
G36*
X102126355Y-131543544D02*
G01*
X102198967Y-131565570D01*
X102265881Y-131601336D01*
X102324531Y-131649469D01*
X102372664Y-131708119D01*
X102408430Y-131775033D01*
X102430456Y-131847645D01*
X102438200Y-131926267D01*
X102438200Y-138637733D01*
X102430456Y-138716355D01*
X102408430Y-138788967D01*
X102372664Y-138855881D01*
X102324531Y-138914531D01*
X102265881Y-138962664D01*
X102198967Y-138998430D01*
X102126355Y-139020456D01*
X102047733Y-139028200D01*
X101152267Y-139028200D01*
X101073645Y-139020456D01*
X101001033Y-138998430D01*
X100934119Y-138962664D01*
X100875469Y-138914531D01*
X100827336Y-138855881D01*
X100791570Y-138788967D01*
X100769544Y-138716355D01*
X100761800Y-138637733D01*
X100761800Y-131926267D01*
X100769544Y-131847645D01*
X100791570Y-131775033D01*
X100827336Y-131708119D01*
X100875469Y-131649469D01*
X100934119Y-131601336D01*
X101001033Y-131565570D01*
X101073645Y-131543544D01*
X101152267Y-131535800D01*
X102047733Y-131535800D01*
X102126355Y-131543544D01*
G37*
G36*
X99586355Y-131543544D02*
G01*
X99658967Y-131565570D01*
X99725881Y-131601336D01*
X99784531Y-131649469D01*
X99832664Y-131708119D01*
X99868430Y-131775033D01*
X99890456Y-131847645D01*
X99898200Y-131926267D01*
X99898200Y-138637733D01*
X99890456Y-138716355D01*
X99868430Y-138788967D01*
X99832664Y-138855881D01*
X99784531Y-138914531D01*
X99725881Y-138962664D01*
X99658967Y-138998430D01*
X99586355Y-139020456D01*
X99507733Y-139028200D01*
X98612267Y-139028200D01*
X98533645Y-139020456D01*
X98461033Y-138998430D01*
X98394119Y-138962664D01*
X98335469Y-138914531D01*
X98287336Y-138855881D01*
X98251570Y-138788967D01*
X98229544Y-138716355D01*
X98221800Y-138637733D01*
X98221800Y-131926267D01*
X98229544Y-131847645D01*
X98251570Y-131775033D01*
X98287336Y-131708119D01*
X98335469Y-131649469D01*
X98394119Y-131601336D01*
X98461033Y-131565570D01*
X98533645Y-131543544D01*
X98612267Y-131535800D01*
X99507733Y-131535800D01*
X99586355Y-131543544D01*
G37*
G36*
X97046355Y-131543544D02*
G01*
X97118967Y-131565570D01*
X97185881Y-131601336D01*
X97244531Y-131649469D01*
X97292664Y-131708119D01*
X97328430Y-131775033D01*
X97350456Y-131847645D01*
X97358200Y-131926267D01*
X97358200Y-138637733D01*
X97350456Y-138716355D01*
X97328430Y-138788967D01*
X97292664Y-138855881D01*
X97244531Y-138914531D01*
X97185881Y-138962664D01*
X97118967Y-138998430D01*
X97046355Y-139020456D01*
X96967733Y-139028200D01*
X96072267Y-139028200D01*
X95993645Y-139020456D01*
X95921033Y-138998430D01*
X95854119Y-138962664D01*
X95795469Y-138914531D01*
X95747336Y-138855881D01*
X95711570Y-138788967D01*
X95689544Y-138716355D01*
X95681800Y-138637733D01*
X95681800Y-131926267D01*
X95689544Y-131847645D01*
X95711570Y-131775033D01*
X95747336Y-131708119D01*
X95795469Y-131649469D01*
X95854119Y-131601336D01*
X95921033Y-131565570D01*
X95993645Y-131543544D01*
X96072267Y-131535800D01*
X96967733Y-131535800D01*
X97046355Y-131543544D01*
G37*
G36*
X94506355Y-131543544D02*
G01*
X94578967Y-131565570D01*
X94645881Y-131601336D01*
X94704531Y-131649469D01*
X94752664Y-131708119D01*
X94788430Y-131775033D01*
X94810456Y-131847645D01*
X94818200Y-131926267D01*
X94818200Y-138637733D01*
X94810456Y-138716355D01*
X94788430Y-138788967D01*
X94752664Y-138855881D01*
X94704531Y-138914531D01*
X94645881Y-138962664D01*
X94578967Y-138998430D01*
X94506355Y-139020456D01*
X94427733Y-139028200D01*
X93532267Y-139028200D01*
X93453645Y-139020456D01*
X93381033Y-138998430D01*
X93314119Y-138962664D01*
X93255469Y-138914531D01*
X93207336Y-138855881D01*
X93171570Y-138788967D01*
X93149544Y-138716355D01*
X93141800Y-138637733D01*
X93141800Y-131926267D01*
X93149544Y-131847645D01*
X93171570Y-131775033D01*
X93207336Y-131708119D01*
X93255469Y-131649469D01*
X93314119Y-131601336D01*
X93381033Y-131565570D01*
X93453645Y-131543544D01*
X93532267Y-131535800D01*
X94427733Y-131535800D01*
X94506355Y-131543544D01*
G37*
G36*
X91966355Y-131543544D02*
G01*
X92038967Y-131565570D01*
X92105881Y-131601336D01*
X92164531Y-131649469D01*
X92212664Y-131708119D01*
X92248430Y-131775033D01*
X92270456Y-131847645D01*
X92278200Y-131926267D01*
X92278200Y-138637733D01*
X92270456Y-138716355D01*
X92248430Y-138788967D01*
X92212664Y-138855881D01*
X92164531Y-138914531D01*
X92105881Y-138962664D01*
X92038967Y-138998430D01*
X91966355Y-139020456D01*
X91887733Y-139028200D01*
X90992267Y-139028200D01*
X90913645Y-139020456D01*
X90841033Y-138998430D01*
X90774119Y-138962664D01*
X90715469Y-138914531D01*
X90667336Y-138855881D01*
X90631570Y-138788967D01*
X90609544Y-138716355D01*
X90601800Y-138637733D01*
X90601800Y-131926267D01*
X90609544Y-131847645D01*
X90631570Y-131775033D01*
X90667336Y-131708119D01*
X90715469Y-131649469D01*
X90774119Y-131601336D01*
X90841033Y-131565570D01*
X90913645Y-131543544D01*
X90992267Y-131535800D01*
X91887733Y-131535800D01*
X91966355Y-131543544D01*
G37*
G36*
X89426355Y-131543544D02*
G01*
X89498967Y-131565570D01*
X89565881Y-131601336D01*
X89624531Y-131649469D01*
X89672664Y-131708119D01*
X89708430Y-131775033D01*
X89730456Y-131847645D01*
X89738200Y-131926267D01*
X89738200Y-138637733D01*
X89730456Y-138716355D01*
X89708430Y-138788967D01*
X89672664Y-138855881D01*
X89624531Y-138914531D01*
X89565881Y-138962664D01*
X89498967Y-138998430D01*
X89426355Y-139020456D01*
X89347733Y-139028200D01*
X88452267Y-139028200D01*
X88373645Y-139020456D01*
X88301033Y-138998430D01*
X88234119Y-138962664D01*
X88175469Y-138914531D01*
X88127336Y-138855881D01*
X88091570Y-138788967D01*
X88069544Y-138716355D01*
X88061800Y-138637733D01*
X88061800Y-131926267D01*
X88069544Y-131847645D01*
X88091570Y-131775033D01*
X88127336Y-131708119D01*
X88175469Y-131649469D01*
X88234119Y-131601336D01*
X88301033Y-131565570D01*
X88373645Y-131543544D01*
X88452267Y-131535800D01*
X89347733Y-131535800D01*
X89426355Y-131543544D01*
G37*
G36*
X86886355Y-131543544D02*
G01*
X86958967Y-131565570D01*
X87025881Y-131601336D01*
X87084531Y-131649469D01*
X87132664Y-131708119D01*
X87168430Y-131775033D01*
X87190456Y-131847645D01*
X87198200Y-131926267D01*
X87198200Y-138637733D01*
X87190456Y-138716355D01*
X87168430Y-138788967D01*
X87132664Y-138855881D01*
X87084531Y-138914531D01*
X87025881Y-138962664D01*
X86958967Y-138998430D01*
X86886355Y-139020456D01*
X86807733Y-139028200D01*
X85912267Y-139028200D01*
X85833645Y-139020456D01*
X85761033Y-138998430D01*
X85694119Y-138962664D01*
X85635469Y-138914531D01*
X85587336Y-138855881D01*
X85551570Y-138788967D01*
X85529544Y-138716355D01*
X85521800Y-138637733D01*
X85521800Y-131926267D01*
X85529544Y-131847645D01*
X85551570Y-131775033D01*
X85587336Y-131708119D01*
X85635469Y-131649469D01*
X85694119Y-131601336D01*
X85761033Y-131565570D01*
X85833645Y-131543544D01*
X85912267Y-131535800D01*
X86807733Y-131535800D01*
X86886355Y-131543544D01*
G37*
G36*
X84346355Y-131543544D02*
G01*
X84418967Y-131565570D01*
X84485881Y-131601336D01*
X84544531Y-131649469D01*
X84592664Y-131708119D01*
X84628430Y-131775033D01*
X84650456Y-131847645D01*
X84658200Y-131926267D01*
X84658200Y-138637733D01*
X84650456Y-138716355D01*
X84628430Y-138788967D01*
X84592664Y-138855881D01*
X84544531Y-138914531D01*
X84485881Y-138962664D01*
X84418967Y-138998430D01*
X84346355Y-139020456D01*
X84267733Y-139028200D01*
X83372267Y-139028200D01*
X83293645Y-139020456D01*
X83221033Y-138998430D01*
X83154119Y-138962664D01*
X83095469Y-138914531D01*
X83047336Y-138855881D01*
X83011570Y-138788967D01*
X82989544Y-138716355D01*
X82981800Y-138637733D01*
X82981800Y-131926267D01*
X82989544Y-131847645D01*
X83011570Y-131775033D01*
X83047336Y-131708119D01*
X83095469Y-131649469D01*
X83154119Y-131601336D01*
X83221033Y-131565570D01*
X83293645Y-131543544D01*
X83372267Y-131535800D01*
X84267733Y-131535800D01*
X84346355Y-131543544D01*
G37*
G36*
X81806355Y-131543544D02*
G01*
X81878967Y-131565570D01*
X81945881Y-131601336D01*
X82004531Y-131649469D01*
X82052664Y-131708119D01*
X82088430Y-131775033D01*
X82110456Y-131847645D01*
X82118200Y-131926267D01*
X82118200Y-138637733D01*
X82110456Y-138716355D01*
X82088430Y-138788967D01*
X82052664Y-138855881D01*
X82004531Y-138914531D01*
X81945881Y-138962664D01*
X81878967Y-138998430D01*
X81806355Y-139020456D01*
X81727733Y-139028200D01*
X80832267Y-139028200D01*
X80753645Y-139020456D01*
X80681033Y-138998430D01*
X80614119Y-138962664D01*
X80555469Y-138914531D01*
X80507336Y-138855881D01*
X80471570Y-138788967D01*
X80449544Y-138716355D01*
X80441800Y-138637733D01*
X80441800Y-131926267D01*
X80449544Y-131847645D01*
X80471570Y-131775033D01*
X80507336Y-131708119D01*
X80555469Y-131649469D01*
X80614119Y-131601336D01*
X80681033Y-131565570D01*
X80753645Y-131543544D01*
X80832267Y-131535800D01*
X81727733Y-131535800D01*
X81806355Y-131543544D01*
G37*
G36*
X79266355Y-131543544D02*
G01*
X79338967Y-131565570D01*
X79405881Y-131601336D01*
X79464531Y-131649469D01*
X79512664Y-131708119D01*
X79548430Y-131775033D01*
X79570456Y-131847645D01*
X79578200Y-131926267D01*
X79578200Y-138637733D01*
X79570456Y-138716355D01*
X79548430Y-138788967D01*
X79512664Y-138855881D01*
X79464531Y-138914531D01*
X79405881Y-138962664D01*
X79338967Y-138998430D01*
X79266355Y-139020456D01*
X79187733Y-139028200D01*
X78292267Y-139028200D01*
X78213645Y-139020456D01*
X78141033Y-138998430D01*
X78074119Y-138962664D01*
X78015469Y-138914531D01*
X77967336Y-138855881D01*
X77931570Y-138788967D01*
X77909544Y-138716355D01*
X77901800Y-138637733D01*
X77901800Y-131926267D01*
X77909544Y-131847645D01*
X77931570Y-131775033D01*
X77967336Y-131708119D01*
X78015469Y-131649469D01*
X78074119Y-131601336D01*
X78141033Y-131565570D01*
X78213645Y-131543544D01*
X78292267Y-131535800D01*
X79187733Y-131535800D01*
X79266355Y-131543544D01*
G37*
G36*
X76726355Y-131543544D02*
G01*
X76798967Y-131565570D01*
X76865881Y-131601336D01*
X76924531Y-131649469D01*
X76972664Y-131708119D01*
X77008430Y-131775033D01*
X77030456Y-131847645D01*
X77038200Y-131926267D01*
X77038200Y-138637733D01*
X77030456Y-138716355D01*
X77008430Y-138788967D01*
X76972664Y-138855881D01*
X76924531Y-138914531D01*
X76865881Y-138962664D01*
X76798967Y-138998430D01*
X76726355Y-139020456D01*
X76647733Y-139028200D01*
X75752267Y-139028200D01*
X75673645Y-139020456D01*
X75601033Y-138998430D01*
X75534119Y-138962664D01*
X75475469Y-138914531D01*
X75427336Y-138855881D01*
X75391570Y-138788967D01*
X75369544Y-138716355D01*
X75361800Y-138637733D01*
X75361800Y-131926267D01*
X75369544Y-131847645D01*
X75391570Y-131775033D01*
X75427336Y-131708119D01*
X75475469Y-131649469D01*
X75534119Y-131601336D01*
X75601033Y-131565570D01*
X75673645Y-131543544D01*
X75752267Y-131535800D01*
X76647733Y-131535800D01*
X76726355Y-131543544D01*
G37*
G36*
X133663914Y-128505157D02*
G01*
X133859777Y-128586286D01*
X134036033Y-128704057D01*
X134185943Y-128853967D01*
X134303714Y-129030223D01*
X134384843Y-129226086D01*
X134426200Y-129434004D01*
X134426200Y-129645996D01*
X134384843Y-129853914D01*
X134303714Y-130049777D01*
X134185943Y-130226033D01*
X134036033Y-130375943D01*
X133859777Y-130493714D01*
X133663914Y-130574843D01*
X133455996Y-130616200D01*
X133244004Y-130616200D01*
X133036086Y-130574843D01*
X132840223Y-130493714D01*
X132663967Y-130375943D01*
X132514057Y-130226033D01*
X132396286Y-130049777D01*
X132315157Y-129853914D01*
X132273800Y-129645996D01*
X132273800Y-129434004D01*
X132315157Y-129226086D01*
X132396286Y-129030223D01*
X132514057Y-128853967D01*
X132663967Y-128704057D01*
X132840223Y-128586286D01*
X133036086Y-128505157D01*
X133244004Y-128463800D01*
X133455996Y-128463800D01*
X133663914Y-128505157D01*
G37*
G36*
X73211914Y-128505157D02*
G01*
X73407777Y-128586286D01*
X73584033Y-128704057D01*
X73733943Y-128853967D01*
X73851714Y-129030223D01*
X73932843Y-129226086D01*
X73974200Y-129434004D01*
X73974200Y-129645996D01*
X73932843Y-129853914D01*
X73851714Y-130049777D01*
X73733943Y-130226033D01*
X73584033Y-130375943D01*
X73407777Y-130493714D01*
X73211914Y-130574843D01*
X73003996Y-130616200D01*
X72792004Y-130616200D01*
X72584086Y-130574843D01*
X72388223Y-130493714D01*
X72211967Y-130375943D01*
X72062057Y-130226033D01*
X71944286Y-130049777D01*
X71863157Y-129853914D01*
X71821800Y-129645996D01*
X71821800Y-129434004D01*
X71863157Y-129226086D01*
X71944286Y-129030223D01*
X72062057Y-128853967D01*
X72211967Y-128704057D01*
X72388223Y-128586286D01*
X72584086Y-128505157D01*
X72792004Y-128463800D01*
X73003996Y-128463800D01*
X73211914Y-128505157D01*
G37*
G36*
X70649692Y-128578429D02*
G01*
X70831679Y-128653811D01*
X70995458Y-128763245D01*
X70995460Y-128763247D01*
X70995463Y-128763249D01*
X71134751Y-128902537D01*
X71134753Y-128902540D01*
X71134755Y-128902542D01*
X71244189Y-129066321D01*
X71319571Y-129248308D01*
X71358000Y-129441509D01*
X71358000Y-129638491D01*
X71319571Y-129831692D01*
X71244189Y-130013679D01*
X71134755Y-130177458D01*
X71134753Y-130177460D01*
X71134751Y-130177463D01*
X70995463Y-130316751D01*
X70995460Y-130316753D01*
X70995458Y-130316755D01*
X70831679Y-130426189D01*
X70649692Y-130501571D01*
X70456491Y-130540000D01*
X70259509Y-130540000D01*
X70066308Y-130501571D01*
X69884321Y-130426189D01*
X69720542Y-130316755D01*
X69720540Y-130316753D01*
X69720537Y-130316751D01*
X69581249Y-130177463D01*
X69581247Y-130177460D01*
X69581245Y-130177458D01*
X69471811Y-130013679D01*
X69396429Y-129831692D01*
X69358000Y-129638491D01*
X69358000Y-129441509D01*
X69396429Y-129248308D01*
X69471811Y-129066321D01*
X69581245Y-128902542D01*
X69581247Y-128902540D01*
X69581249Y-128902537D01*
X69720537Y-128763249D01*
X69720540Y-128763247D01*
X69720542Y-128763245D01*
X69884321Y-128653811D01*
X70066308Y-128578429D01*
X70259509Y-128540000D01*
X70456491Y-128540000D01*
X70649692Y-128578429D01*
G37*
G36*
X122244986Y-128768306D02*
G01*
X122285980Y-128780742D01*
X122323767Y-128800939D01*
X122356883Y-128828117D01*
X122384061Y-128861233D01*
X122404258Y-128899020D01*
X122416694Y-128940014D01*
X122421200Y-128985767D01*
X122421200Y-130094233D01*
X122416694Y-130139986D01*
X122404258Y-130180980D01*
X122384061Y-130218767D01*
X122356883Y-130251883D01*
X122323767Y-130279061D01*
X122285980Y-130299258D01*
X122244986Y-130311694D01*
X122199233Y-130316200D01*
X121640767Y-130316200D01*
X121595014Y-130311694D01*
X121554020Y-130299258D01*
X121516233Y-130279061D01*
X121483117Y-130251883D01*
X121455939Y-130218767D01*
X121435742Y-130180980D01*
X121423306Y-130139986D01*
X121418800Y-130094233D01*
X121418800Y-128985767D01*
X121423306Y-128940014D01*
X121435742Y-128899020D01*
X121455939Y-128861233D01*
X121483117Y-128828117D01*
X121516233Y-128800939D01*
X121554020Y-128780742D01*
X121595014Y-128768306D01*
X121640767Y-128763800D01*
X122199233Y-128763800D01*
X122244986Y-128768306D01*
G37*
G36*
X124144986Y-128768306D02*
G01*
X124185980Y-128780742D01*
X124223767Y-128800939D01*
X124256883Y-128828117D01*
X124284061Y-128861233D01*
X124304258Y-128899020D01*
X124316694Y-128940014D01*
X124321200Y-128985767D01*
X124321200Y-130094233D01*
X124316694Y-130139986D01*
X124304258Y-130180980D01*
X124284061Y-130218767D01*
X124256883Y-130251883D01*
X124223767Y-130279061D01*
X124185980Y-130299258D01*
X124144986Y-130311694D01*
X124099233Y-130316200D01*
X123540767Y-130316200D01*
X123495014Y-130311694D01*
X123454020Y-130299258D01*
X123416233Y-130279061D01*
X123383117Y-130251883D01*
X123355939Y-130218767D01*
X123335742Y-130180980D01*
X123323306Y-130139986D01*
X123318800Y-130094233D01*
X123318800Y-128985767D01*
X123323306Y-128940014D01*
X123335742Y-128899020D01*
X123355939Y-128861233D01*
X123383117Y-128828117D01*
X123416233Y-128800939D01*
X123454020Y-128780742D01*
X123495014Y-128768306D01*
X123540767Y-128763800D01*
X124099233Y-128763800D01*
X124144986Y-128768306D01*
G37*
G36*
X78284737Y-127118267D02*
G01*
X78335119Y-127133550D01*
X78381546Y-127158366D01*
X78422239Y-127191761D01*
X78455634Y-127232454D01*
X78480450Y-127278881D01*
X78495733Y-127329263D01*
X78501200Y-127384767D01*
X78501200Y-128393233D01*
X78495733Y-128448737D01*
X78480450Y-128499119D01*
X78455634Y-128545546D01*
X78422239Y-128586239D01*
X78381546Y-128619634D01*
X78335119Y-128644450D01*
X78284737Y-128659733D01*
X78229233Y-128665200D01*
X77570767Y-128665200D01*
X77515263Y-128659733D01*
X77464881Y-128644450D01*
X77418454Y-128619634D01*
X77377761Y-128586239D01*
X77344366Y-128545546D01*
X77319550Y-128499119D01*
X77304267Y-128448737D01*
X77298800Y-128393233D01*
X77298800Y-127384767D01*
X77304267Y-127329263D01*
X77319550Y-127278881D01*
X77344366Y-127232454D01*
X77377761Y-127191761D01*
X77418454Y-127158366D01*
X77464881Y-127133550D01*
X77515263Y-127118267D01*
X77570767Y-127112800D01*
X78229233Y-127112800D01*
X78284737Y-127118267D01*
G37*
G36*
X135844737Y-127118267D02*
G01*
X135895119Y-127133550D01*
X135941546Y-127158366D01*
X135982239Y-127191761D01*
X136015634Y-127232454D01*
X136040450Y-127278881D01*
X136055733Y-127329263D01*
X136061200Y-127384767D01*
X136061200Y-128393233D01*
X136055733Y-128448737D01*
X136040450Y-128499119D01*
X136015634Y-128545546D01*
X135982239Y-128586239D01*
X135941546Y-128619634D01*
X135895119Y-128644450D01*
X135844737Y-128659733D01*
X135789233Y-128665200D01*
X135130767Y-128665200D01*
X135075263Y-128659733D01*
X135024881Y-128644450D01*
X134978454Y-128619634D01*
X134937761Y-128586239D01*
X134904366Y-128545546D01*
X134879550Y-128499119D01*
X134864267Y-128448737D01*
X134858800Y-128393233D01*
X134858800Y-127384767D01*
X134864267Y-127329263D01*
X134879550Y-127278881D01*
X134904366Y-127232454D01*
X134937761Y-127191761D01*
X134978454Y-127158366D01*
X135024881Y-127133550D01*
X135075263Y-127118267D01*
X135130767Y-127112800D01*
X135789233Y-127112800D01*
X135844737Y-127118267D01*
G37*
G36*
X137544737Y-127118267D02*
G01*
X137595119Y-127133550D01*
X137641546Y-127158366D01*
X137682239Y-127191761D01*
X137715634Y-127232454D01*
X137740450Y-127278881D01*
X137755733Y-127329263D01*
X137761200Y-127384767D01*
X137761200Y-128393233D01*
X137755733Y-128448737D01*
X137740450Y-128499119D01*
X137715634Y-128545546D01*
X137682239Y-128586239D01*
X137641546Y-128619634D01*
X137595119Y-128644450D01*
X137544737Y-128659733D01*
X137489233Y-128665200D01*
X136830767Y-128665200D01*
X136775263Y-128659733D01*
X136724881Y-128644450D01*
X136678454Y-128619634D01*
X136637761Y-128586239D01*
X136604366Y-128545546D01*
X136579550Y-128499119D01*
X136564267Y-128448737D01*
X136558800Y-128393233D01*
X136558800Y-127384767D01*
X136564267Y-127329263D01*
X136579550Y-127278881D01*
X136604366Y-127232454D01*
X136637761Y-127191761D01*
X136678454Y-127158366D01*
X136724881Y-127133550D01*
X136775263Y-127118267D01*
X136830767Y-127112800D01*
X137489233Y-127112800D01*
X137544737Y-127118267D01*
G37*
G36*
X76584737Y-127118267D02*
G01*
X76635119Y-127133550D01*
X76681546Y-127158366D01*
X76722239Y-127191761D01*
X76755634Y-127232454D01*
X76780450Y-127278881D01*
X76795733Y-127329263D01*
X76801200Y-127384767D01*
X76801200Y-128393233D01*
X76795733Y-128448737D01*
X76780450Y-128499119D01*
X76755634Y-128545546D01*
X76722239Y-128586239D01*
X76681546Y-128619634D01*
X76635119Y-128644450D01*
X76584737Y-128659733D01*
X76529233Y-128665200D01*
X75870767Y-128665200D01*
X75815263Y-128659733D01*
X75764881Y-128644450D01*
X75718454Y-128619634D01*
X75677761Y-128586239D01*
X75644366Y-128545546D01*
X75619550Y-128499119D01*
X75604267Y-128448737D01*
X75598800Y-128393233D01*
X75598800Y-127384767D01*
X75604267Y-127329263D01*
X75619550Y-127278881D01*
X75644366Y-127232454D01*
X75677761Y-127191761D01*
X75718454Y-127158366D01*
X75764881Y-127133550D01*
X75815263Y-127118267D01*
X75870767Y-127112800D01*
X76529233Y-127112800D01*
X76584737Y-127118267D01*
G37*
G36*
X93523737Y-127039267D02*
G01*
X93574119Y-127054550D01*
X93620546Y-127079366D01*
X93661239Y-127112761D01*
X93694634Y-127153454D01*
X93719450Y-127199881D01*
X93734733Y-127250263D01*
X93740200Y-127305767D01*
X93740200Y-127964233D01*
X93734733Y-128019737D01*
X93719450Y-128070119D01*
X93694634Y-128116546D01*
X93661239Y-128157239D01*
X93620546Y-128190634D01*
X93574119Y-128215450D01*
X93523737Y-128230733D01*
X93468233Y-128236200D01*
X92459767Y-128236200D01*
X92404263Y-128230733D01*
X92353881Y-128215450D01*
X92307454Y-128190634D01*
X92266761Y-128157239D01*
X92233366Y-128116546D01*
X92208550Y-128070119D01*
X92193267Y-128019737D01*
X92187800Y-127964233D01*
X92187800Y-127305767D01*
X92193267Y-127250263D01*
X92208550Y-127199881D01*
X92233366Y-127153454D01*
X92266761Y-127112761D01*
X92307454Y-127079366D01*
X92353881Y-127054550D01*
X92404263Y-127039267D01*
X92459767Y-127033800D01*
X93468233Y-127033800D01*
X93523737Y-127039267D01*
G37*
G36*
X96787290Y-127262105D02*
G01*
X96816568Y-127270986D01*
X96843545Y-127285406D01*
X96867190Y-127304810D01*
X96886594Y-127328455D01*
X96901014Y-127355432D01*
X96909895Y-127384710D01*
X96913200Y-127418267D01*
X96913200Y-127851733D01*
X96909895Y-127885290D01*
X96901014Y-127914568D01*
X96886594Y-127941545D01*
X96867190Y-127965190D01*
X96843545Y-127984594D01*
X96816568Y-127999014D01*
X96787290Y-128007895D01*
X96753733Y-128011200D01*
X94870267Y-128011200D01*
X94836710Y-128007895D01*
X94807432Y-127999014D01*
X94780455Y-127984594D01*
X94756810Y-127965190D01*
X94737406Y-127941545D01*
X94722986Y-127914568D01*
X94714105Y-127885290D01*
X94710800Y-127851733D01*
X94710800Y-127418267D01*
X94714105Y-127384710D01*
X94722986Y-127355432D01*
X94737406Y-127328455D01*
X94756810Y-127304810D01*
X94780455Y-127285406D01*
X94807432Y-127270986D01*
X94836710Y-127262105D01*
X94870267Y-127258800D01*
X96753733Y-127258800D01*
X96787290Y-127262105D01*
G37*
G36*
X109887290Y-127262105D02*
G01*
X109916568Y-127270986D01*
X109943545Y-127285406D01*
X109967190Y-127304810D01*
X109986594Y-127328455D01*
X110001014Y-127355432D01*
X110009895Y-127384710D01*
X110013200Y-127418267D01*
X110013200Y-127851733D01*
X110009895Y-127885290D01*
X110001014Y-127914568D01*
X109986594Y-127941545D01*
X109967190Y-127965190D01*
X109943545Y-127984594D01*
X109916568Y-127999014D01*
X109887290Y-128007895D01*
X109853733Y-128011200D01*
X107970267Y-128011200D01*
X107936710Y-128007895D01*
X107907432Y-127999014D01*
X107880455Y-127984594D01*
X107856810Y-127965190D01*
X107837406Y-127941545D01*
X107822986Y-127914568D01*
X107814105Y-127885290D01*
X107810800Y-127851733D01*
X107810800Y-127418267D01*
X107814105Y-127384710D01*
X107822986Y-127355432D01*
X107837406Y-127328455D01*
X107856810Y-127304810D01*
X107880455Y-127285406D01*
X107907432Y-127270986D01*
X107936710Y-127262105D01*
X107970267Y-127258800D01*
X109853733Y-127258800D01*
X109887290Y-127262105D01*
G37*
G36*
X96787290Y-125992105D02*
G01*
X96816568Y-126000986D01*
X96843545Y-126015406D01*
X96867190Y-126034810D01*
X96886594Y-126058455D01*
X96901014Y-126085432D01*
X96909895Y-126114710D01*
X96913200Y-126148267D01*
X96913200Y-126581733D01*
X96909895Y-126615290D01*
X96901014Y-126644568D01*
X96886594Y-126671545D01*
X96867190Y-126695190D01*
X96843545Y-126714594D01*
X96816568Y-126729014D01*
X96787290Y-126737895D01*
X96753733Y-126741200D01*
X94870267Y-126741200D01*
X94836710Y-126737895D01*
X94807432Y-126729014D01*
X94780455Y-126714594D01*
X94756810Y-126695190D01*
X94737406Y-126671545D01*
X94722986Y-126644568D01*
X94714105Y-126615290D01*
X94710800Y-126581733D01*
X94710800Y-126148267D01*
X94714105Y-126114710D01*
X94722986Y-126085432D01*
X94737406Y-126058455D01*
X94756810Y-126034810D01*
X94780455Y-126015406D01*
X94807432Y-126000986D01*
X94836710Y-125992105D01*
X94870267Y-125988800D01*
X96753733Y-125988800D01*
X96787290Y-125992105D01*
G37*
G36*
X109887290Y-125992105D02*
G01*
X109916568Y-126000986D01*
X109943545Y-126015406D01*
X109967190Y-126034810D01*
X109986594Y-126058455D01*
X110001014Y-126085432D01*
X110009895Y-126114710D01*
X110013200Y-126148267D01*
X110013200Y-126581733D01*
X110009895Y-126615290D01*
X110001014Y-126644568D01*
X109986594Y-126671545D01*
X109967190Y-126695190D01*
X109943545Y-126714594D01*
X109916568Y-126729014D01*
X109887290Y-126737895D01*
X109853733Y-126741200D01*
X107970267Y-126741200D01*
X107936710Y-126737895D01*
X107907432Y-126729014D01*
X107880455Y-126714594D01*
X107856810Y-126695190D01*
X107837406Y-126671545D01*
X107822986Y-126644568D01*
X107814105Y-126615290D01*
X107810800Y-126581733D01*
X107810800Y-126148267D01*
X107814105Y-126114710D01*
X107822986Y-126085432D01*
X107837406Y-126058455D01*
X107856810Y-126034810D01*
X107880455Y-126015406D01*
X107907432Y-126000986D01*
X107936710Y-125992105D01*
X107970267Y-125988800D01*
X109853733Y-125988800D01*
X109887290Y-125992105D01*
G37*
G36*
X93523737Y-125339267D02*
G01*
X93574119Y-125354550D01*
X93620546Y-125379366D01*
X93661239Y-125412761D01*
X93694634Y-125453454D01*
X93719450Y-125499881D01*
X93734733Y-125550263D01*
X93740200Y-125605767D01*
X93740200Y-126264233D01*
X93734733Y-126319737D01*
X93719450Y-126370119D01*
X93694634Y-126416546D01*
X93661239Y-126457239D01*
X93620546Y-126490634D01*
X93574119Y-126515450D01*
X93523737Y-126530733D01*
X93468233Y-126536200D01*
X92459767Y-126536200D01*
X92404263Y-126530733D01*
X92353881Y-126515450D01*
X92307454Y-126490634D01*
X92266761Y-126457239D01*
X92233366Y-126416546D01*
X92208550Y-126370119D01*
X92193267Y-126319737D01*
X92187800Y-126264233D01*
X92187800Y-125605767D01*
X92193267Y-125550263D01*
X92208550Y-125499881D01*
X92233366Y-125453454D01*
X92266761Y-125412761D01*
X92307454Y-125379366D01*
X92353881Y-125354550D01*
X92404263Y-125339267D01*
X92459767Y-125333800D01*
X93468233Y-125333800D01*
X93523737Y-125339267D01*
G37*
G36*
X137197692Y-123879429D02*
G01*
X137379679Y-123954811D01*
X137543458Y-124064245D01*
X137543460Y-124064247D01*
X137543463Y-124064249D01*
X137682751Y-124203537D01*
X137682753Y-124203540D01*
X137682755Y-124203542D01*
X137792189Y-124367321D01*
X137867571Y-124549308D01*
X137906000Y-124742509D01*
X137906000Y-124939491D01*
X137867571Y-125132692D01*
X137792189Y-125314679D01*
X137682755Y-125478458D01*
X137682753Y-125478460D01*
X137682751Y-125478463D01*
X137543463Y-125617751D01*
X137543460Y-125617753D01*
X137543458Y-125617755D01*
X137379679Y-125727189D01*
X137197692Y-125802571D01*
X137004491Y-125841000D01*
X136807509Y-125841000D01*
X136614308Y-125802571D01*
X136432321Y-125727189D01*
X136268542Y-125617755D01*
X136268540Y-125617753D01*
X136268537Y-125617751D01*
X136129249Y-125478463D01*
X136129247Y-125478460D01*
X136129245Y-125478458D01*
X136019811Y-125314679D01*
X135944429Y-125132692D01*
X135906000Y-124939491D01*
X135906000Y-124742509D01*
X135944429Y-124549308D01*
X136019811Y-124367321D01*
X136129245Y-124203542D01*
X136129247Y-124203540D01*
X136129249Y-124203537D01*
X136268537Y-124064249D01*
X136268540Y-124064247D01*
X136268542Y-124064245D01*
X136432321Y-123954811D01*
X136614308Y-123879429D01*
X136807509Y-123841000D01*
X137004491Y-123841000D01*
X137197692Y-123879429D01*
G37*
G36*
X96787290Y-124722105D02*
G01*
X96816568Y-124730986D01*
X96843545Y-124745406D01*
X96867190Y-124764810D01*
X96886594Y-124788455D01*
X96901014Y-124815432D01*
X96909895Y-124844710D01*
X96913200Y-124878267D01*
X96913200Y-125311733D01*
X96909895Y-125345290D01*
X96901014Y-125374568D01*
X96886594Y-125401545D01*
X96867190Y-125425190D01*
X96843545Y-125444594D01*
X96816568Y-125459014D01*
X96787290Y-125467895D01*
X96753733Y-125471200D01*
X94870267Y-125471200D01*
X94836710Y-125467895D01*
X94807432Y-125459014D01*
X94780455Y-125444594D01*
X94756810Y-125425190D01*
X94737406Y-125401545D01*
X94722986Y-125374568D01*
X94714105Y-125345290D01*
X94710800Y-125311733D01*
X94710800Y-124878267D01*
X94714105Y-124844710D01*
X94722986Y-124815432D01*
X94737406Y-124788455D01*
X94756810Y-124764810D01*
X94780455Y-124745406D01*
X94807432Y-124730986D01*
X94836710Y-124722105D01*
X94870267Y-124718800D01*
X96753733Y-124718800D01*
X96787290Y-124722105D01*
G37*
G36*
X109887290Y-124722105D02*
G01*
X109916568Y-124730986D01*
X109943545Y-124745406D01*
X109967190Y-124764810D01*
X109986594Y-124788455D01*
X110001014Y-124815432D01*
X110009895Y-124844710D01*
X110013200Y-124878267D01*
X110013200Y-125311733D01*
X110009895Y-125345290D01*
X110001014Y-125374568D01*
X109986594Y-125401545D01*
X109967190Y-125425190D01*
X109943545Y-125444594D01*
X109916568Y-125459014D01*
X109887290Y-125467895D01*
X109853733Y-125471200D01*
X107970267Y-125471200D01*
X107936710Y-125467895D01*
X107907432Y-125459014D01*
X107880455Y-125444594D01*
X107856810Y-125425190D01*
X107837406Y-125401545D01*
X107822986Y-125374568D01*
X107814105Y-125345290D01*
X107810800Y-125311733D01*
X107810800Y-124878267D01*
X107814105Y-124844710D01*
X107822986Y-124815432D01*
X107837406Y-124788455D01*
X107856810Y-124764810D01*
X107880455Y-124745406D01*
X107907432Y-124730986D01*
X107936710Y-124722105D01*
X107970267Y-124718800D01*
X109853733Y-124718800D01*
X109887290Y-124722105D01*
G37*
G36*
X122551290Y-123502105D02*
G01*
X122580568Y-123510986D01*
X122607545Y-123525406D01*
X122631190Y-123544810D01*
X122650594Y-123568455D01*
X122665014Y-123595432D01*
X122673895Y-123624710D01*
X122677200Y-123658267D01*
X122677200Y-124966733D01*
X122673895Y-125000290D01*
X122665014Y-125029568D01*
X122650594Y-125056545D01*
X122631190Y-125080190D01*
X122607545Y-125099594D01*
X122580568Y-125114014D01*
X122551290Y-125122895D01*
X122517733Y-125126200D01*
X122084267Y-125126200D01*
X122050710Y-125122895D01*
X122021432Y-125114014D01*
X121994455Y-125099594D01*
X121970810Y-125080190D01*
X121951406Y-125056545D01*
X121936986Y-125029568D01*
X121928105Y-125000290D01*
X121924800Y-124966733D01*
X121924800Y-123658267D01*
X121928105Y-123624710D01*
X121936986Y-123595432D01*
X121951406Y-123568455D01*
X121970810Y-123544810D01*
X121994455Y-123525406D01*
X122021432Y-123510986D01*
X122050710Y-123502105D01*
X122084267Y-123498800D01*
X122517733Y-123498800D01*
X122551290Y-123502105D01*
G37*
G36*
X123821290Y-123502105D02*
G01*
X123850568Y-123510986D01*
X123877545Y-123525406D01*
X123901190Y-123544810D01*
X123920594Y-123568455D01*
X123935014Y-123595432D01*
X123943895Y-123624710D01*
X123947200Y-123658267D01*
X123947200Y-124966733D01*
X123943895Y-125000290D01*
X123935014Y-125029568D01*
X123920594Y-125056545D01*
X123901190Y-125080190D01*
X123877545Y-125099594D01*
X123850568Y-125114014D01*
X123821290Y-125122895D01*
X123787733Y-125126200D01*
X123354267Y-125126200D01*
X123320710Y-125122895D01*
X123291432Y-125114014D01*
X123264455Y-125099594D01*
X123240810Y-125080190D01*
X123221406Y-125056545D01*
X123206986Y-125029568D01*
X123198105Y-125000290D01*
X123194800Y-124966733D01*
X123194800Y-123658267D01*
X123198105Y-123624710D01*
X123206986Y-123595432D01*
X123221406Y-123568455D01*
X123240810Y-123544810D01*
X123264455Y-123525406D01*
X123291432Y-123510986D01*
X123320710Y-123502105D01*
X123354267Y-123498800D01*
X123787733Y-123498800D01*
X123821290Y-123502105D01*
G37*
G36*
X116201290Y-123502105D02*
G01*
X116230568Y-123510986D01*
X116257545Y-123525406D01*
X116281190Y-123544810D01*
X116300594Y-123568455D01*
X116315014Y-123595432D01*
X116323895Y-123624710D01*
X116327200Y-123658267D01*
X116327200Y-124966733D01*
X116323895Y-125000290D01*
X116315014Y-125029568D01*
X116300594Y-125056545D01*
X116281190Y-125080190D01*
X116257545Y-125099594D01*
X116230568Y-125114014D01*
X116201290Y-125122895D01*
X116167733Y-125126200D01*
X115734267Y-125126200D01*
X115700710Y-125122895D01*
X115671432Y-125114014D01*
X115644455Y-125099594D01*
X115620810Y-125080190D01*
X115601406Y-125056545D01*
X115586986Y-125029568D01*
X115578105Y-125000290D01*
X115574800Y-124966733D01*
X115574800Y-123658267D01*
X115578105Y-123624710D01*
X115586986Y-123595432D01*
X115601406Y-123568455D01*
X115620810Y-123544810D01*
X115644455Y-123525406D01*
X115671432Y-123510986D01*
X115700710Y-123502105D01*
X115734267Y-123498800D01*
X116167733Y-123498800D01*
X116201290Y-123502105D01*
G37*
G36*
X117471290Y-123502105D02*
G01*
X117500568Y-123510986D01*
X117527545Y-123525406D01*
X117551190Y-123544810D01*
X117570594Y-123568455D01*
X117585014Y-123595432D01*
X117593895Y-123624710D01*
X117597200Y-123658267D01*
X117597200Y-124966733D01*
X117593895Y-125000290D01*
X117585014Y-125029568D01*
X117570594Y-125056545D01*
X117551190Y-125080190D01*
X117527545Y-125099594D01*
X117500568Y-125114014D01*
X117471290Y-125122895D01*
X117437733Y-125126200D01*
X117004267Y-125126200D01*
X116970710Y-125122895D01*
X116941432Y-125114014D01*
X116914455Y-125099594D01*
X116890810Y-125080190D01*
X116871406Y-125056545D01*
X116856986Y-125029568D01*
X116848105Y-125000290D01*
X116844800Y-124966733D01*
X116844800Y-123658267D01*
X116848105Y-123624710D01*
X116856986Y-123595432D01*
X116871406Y-123568455D01*
X116890810Y-123544810D01*
X116914455Y-123525406D01*
X116941432Y-123510986D01*
X116970710Y-123502105D01*
X117004267Y-123498800D01*
X117437733Y-123498800D01*
X117471290Y-123502105D01*
G37*
G36*
X118741290Y-123502105D02*
G01*
X118770568Y-123510986D01*
X118797545Y-123525406D01*
X118821190Y-123544810D01*
X118840594Y-123568455D01*
X118855014Y-123595432D01*
X118863895Y-123624710D01*
X118867200Y-123658267D01*
X118867200Y-124966733D01*
X118863895Y-125000290D01*
X118855014Y-125029568D01*
X118840594Y-125056545D01*
X118821190Y-125080190D01*
X118797545Y-125099594D01*
X118770568Y-125114014D01*
X118741290Y-125122895D01*
X118707733Y-125126200D01*
X118274267Y-125126200D01*
X118240710Y-125122895D01*
X118211432Y-125114014D01*
X118184455Y-125099594D01*
X118160810Y-125080190D01*
X118141406Y-125056545D01*
X118126986Y-125029568D01*
X118118105Y-125000290D01*
X118114800Y-124966733D01*
X118114800Y-123658267D01*
X118118105Y-123624710D01*
X118126986Y-123595432D01*
X118141406Y-123568455D01*
X118160810Y-123544810D01*
X118184455Y-123525406D01*
X118211432Y-123510986D01*
X118240710Y-123502105D01*
X118274267Y-123498800D01*
X118707733Y-123498800D01*
X118741290Y-123502105D01*
G37*
G36*
X120011290Y-123502105D02*
G01*
X120040568Y-123510986D01*
X120067545Y-123525406D01*
X120091190Y-123544810D01*
X120110594Y-123568455D01*
X120125014Y-123595432D01*
X120133895Y-123624710D01*
X120137200Y-123658267D01*
X120137200Y-124966733D01*
X120133895Y-125000290D01*
X120125014Y-125029568D01*
X120110594Y-125056545D01*
X120091190Y-125080190D01*
X120067545Y-125099594D01*
X120040568Y-125114014D01*
X120011290Y-125122895D01*
X119977733Y-125126200D01*
X119544267Y-125126200D01*
X119510710Y-125122895D01*
X119481432Y-125114014D01*
X119454455Y-125099594D01*
X119430810Y-125080190D01*
X119411406Y-125056545D01*
X119396986Y-125029568D01*
X119388105Y-125000290D01*
X119384800Y-124966733D01*
X119384800Y-123658267D01*
X119388105Y-123624710D01*
X119396986Y-123595432D01*
X119411406Y-123568455D01*
X119430810Y-123544810D01*
X119454455Y-123525406D01*
X119481432Y-123510986D01*
X119510710Y-123502105D01*
X119544267Y-123498800D01*
X119977733Y-123498800D01*
X120011290Y-123502105D01*
G37*
G36*
X121281290Y-123502105D02*
G01*
X121310568Y-123510986D01*
X121337545Y-123525406D01*
X121361190Y-123544810D01*
X121380594Y-123568455D01*
X121395014Y-123595432D01*
X121403895Y-123624710D01*
X121407200Y-123658267D01*
X121407200Y-124966733D01*
X121403895Y-125000290D01*
X121395014Y-125029568D01*
X121380594Y-125056545D01*
X121361190Y-125080190D01*
X121337545Y-125099594D01*
X121310568Y-125114014D01*
X121281290Y-125122895D01*
X121247733Y-125126200D01*
X120814267Y-125126200D01*
X120780710Y-125122895D01*
X120751432Y-125114014D01*
X120724455Y-125099594D01*
X120700810Y-125080190D01*
X120681406Y-125056545D01*
X120666986Y-125029568D01*
X120658105Y-125000290D01*
X120654800Y-124966733D01*
X120654800Y-123658267D01*
X120658105Y-123624710D01*
X120666986Y-123595432D01*
X120681406Y-123568455D01*
X120700810Y-123544810D01*
X120724455Y-123525406D01*
X120751432Y-123510986D01*
X120780710Y-123502105D01*
X120814267Y-123498800D01*
X121247733Y-123498800D01*
X121281290Y-123502105D01*
G37*
G36*
X109887290Y-123452105D02*
G01*
X109916568Y-123460986D01*
X109943545Y-123475406D01*
X109967190Y-123494810D01*
X109986594Y-123518455D01*
X110001014Y-123545432D01*
X110009895Y-123574710D01*
X110013200Y-123608267D01*
X110013200Y-124041733D01*
X110009895Y-124075290D01*
X110001014Y-124104568D01*
X109986594Y-124131545D01*
X109967190Y-124155190D01*
X109943545Y-124174594D01*
X109916568Y-124189014D01*
X109887290Y-124197895D01*
X109853733Y-124201200D01*
X107970267Y-124201200D01*
X107936710Y-124197895D01*
X107907432Y-124189014D01*
X107880455Y-124174594D01*
X107856810Y-124155190D01*
X107837406Y-124131545D01*
X107822986Y-124104568D01*
X107814105Y-124075290D01*
X107810800Y-124041733D01*
X107810800Y-123608267D01*
X107814105Y-123574710D01*
X107822986Y-123545432D01*
X107837406Y-123518455D01*
X107856810Y-123494810D01*
X107880455Y-123475406D01*
X107907432Y-123460986D01*
X107936710Y-123452105D01*
X107970267Y-123448800D01*
X109853733Y-123448800D01*
X109887290Y-123452105D01*
G37*
G36*
X96787290Y-123452105D02*
G01*
X96816568Y-123460986D01*
X96843545Y-123475406D01*
X96867190Y-123494810D01*
X96886594Y-123518455D01*
X96901014Y-123545432D01*
X96909895Y-123574710D01*
X96913200Y-123608267D01*
X96913200Y-124041733D01*
X96909895Y-124075290D01*
X96901014Y-124104568D01*
X96886594Y-124131545D01*
X96867190Y-124155190D01*
X96843545Y-124174594D01*
X96816568Y-124189014D01*
X96787290Y-124197895D01*
X96753733Y-124201200D01*
X94870267Y-124201200D01*
X94836710Y-124197895D01*
X94807432Y-124189014D01*
X94780455Y-124174594D01*
X94756810Y-124155190D01*
X94737406Y-124131545D01*
X94722986Y-124104568D01*
X94714105Y-124075290D01*
X94710800Y-124041733D01*
X94710800Y-123608267D01*
X94714105Y-123574710D01*
X94722986Y-123545432D01*
X94737406Y-123518455D01*
X94756810Y-123494810D01*
X94780455Y-123475406D01*
X94807432Y-123460986D01*
X94836710Y-123452105D01*
X94870267Y-123448800D01*
X96753733Y-123448800D01*
X96787290Y-123452105D01*
G37*
G36*
X136496290Y-122182105D02*
G01*
X136525568Y-122190986D01*
X136552545Y-122205406D01*
X136576190Y-122224810D01*
X136595594Y-122248455D01*
X136610014Y-122275432D01*
X136618895Y-122304710D01*
X136622200Y-122338267D01*
X136622200Y-122771733D01*
X136618895Y-122805290D01*
X136610014Y-122834568D01*
X136595594Y-122861545D01*
X136576190Y-122885190D01*
X136552545Y-122904594D01*
X136525568Y-122919014D01*
X136496290Y-122927895D01*
X136462733Y-122931200D01*
X134679267Y-122931200D01*
X134645710Y-122927895D01*
X134616432Y-122919014D01*
X134589455Y-122904594D01*
X134565810Y-122885190D01*
X134546406Y-122861545D01*
X134531986Y-122834568D01*
X134523105Y-122805290D01*
X134519800Y-122771733D01*
X134519800Y-122338267D01*
X134523105Y-122304710D01*
X134531986Y-122275432D01*
X134546406Y-122248455D01*
X134565810Y-122224810D01*
X134589455Y-122205406D01*
X134616432Y-122190986D01*
X134645710Y-122182105D01*
X134679267Y-122178800D01*
X136462733Y-122178800D01*
X136496290Y-122182105D01*
G37*
G36*
X114886290Y-122182105D02*
G01*
X114915568Y-122190986D01*
X114942545Y-122205406D01*
X114966190Y-122224810D01*
X114985594Y-122248455D01*
X115000014Y-122275432D01*
X115008895Y-122304710D01*
X115012200Y-122338267D01*
X115012200Y-122771733D01*
X115008895Y-122805290D01*
X115000014Y-122834568D01*
X114985594Y-122861545D01*
X114966190Y-122885190D01*
X114942545Y-122904594D01*
X114915568Y-122919014D01*
X114886290Y-122927895D01*
X114852733Y-122931200D01*
X113544267Y-122931200D01*
X113510710Y-122927895D01*
X113481432Y-122919014D01*
X113454455Y-122904594D01*
X113430810Y-122885190D01*
X113411406Y-122861545D01*
X113396986Y-122834568D01*
X113388105Y-122805290D01*
X113384800Y-122771733D01*
X113384800Y-122338267D01*
X113388105Y-122304710D01*
X113396986Y-122275432D01*
X113411406Y-122248455D01*
X113430810Y-122224810D01*
X113454455Y-122205406D01*
X113481432Y-122190986D01*
X113510710Y-122182105D01*
X113544267Y-122178800D01*
X114852733Y-122178800D01*
X114886290Y-122182105D01*
G37*
G36*
X131546290Y-122182105D02*
G01*
X131575568Y-122190986D01*
X131602545Y-122205406D01*
X131626190Y-122224810D01*
X131645594Y-122248455D01*
X131660014Y-122275432D01*
X131668895Y-122304710D01*
X131672200Y-122338267D01*
X131672200Y-122771733D01*
X131668895Y-122805290D01*
X131660014Y-122834568D01*
X131645594Y-122861545D01*
X131626190Y-122885190D01*
X131602545Y-122904594D01*
X131575568Y-122919014D01*
X131546290Y-122927895D01*
X131512733Y-122931200D01*
X129729267Y-122931200D01*
X129695710Y-122927895D01*
X129666432Y-122919014D01*
X129639455Y-122904594D01*
X129615810Y-122885190D01*
X129596406Y-122861545D01*
X129581986Y-122834568D01*
X129573105Y-122805290D01*
X129569800Y-122771733D01*
X129569800Y-122338267D01*
X129573105Y-122304710D01*
X129581986Y-122275432D01*
X129596406Y-122248455D01*
X129615810Y-122224810D01*
X129639455Y-122205406D01*
X129666432Y-122190986D01*
X129695710Y-122182105D01*
X129729267Y-122178800D01*
X131512733Y-122178800D01*
X131546290Y-122182105D01*
G37*
G36*
X126011290Y-122182105D02*
G01*
X126040568Y-122190986D01*
X126067545Y-122205406D01*
X126091190Y-122224810D01*
X126110594Y-122248455D01*
X126125014Y-122275432D01*
X126133895Y-122304710D01*
X126137200Y-122338267D01*
X126137200Y-122771733D01*
X126133895Y-122805290D01*
X126125014Y-122834568D01*
X126110594Y-122861545D01*
X126091190Y-122885190D01*
X126067545Y-122904594D01*
X126040568Y-122919014D01*
X126011290Y-122927895D01*
X125977733Y-122931200D01*
X124669267Y-122931200D01*
X124635710Y-122927895D01*
X124606432Y-122919014D01*
X124579455Y-122904594D01*
X124555810Y-122885190D01*
X124536406Y-122861545D01*
X124521986Y-122834568D01*
X124513105Y-122805290D01*
X124509800Y-122771733D01*
X124509800Y-122338267D01*
X124513105Y-122304710D01*
X124521986Y-122275432D01*
X124536406Y-122248455D01*
X124555810Y-122224810D01*
X124579455Y-122205406D01*
X124606432Y-122190986D01*
X124635710Y-122182105D01*
X124669267Y-122178800D01*
X125977733Y-122178800D01*
X126011290Y-122182105D01*
G37*
G36*
X96787290Y-122182105D02*
G01*
X96816568Y-122190986D01*
X96843545Y-122205406D01*
X96867190Y-122224810D01*
X96886594Y-122248455D01*
X96901014Y-122275432D01*
X96909895Y-122304710D01*
X96913200Y-122338267D01*
X96913200Y-122771733D01*
X96909895Y-122805290D01*
X96901014Y-122834568D01*
X96886594Y-122861545D01*
X96867190Y-122885190D01*
X96843545Y-122904594D01*
X96816568Y-122919014D01*
X96787290Y-122927895D01*
X96753733Y-122931200D01*
X94870267Y-122931200D01*
X94836710Y-122927895D01*
X94807432Y-122919014D01*
X94780455Y-122904594D01*
X94756810Y-122885190D01*
X94737406Y-122861545D01*
X94722986Y-122834568D01*
X94714105Y-122805290D01*
X94710800Y-122771733D01*
X94710800Y-122338267D01*
X94714105Y-122304710D01*
X94722986Y-122275432D01*
X94737406Y-122248455D01*
X94756810Y-122224810D01*
X94780455Y-122205406D01*
X94807432Y-122190986D01*
X94836710Y-122182105D01*
X94870267Y-122178800D01*
X96753733Y-122178800D01*
X96787290Y-122182105D01*
G37*
G36*
X109887290Y-122182105D02*
G01*
X109916568Y-122190986D01*
X109943545Y-122205406D01*
X109967190Y-122224810D01*
X109986594Y-122248455D01*
X110001014Y-122275432D01*
X110009895Y-122304710D01*
X110013200Y-122338267D01*
X110013200Y-122771733D01*
X110009895Y-122805290D01*
X110001014Y-122834568D01*
X109986594Y-122861545D01*
X109967190Y-122885190D01*
X109943545Y-122904594D01*
X109916568Y-122919014D01*
X109887290Y-122927895D01*
X109853733Y-122931200D01*
X107970267Y-122931200D01*
X107936710Y-122927895D01*
X107907432Y-122919014D01*
X107880455Y-122904594D01*
X107856810Y-122885190D01*
X107837406Y-122861545D01*
X107822986Y-122834568D01*
X107814105Y-122805290D01*
X107810800Y-122771733D01*
X107810800Y-122338267D01*
X107814105Y-122304710D01*
X107822986Y-122275432D01*
X107837406Y-122248455D01*
X107856810Y-122224810D01*
X107880455Y-122205406D01*
X107907432Y-122190986D01*
X107936710Y-122182105D01*
X107970267Y-122178800D01*
X109853733Y-122178800D01*
X109887290Y-122182105D01*
G37*
G36*
X114886290Y-120912105D02*
G01*
X114915568Y-120920986D01*
X114942545Y-120935406D01*
X114966190Y-120954810D01*
X114985594Y-120978455D01*
X115000014Y-121005432D01*
X115008895Y-121034710D01*
X115012200Y-121068267D01*
X115012200Y-121501733D01*
X115008895Y-121535290D01*
X115000014Y-121564568D01*
X114985594Y-121591545D01*
X114966190Y-121615190D01*
X114942545Y-121634594D01*
X114915568Y-121649014D01*
X114886290Y-121657895D01*
X114852733Y-121661200D01*
X113544267Y-121661200D01*
X113510710Y-121657895D01*
X113481432Y-121649014D01*
X113454455Y-121634594D01*
X113430810Y-121615190D01*
X113411406Y-121591545D01*
X113396986Y-121564568D01*
X113388105Y-121535290D01*
X113384800Y-121501733D01*
X113384800Y-121068267D01*
X113388105Y-121034710D01*
X113396986Y-121005432D01*
X113411406Y-120978455D01*
X113430810Y-120954810D01*
X113454455Y-120935406D01*
X113481432Y-120920986D01*
X113510710Y-120912105D01*
X113544267Y-120908800D01*
X114852733Y-120908800D01*
X114886290Y-120912105D01*
G37*
G36*
X96787290Y-120912105D02*
G01*
X96816568Y-120920986D01*
X96843545Y-120935406D01*
X96867190Y-120954810D01*
X96886594Y-120978455D01*
X96901014Y-121005432D01*
X96909895Y-121034710D01*
X96913200Y-121068267D01*
X96913200Y-121501733D01*
X96909895Y-121535290D01*
X96901014Y-121564568D01*
X96886594Y-121591545D01*
X96867190Y-121615190D01*
X96843545Y-121634594D01*
X96816568Y-121649014D01*
X96787290Y-121657895D01*
X96753733Y-121661200D01*
X94870267Y-121661200D01*
X94836710Y-121657895D01*
X94807432Y-121649014D01*
X94780455Y-121634594D01*
X94756810Y-121615190D01*
X94737406Y-121591545D01*
X94722986Y-121564568D01*
X94714105Y-121535290D01*
X94710800Y-121501733D01*
X94710800Y-121068267D01*
X94714105Y-121034710D01*
X94722986Y-121005432D01*
X94737406Y-120978455D01*
X94756810Y-120954810D01*
X94780455Y-120935406D01*
X94807432Y-120920986D01*
X94836710Y-120912105D01*
X94870267Y-120908800D01*
X96753733Y-120908800D01*
X96787290Y-120912105D01*
G37*
G36*
X109887290Y-120912105D02*
G01*
X109916568Y-120920986D01*
X109943545Y-120935406D01*
X109967190Y-120954810D01*
X109986594Y-120978455D01*
X110001014Y-121005432D01*
X110009895Y-121034710D01*
X110013200Y-121068267D01*
X110013200Y-121501733D01*
X110009895Y-121535290D01*
X110001014Y-121564568D01*
X109986594Y-121591545D01*
X109967190Y-121615190D01*
X109943545Y-121634594D01*
X109916568Y-121649014D01*
X109887290Y-121657895D01*
X109853733Y-121661200D01*
X107970267Y-121661200D01*
X107936710Y-121657895D01*
X107907432Y-121649014D01*
X107880455Y-121634594D01*
X107856810Y-121615190D01*
X107837406Y-121591545D01*
X107822986Y-121564568D01*
X107814105Y-121535290D01*
X107810800Y-121501733D01*
X107810800Y-121068267D01*
X107814105Y-121034710D01*
X107822986Y-121005432D01*
X107837406Y-120978455D01*
X107856810Y-120954810D01*
X107880455Y-120935406D01*
X107907432Y-120920986D01*
X107936710Y-120912105D01*
X107970267Y-120908800D01*
X109853733Y-120908800D01*
X109887290Y-120912105D01*
G37*
G36*
X136496290Y-120912105D02*
G01*
X136525568Y-120920986D01*
X136552545Y-120935406D01*
X136576190Y-120954810D01*
X136595594Y-120978455D01*
X136610014Y-121005432D01*
X136618895Y-121034710D01*
X136622200Y-121068267D01*
X136622200Y-121501733D01*
X136618895Y-121535290D01*
X136610014Y-121564568D01*
X136595594Y-121591545D01*
X136576190Y-121615190D01*
X136552545Y-121634594D01*
X136525568Y-121649014D01*
X136496290Y-121657895D01*
X136462733Y-121661200D01*
X134679267Y-121661200D01*
X134645710Y-121657895D01*
X134616432Y-121649014D01*
X134589455Y-121634594D01*
X134565810Y-121615190D01*
X134546406Y-121591545D01*
X134531986Y-121564568D01*
X134523105Y-121535290D01*
X134519800Y-121501733D01*
X134519800Y-121068267D01*
X134523105Y-121034710D01*
X134531986Y-121005432D01*
X134546406Y-120978455D01*
X134565810Y-120954810D01*
X134589455Y-120935406D01*
X134616432Y-120920986D01*
X134645710Y-120912105D01*
X134679267Y-120908800D01*
X136462733Y-120908800D01*
X136496290Y-120912105D01*
G37*
G36*
X131546290Y-120912105D02*
G01*
X131575568Y-120920986D01*
X131602545Y-120935406D01*
X131626190Y-120954810D01*
X131645594Y-120978455D01*
X131660014Y-121005432D01*
X131668895Y-121034710D01*
X131672200Y-121068267D01*
X131672200Y-121501733D01*
X131668895Y-121535290D01*
X131660014Y-121564568D01*
X131645594Y-121591545D01*
X131626190Y-121615190D01*
X131602545Y-121634594D01*
X131575568Y-121649014D01*
X131546290Y-121657895D01*
X131512733Y-121661200D01*
X129729267Y-121661200D01*
X129695710Y-121657895D01*
X129666432Y-121649014D01*
X129639455Y-121634594D01*
X129615810Y-121615190D01*
X129596406Y-121591545D01*
X129581986Y-121564568D01*
X129573105Y-121535290D01*
X129569800Y-121501733D01*
X129569800Y-121068267D01*
X129573105Y-121034710D01*
X129581986Y-121005432D01*
X129596406Y-120978455D01*
X129615810Y-120954810D01*
X129639455Y-120935406D01*
X129666432Y-120920986D01*
X129695710Y-120912105D01*
X129729267Y-120908800D01*
X131512733Y-120908800D01*
X131546290Y-120912105D01*
G37*
G36*
X126011290Y-120912105D02*
G01*
X126040568Y-120920986D01*
X126067545Y-120935406D01*
X126091190Y-120954810D01*
X126110594Y-120978455D01*
X126125014Y-121005432D01*
X126133895Y-121034710D01*
X126137200Y-121068267D01*
X126137200Y-121501733D01*
X126133895Y-121535290D01*
X126125014Y-121564568D01*
X126110594Y-121591545D01*
X126091190Y-121615190D01*
X126067545Y-121634594D01*
X126040568Y-121649014D01*
X126011290Y-121657895D01*
X125977733Y-121661200D01*
X124669267Y-121661200D01*
X124635710Y-121657895D01*
X124606432Y-121649014D01*
X124579455Y-121634594D01*
X124555810Y-121615190D01*
X124536406Y-121591545D01*
X124521986Y-121564568D01*
X124513105Y-121535290D01*
X124509800Y-121501733D01*
X124509800Y-121068267D01*
X124513105Y-121034710D01*
X124521986Y-121005432D01*
X124536406Y-120978455D01*
X124555810Y-120954810D01*
X124579455Y-120935406D01*
X124606432Y-120920986D01*
X124635710Y-120912105D01*
X124669267Y-120908800D01*
X125977733Y-120908800D01*
X126011290Y-120912105D01*
G37*
G36*
X79426737Y-119419267D02*
G01*
X79477119Y-119434550D01*
X79523546Y-119459366D01*
X79564239Y-119492761D01*
X79597634Y-119533454D01*
X79622450Y-119579881D01*
X79637733Y-119630263D01*
X79643200Y-119685767D01*
X79643200Y-120344233D01*
X79637733Y-120399737D01*
X79622450Y-120450119D01*
X79597634Y-120496546D01*
X79564239Y-120537239D01*
X79523546Y-120570634D01*
X79477119Y-120595450D01*
X79426737Y-120610733D01*
X79371233Y-120616200D01*
X78362767Y-120616200D01*
X78307263Y-120610733D01*
X78256881Y-120595450D01*
X78210454Y-120570634D01*
X78169761Y-120537239D01*
X78136366Y-120496546D01*
X78111550Y-120450119D01*
X78096267Y-120399737D01*
X78090800Y-120344233D01*
X78090800Y-119685767D01*
X78096267Y-119630263D01*
X78111550Y-119579881D01*
X78136366Y-119533454D01*
X78169761Y-119492761D01*
X78210454Y-119459366D01*
X78256881Y-119434550D01*
X78307263Y-119419267D01*
X78362767Y-119413800D01*
X79371233Y-119413800D01*
X79426737Y-119419267D01*
G37*
G36*
X109887290Y-119642105D02*
G01*
X109916568Y-119650986D01*
X109943545Y-119665406D01*
X109967190Y-119684810D01*
X109986594Y-119708455D01*
X110001014Y-119735432D01*
X110009895Y-119764710D01*
X110013200Y-119798267D01*
X110013200Y-120231733D01*
X110009895Y-120265290D01*
X110001014Y-120294568D01*
X109986594Y-120321545D01*
X109967190Y-120345190D01*
X109943545Y-120364594D01*
X109916568Y-120379014D01*
X109887290Y-120387895D01*
X109853733Y-120391200D01*
X107970267Y-120391200D01*
X107936710Y-120387895D01*
X107907432Y-120379014D01*
X107880455Y-120364594D01*
X107856810Y-120345190D01*
X107837406Y-120321545D01*
X107822986Y-120294568D01*
X107814105Y-120265290D01*
X107810800Y-120231733D01*
X107810800Y-119798267D01*
X107814105Y-119764710D01*
X107822986Y-119735432D01*
X107837406Y-119708455D01*
X107856810Y-119684810D01*
X107880455Y-119665406D01*
X107907432Y-119650986D01*
X107936710Y-119642105D01*
X107970267Y-119638800D01*
X109853733Y-119638800D01*
X109887290Y-119642105D01*
G37*
G36*
X114886290Y-119642105D02*
G01*
X114915568Y-119650986D01*
X114942545Y-119665406D01*
X114966190Y-119684810D01*
X114985594Y-119708455D01*
X115000014Y-119735432D01*
X115008895Y-119764710D01*
X115012200Y-119798267D01*
X115012200Y-120231733D01*
X115008895Y-120265290D01*
X115000014Y-120294568D01*
X114985594Y-120321545D01*
X114966190Y-120345190D01*
X114942545Y-120364594D01*
X114915568Y-120379014D01*
X114886290Y-120387895D01*
X114852733Y-120391200D01*
X113544267Y-120391200D01*
X113510710Y-120387895D01*
X113481432Y-120379014D01*
X113454455Y-120364594D01*
X113430810Y-120345190D01*
X113411406Y-120321545D01*
X113396986Y-120294568D01*
X113388105Y-120265290D01*
X113384800Y-120231733D01*
X113384800Y-119798267D01*
X113388105Y-119764710D01*
X113396986Y-119735432D01*
X113411406Y-119708455D01*
X113430810Y-119684810D01*
X113454455Y-119665406D01*
X113481432Y-119650986D01*
X113510710Y-119642105D01*
X113544267Y-119638800D01*
X114852733Y-119638800D01*
X114886290Y-119642105D01*
G37*
G36*
X82812290Y-119642105D02*
G01*
X82841568Y-119650986D01*
X82868545Y-119665406D01*
X82892190Y-119684810D01*
X82911594Y-119708455D01*
X82926014Y-119735432D01*
X82934895Y-119764710D01*
X82938200Y-119798267D01*
X82938200Y-120231733D01*
X82934895Y-120265290D01*
X82926014Y-120294568D01*
X82911594Y-120321545D01*
X82892190Y-120345190D01*
X82868545Y-120364594D01*
X82841568Y-120379014D01*
X82812290Y-120387895D01*
X82778733Y-120391200D01*
X80895267Y-120391200D01*
X80861710Y-120387895D01*
X80832432Y-120379014D01*
X80805455Y-120364594D01*
X80781810Y-120345190D01*
X80762406Y-120321545D01*
X80747986Y-120294568D01*
X80739105Y-120265290D01*
X80735800Y-120231733D01*
X80735800Y-119798267D01*
X80739105Y-119764710D01*
X80747986Y-119735432D01*
X80762406Y-119708455D01*
X80781810Y-119684810D01*
X80805455Y-119665406D01*
X80832432Y-119650986D01*
X80861710Y-119642105D01*
X80895267Y-119638800D01*
X82778733Y-119638800D01*
X82812290Y-119642105D01*
G37*
G36*
X126011290Y-119642105D02*
G01*
X126040568Y-119650986D01*
X126067545Y-119665406D01*
X126091190Y-119684810D01*
X126110594Y-119708455D01*
X126125014Y-119735432D01*
X126133895Y-119764710D01*
X126137200Y-119798267D01*
X126137200Y-120231733D01*
X126133895Y-120265290D01*
X126125014Y-120294568D01*
X126110594Y-120321545D01*
X126091190Y-120345190D01*
X126067545Y-120364594D01*
X126040568Y-120379014D01*
X126011290Y-120387895D01*
X125977733Y-120391200D01*
X124669267Y-120391200D01*
X124635710Y-120387895D01*
X124606432Y-120379014D01*
X124579455Y-120364594D01*
X124555810Y-120345190D01*
X124536406Y-120321545D01*
X124521986Y-120294568D01*
X124513105Y-120265290D01*
X124509800Y-120231733D01*
X124509800Y-119798267D01*
X124513105Y-119764710D01*
X124521986Y-119735432D01*
X124536406Y-119708455D01*
X124555810Y-119684810D01*
X124579455Y-119665406D01*
X124606432Y-119650986D01*
X124635710Y-119642105D01*
X124669267Y-119638800D01*
X125977733Y-119638800D01*
X126011290Y-119642105D01*
G37*
G36*
X96787290Y-119642105D02*
G01*
X96816568Y-119650986D01*
X96843545Y-119665406D01*
X96867190Y-119684810D01*
X96886594Y-119708455D01*
X96901014Y-119735432D01*
X96909895Y-119764710D01*
X96913200Y-119798267D01*
X96913200Y-120231733D01*
X96909895Y-120265290D01*
X96901014Y-120294568D01*
X96886594Y-120321545D01*
X96867190Y-120345190D01*
X96843545Y-120364594D01*
X96816568Y-120379014D01*
X96787290Y-120387895D01*
X96753733Y-120391200D01*
X94870267Y-120391200D01*
X94836710Y-120387895D01*
X94807432Y-120379014D01*
X94780455Y-120364594D01*
X94756810Y-120345190D01*
X94737406Y-120321545D01*
X94722986Y-120294568D01*
X94714105Y-120265290D01*
X94710800Y-120231733D01*
X94710800Y-119798267D01*
X94714105Y-119764710D01*
X94722986Y-119735432D01*
X94737406Y-119708455D01*
X94756810Y-119684810D01*
X94780455Y-119665406D01*
X94807432Y-119650986D01*
X94836710Y-119642105D01*
X94870267Y-119638800D01*
X96753733Y-119638800D01*
X96787290Y-119642105D01*
G37*
G36*
X92112290Y-119642105D02*
G01*
X92141568Y-119650986D01*
X92168545Y-119665406D01*
X92192190Y-119684810D01*
X92211594Y-119708455D01*
X92226014Y-119735432D01*
X92234895Y-119764710D01*
X92238200Y-119798267D01*
X92238200Y-120231733D01*
X92234895Y-120265290D01*
X92226014Y-120294568D01*
X92211594Y-120321545D01*
X92192190Y-120345190D01*
X92168545Y-120364594D01*
X92141568Y-120379014D01*
X92112290Y-120387895D01*
X92078733Y-120391200D01*
X90195267Y-120391200D01*
X90161710Y-120387895D01*
X90132432Y-120379014D01*
X90105455Y-120364594D01*
X90081810Y-120345190D01*
X90062406Y-120321545D01*
X90047986Y-120294568D01*
X90039105Y-120265290D01*
X90035800Y-120231733D01*
X90035800Y-119798267D01*
X90039105Y-119764710D01*
X90047986Y-119735432D01*
X90062406Y-119708455D01*
X90081810Y-119684810D01*
X90105455Y-119665406D01*
X90132432Y-119650986D01*
X90161710Y-119642105D01*
X90195267Y-119638800D01*
X92078733Y-119638800D01*
X92112290Y-119642105D01*
G37*
G36*
X131546290Y-119642105D02*
G01*
X131575568Y-119650986D01*
X131602545Y-119665406D01*
X131626190Y-119684810D01*
X131645594Y-119708455D01*
X131660014Y-119735432D01*
X131668895Y-119764710D01*
X131672200Y-119798267D01*
X131672200Y-120231733D01*
X131668895Y-120265290D01*
X131660014Y-120294568D01*
X131645594Y-120321545D01*
X131626190Y-120345190D01*
X131602545Y-120364594D01*
X131575568Y-120379014D01*
X131546290Y-120387895D01*
X131512733Y-120391200D01*
X129729267Y-120391200D01*
X129695710Y-120387895D01*
X129666432Y-120379014D01*
X129639455Y-120364594D01*
X129615810Y-120345190D01*
X129596406Y-120321545D01*
X129581986Y-120294568D01*
X129573105Y-120265290D01*
X129569800Y-120231733D01*
X129569800Y-119798267D01*
X129573105Y-119764710D01*
X129581986Y-119735432D01*
X129596406Y-119708455D01*
X129615810Y-119684810D01*
X129639455Y-119665406D01*
X129666432Y-119650986D01*
X129695710Y-119642105D01*
X129729267Y-119638800D01*
X131512733Y-119638800D01*
X131546290Y-119642105D01*
G37*
G36*
X136496290Y-119642105D02*
G01*
X136525568Y-119650986D01*
X136552545Y-119665406D01*
X136576190Y-119684810D01*
X136595594Y-119708455D01*
X136610014Y-119735432D01*
X136618895Y-119764710D01*
X136622200Y-119798267D01*
X136622200Y-120231733D01*
X136618895Y-120265290D01*
X136610014Y-120294568D01*
X136595594Y-120321545D01*
X136576190Y-120345190D01*
X136552545Y-120364594D01*
X136525568Y-120379014D01*
X136496290Y-120387895D01*
X136462733Y-120391200D01*
X134679267Y-120391200D01*
X134645710Y-120387895D01*
X134616432Y-120379014D01*
X134589455Y-120364594D01*
X134565810Y-120345190D01*
X134546406Y-120321545D01*
X134531986Y-120294568D01*
X134523105Y-120265290D01*
X134519800Y-120231733D01*
X134519800Y-119798267D01*
X134523105Y-119764710D01*
X134531986Y-119735432D01*
X134546406Y-119708455D01*
X134565810Y-119684810D01*
X134589455Y-119665406D01*
X134616432Y-119650986D01*
X134645710Y-119642105D01*
X134679267Y-119638800D01*
X136462733Y-119638800D01*
X136496290Y-119642105D01*
G37*
G36*
X136496290Y-118372105D02*
G01*
X136525568Y-118380986D01*
X136552545Y-118395406D01*
X136576190Y-118414810D01*
X136595594Y-118438455D01*
X136610014Y-118465432D01*
X136618895Y-118494710D01*
X136622200Y-118528267D01*
X136622200Y-118961733D01*
X136618895Y-118995290D01*
X136610014Y-119024568D01*
X136595594Y-119051545D01*
X136576190Y-119075190D01*
X136552545Y-119094594D01*
X136525568Y-119109014D01*
X136496290Y-119117895D01*
X136462733Y-119121200D01*
X134679267Y-119121200D01*
X134645710Y-119117895D01*
X134616432Y-119109014D01*
X134589455Y-119094594D01*
X134565810Y-119075190D01*
X134546406Y-119051545D01*
X134531986Y-119024568D01*
X134523105Y-118995290D01*
X134519800Y-118961733D01*
X134519800Y-118528267D01*
X134523105Y-118494710D01*
X134531986Y-118465432D01*
X134546406Y-118438455D01*
X134565810Y-118414810D01*
X134589455Y-118395406D01*
X134616432Y-118380986D01*
X134645710Y-118372105D01*
X134679267Y-118368800D01*
X136462733Y-118368800D01*
X136496290Y-118372105D01*
G37*
G36*
X96787290Y-118372105D02*
G01*
X96816568Y-118380986D01*
X96843545Y-118395406D01*
X96867190Y-118414810D01*
X96886594Y-118438455D01*
X96901014Y-118465432D01*
X96909895Y-118494710D01*
X96913200Y-118528267D01*
X96913200Y-118961733D01*
X96909895Y-118995290D01*
X96901014Y-119024568D01*
X96886594Y-119051545D01*
X96867190Y-119075190D01*
X96843545Y-119094594D01*
X96816568Y-119109014D01*
X96787290Y-119117895D01*
X96753733Y-119121200D01*
X94870267Y-119121200D01*
X94836710Y-119117895D01*
X94807432Y-119109014D01*
X94780455Y-119094594D01*
X94756810Y-119075190D01*
X94737406Y-119051545D01*
X94722986Y-119024568D01*
X94714105Y-118995290D01*
X94710800Y-118961733D01*
X94710800Y-118528267D01*
X94714105Y-118494710D01*
X94722986Y-118465432D01*
X94737406Y-118438455D01*
X94756810Y-118414810D01*
X94780455Y-118395406D01*
X94807432Y-118380986D01*
X94836710Y-118372105D01*
X94870267Y-118368800D01*
X96753733Y-118368800D01*
X96787290Y-118372105D01*
G37*
G36*
X131546290Y-118372105D02*
G01*
X131575568Y-118380986D01*
X131602545Y-118395406D01*
X131626190Y-118414810D01*
X131645594Y-118438455D01*
X131660014Y-118465432D01*
X131668895Y-118494710D01*
X131672200Y-118528267D01*
X131672200Y-118961733D01*
X131668895Y-118995290D01*
X131660014Y-119024568D01*
X131645594Y-119051545D01*
X131626190Y-119075190D01*
X131602545Y-119094594D01*
X131575568Y-119109014D01*
X131546290Y-119117895D01*
X131512733Y-119121200D01*
X129729267Y-119121200D01*
X129695710Y-119117895D01*
X129666432Y-119109014D01*
X129639455Y-119094594D01*
X129615810Y-119075190D01*
X129596406Y-119051545D01*
X129581986Y-119024568D01*
X129573105Y-118995290D01*
X129569800Y-118961733D01*
X129569800Y-118528267D01*
X129573105Y-118494710D01*
X129581986Y-118465432D01*
X129596406Y-118438455D01*
X129615810Y-118414810D01*
X129639455Y-118395406D01*
X129666432Y-118380986D01*
X129695710Y-118372105D01*
X129729267Y-118368800D01*
X131512733Y-118368800D01*
X131546290Y-118372105D01*
G37*
G36*
X126011290Y-118372105D02*
G01*
X126040568Y-118380986D01*
X126067545Y-118395406D01*
X126091190Y-118414810D01*
X126110594Y-118438455D01*
X126125014Y-118465432D01*
X126133895Y-118494710D01*
X126137200Y-118528267D01*
X126137200Y-118961733D01*
X126133895Y-118995290D01*
X126125014Y-119024568D01*
X126110594Y-119051545D01*
X126091190Y-119075190D01*
X126067545Y-119094594D01*
X126040568Y-119109014D01*
X126011290Y-119117895D01*
X125977733Y-119121200D01*
X124669267Y-119121200D01*
X124635710Y-119117895D01*
X124606432Y-119109014D01*
X124579455Y-119094594D01*
X124555810Y-119075190D01*
X124536406Y-119051545D01*
X124521986Y-119024568D01*
X124513105Y-118995290D01*
X124509800Y-118961733D01*
X124509800Y-118528267D01*
X124513105Y-118494710D01*
X124521986Y-118465432D01*
X124536406Y-118438455D01*
X124555810Y-118414810D01*
X124579455Y-118395406D01*
X124606432Y-118380986D01*
X124635710Y-118372105D01*
X124669267Y-118368800D01*
X125977733Y-118368800D01*
X126011290Y-118372105D01*
G37*
G36*
X92112290Y-118372105D02*
G01*
X92141568Y-118380986D01*
X92168545Y-118395406D01*
X92192190Y-118414810D01*
X92211594Y-118438455D01*
X92226014Y-118465432D01*
X92234895Y-118494710D01*
X92238200Y-118528267D01*
X92238200Y-118961733D01*
X92234895Y-118995290D01*
X92226014Y-119024568D01*
X92211594Y-119051545D01*
X92192190Y-119075190D01*
X92168545Y-119094594D01*
X92141568Y-119109014D01*
X92112290Y-119117895D01*
X92078733Y-119121200D01*
X90195267Y-119121200D01*
X90161710Y-119117895D01*
X90132432Y-119109014D01*
X90105455Y-119094594D01*
X90081810Y-119075190D01*
X90062406Y-119051545D01*
X90047986Y-119024568D01*
X90039105Y-118995290D01*
X90035800Y-118961733D01*
X90035800Y-118528267D01*
X90039105Y-118494710D01*
X90047986Y-118465432D01*
X90062406Y-118438455D01*
X90081810Y-118414810D01*
X90105455Y-118395406D01*
X90132432Y-118380986D01*
X90161710Y-118372105D01*
X90195267Y-118368800D01*
X92078733Y-118368800D01*
X92112290Y-118372105D01*
G37*
G36*
X114886290Y-118372105D02*
G01*
X114915568Y-118380986D01*
X114942545Y-118395406D01*
X114966190Y-118414810D01*
X114985594Y-118438455D01*
X115000014Y-118465432D01*
X115008895Y-118494710D01*
X115012200Y-118528267D01*
X115012200Y-118961733D01*
X115008895Y-118995290D01*
X115000014Y-119024568D01*
X114985594Y-119051545D01*
X114966190Y-119075190D01*
X114942545Y-119094594D01*
X114915568Y-119109014D01*
X114886290Y-119117895D01*
X114852733Y-119121200D01*
X113544267Y-119121200D01*
X113510710Y-119117895D01*
X113481432Y-119109014D01*
X113454455Y-119094594D01*
X113430810Y-119075190D01*
X113411406Y-119051545D01*
X113396986Y-119024568D01*
X113388105Y-118995290D01*
X113384800Y-118961733D01*
X113384800Y-118528267D01*
X113388105Y-118494710D01*
X113396986Y-118465432D01*
X113411406Y-118438455D01*
X113430810Y-118414810D01*
X113454455Y-118395406D01*
X113481432Y-118380986D01*
X113510710Y-118372105D01*
X113544267Y-118368800D01*
X114852733Y-118368800D01*
X114886290Y-118372105D01*
G37*
G36*
X109887290Y-118372105D02*
G01*
X109916568Y-118380986D01*
X109943545Y-118395406D01*
X109967190Y-118414810D01*
X109986594Y-118438455D01*
X110001014Y-118465432D01*
X110009895Y-118494710D01*
X110013200Y-118528267D01*
X110013200Y-118961733D01*
X110009895Y-118995290D01*
X110001014Y-119024568D01*
X109986594Y-119051545D01*
X109967190Y-119075190D01*
X109943545Y-119094594D01*
X109916568Y-119109014D01*
X109887290Y-119117895D01*
X109853733Y-119121200D01*
X107970267Y-119121200D01*
X107936710Y-119117895D01*
X107907432Y-119109014D01*
X107880455Y-119094594D01*
X107856810Y-119075190D01*
X107837406Y-119051545D01*
X107822986Y-119024568D01*
X107814105Y-118995290D01*
X107810800Y-118961733D01*
X107810800Y-118528267D01*
X107814105Y-118494710D01*
X107822986Y-118465432D01*
X107837406Y-118438455D01*
X107856810Y-118414810D01*
X107880455Y-118395406D01*
X107907432Y-118380986D01*
X107936710Y-118372105D01*
X107970267Y-118368800D01*
X109853733Y-118368800D01*
X109887290Y-118372105D01*
G37*
G36*
X82812290Y-118372105D02*
G01*
X82841568Y-118380986D01*
X82868545Y-118395406D01*
X82892190Y-118414810D01*
X82911594Y-118438455D01*
X82926014Y-118465432D01*
X82934895Y-118494710D01*
X82938200Y-118528267D01*
X82938200Y-118961733D01*
X82934895Y-118995290D01*
X82926014Y-119024568D01*
X82911594Y-119051545D01*
X82892190Y-119075190D01*
X82868545Y-119094594D01*
X82841568Y-119109014D01*
X82812290Y-119117895D01*
X82778733Y-119121200D01*
X80895267Y-119121200D01*
X80861710Y-119117895D01*
X80832432Y-119109014D01*
X80805455Y-119094594D01*
X80781810Y-119075190D01*
X80762406Y-119051545D01*
X80747986Y-119024568D01*
X80739105Y-118995290D01*
X80735800Y-118961733D01*
X80735800Y-118528267D01*
X80739105Y-118494710D01*
X80747986Y-118465432D01*
X80762406Y-118438455D01*
X80781810Y-118414810D01*
X80805455Y-118395406D01*
X80832432Y-118380986D01*
X80861710Y-118372105D01*
X80895267Y-118368800D01*
X82778733Y-118368800D01*
X82812290Y-118372105D01*
G37*
G36*
X79426737Y-117719267D02*
G01*
X79477119Y-117734550D01*
X79523546Y-117759366D01*
X79564239Y-117792761D01*
X79597634Y-117833454D01*
X79622450Y-117879881D01*
X79637733Y-117930263D01*
X79643200Y-117985767D01*
X79643200Y-118644233D01*
X79637733Y-118699737D01*
X79622450Y-118750119D01*
X79597634Y-118796546D01*
X79564239Y-118837239D01*
X79523546Y-118870634D01*
X79477119Y-118895450D01*
X79426737Y-118910733D01*
X79371233Y-118916200D01*
X78362767Y-118916200D01*
X78307263Y-118910733D01*
X78256881Y-118895450D01*
X78210454Y-118870634D01*
X78169761Y-118837239D01*
X78136366Y-118796546D01*
X78111550Y-118750119D01*
X78096267Y-118699737D01*
X78090800Y-118644233D01*
X78090800Y-117985767D01*
X78096267Y-117930263D01*
X78111550Y-117879881D01*
X78136366Y-117833454D01*
X78169761Y-117792761D01*
X78210454Y-117759366D01*
X78256881Y-117734550D01*
X78307263Y-117719267D01*
X78362767Y-117713800D01*
X79371233Y-117713800D01*
X79426737Y-117719267D01*
G37*
G36*
X70671914Y-116694157D02*
G01*
X70867777Y-116775286D01*
X71044033Y-116893057D01*
X71193943Y-117042967D01*
X71311714Y-117219223D01*
X71392843Y-117415086D01*
X71434200Y-117623004D01*
X71434200Y-117834996D01*
X71392843Y-118042914D01*
X71311714Y-118238777D01*
X71193943Y-118415033D01*
X71044033Y-118564943D01*
X70867777Y-118682714D01*
X70671914Y-118763843D01*
X70463996Y-118805200D01*
X70252004Y-118805200D01*
X70044086Y-118763843D01*
X69848223Y-118682714D01*
X69671967Y-118564943D01*
X69522057Y-118415033D01*
X69404286Y-118238777D01*
X69323157Y-118042914D01*
X69281800Y-117834996D01*
X69281800Y-117623004D01*
X69323157Y-117415086D01*
X69404286Y-117219223D01*
X69522057Y-117042967D01*
X69671967Y-116893057D01*
X69848223Y-116775286D01*
X70044086Y-116694157D01*
X70252004Y-116652800D01*
X70463996Y-116652800D01*
X70671914Y-116694157D01*
G37*
G36*
X136496290Y-117102105D02*
G01*
X136525568Y-117110986D01*
X136552545Y-117125406D01*
X136576190Y-117144810D01*
X136595594Y-117168455D01*
X136610014Y-117195432D01*
X136618895Y-117224710D01*
X136622200Y-117258267D01*
X136622200Y-117691733D01*
X136618895Y-117725290D01*
X136610014Y-117754568D01*
X136595594Y-117781545D01*
X136576190Y-117805190D01*
X136552545Y-117824594D01*
X136525568Y-117839014D01*
X136496290Y-117847895D01*
X136462733Y-117851200D01*
X134679267Y-117851200D01*
X134645710Y-117847895D01*
X134616432Y-117839014D01*
X134589455Y-117824594D01*
X134565810Y-117805190D01*
X134546406Y-117781545D01*
X134531986Y-117754568D01*
X134523105Y-117725290D01*
X134519800Y-117691733D01*
X134519800Y-117258267D01*
X134523105Y-117224710D01*
X134531986Y-117195432D01*
X134546406Y-117168455D01*
X134565810Y-117144810D01*
X134589455Y-117125406D01*
X134616432Y-117110986D01*
X134645710Y-117102105D01*
X134679267Y-117098800D01*
X136462733Y-117098800D01*
X136496290Y-117102105D01*
G37*
G36*
X131546290Y-117102105D02*
G01*
X131575568Y-117110986D01*
X131602545Y-117125406D01*
X131626190Y-117144810D01*
X131645594Y-117168455D01*
X131660014Y-117195432D01*
X131668895Y-117224710D01*
X131672200Y-117258267D01*
X131672200Y-117691733D01*
X131668895Y-117725290D01*
X131660014Y-117754568D01*
X131645594Y-117781545D01*
X131626190Y-117805190D01*
X131602545Y-117824594D01*
X131575568Y-117839014D01*
X131546290Y-117847895D01*
X131512733Y-117851200D01*
X129729267Y-117851200D01*
X129695710Y-117847895D01*
X129666432Y-117839014D01*
X129639455Y-117824594D01*
X129615810Y-117805190D01*
X129596406Y-117781545D01*
X129581986Y-117754568D01*
X129573105Y-117725290D01*
X129569800Y-117691733D01*
X129569800Y-117258267D01*
X129573105Y-117224710D01*
X129581986Y-117195432D01*
X129596406Y-117168455D01*
X129615810Y-117144810D01*
X129639455Y-117125406D01*
X129666432Y-117110986D01*
X129695710Y-117102105D01*
X129729267Y-117098800D01*
X131512733Y-117098800D01*
X131546290Y-117102105D01*
G37*
G36*
X126011290Y-117102105D02*
G01*
X126040568Y-117110986D01*
X126067545Y-117125406D01*
X126091190Y-117144810D01*
X126110594Y-117168455D01*
X126125014Y-117195432D01*
X126133895Y-117224710D01*
X126137200Y-117258267D01*
X126137200Y-117691733D01*
X126133895Y-117725290D01*
X126125014Y-117754568D01*
X126110594Y-117781545D01*
X126091190Y-117805190D01*
X126067545Y-117824594D01*
X126040568Y-117839014D01*
X126011290Y-117847895D01*
X125977733Y-117851200D01*
X124669267Y-117851200D01*
X124635710Y-117847895D01*
X124606432Y-117839014D01*
X124579455Y-117824594D01*
X124555810Y-117805190D01*
X124536406Y-117781545D01*
X124521986Y-117754568D01*
X124513105Y-117725290D01*
X124509800Y-117691733D01*
X124509800Y-117258267D01*
X124513105Y-117224710D01*
X124521986Y-117195432D01*
X124536406Y-117168455D01*
X124555810Y-117144810D01*
X124579455Y-117125406D01*
X124606432Y-117110986D01*
X124635710Y-117102105D01*
X124669267Y-117098800D01*
X125977733Y-117098800D01*
X126011290Y-117102105D01*
G37*
G36*
X82812290Y-117102105D02*
G01*
X82841568Y-117110986D01*
X82868545Y-117125406D01*
X82892190Y-117144810D01*
X82911594Y-117168455D01*
X82926014Y-117195432D01*
X82934895Y-117224710D01*
X82938200Y-117258267D01*
X82938200Y-117691733D01*
X82934895Y-117725290D01*
X82926014Y-117754568D01*
X82911594Y-117781545D01*
X82892190Y-117805190D01*
X82868545Y-117824594D01*
X82841568Y-117839014D01*
X82812290Y-117847895D01*
X82778733Y-117851200D01*
X80895267Y-117851200D01*
X80861710Y-117847895D01*
X80832432Y-117839014D01*
X80805455Y-117824594D01*
X80781810Y-117805190D01*
X80762406Y-117781545D01*
X80747986Y-117754568D01*
X80739105Y-117725290D01*
X80735800Y-117691733D01*
X80735800Y-117258267D01*
X80739105Y-117224710D01*
X80747986Y-117195432D01*
X80762406Y-117168455D01*
X80781810Y-117144810D01*
X80805455Y-117125406D01*
X80832432Y-117110986D01*
X80861710Y-117102105D01*
X80895267Y-117098800D01*
X82778733Y-117098800D01*
X82812290Y-117102105D01*
G37*
G36*
X114886290Y-117102105D02*
G01*
X114915568Y-117110986D01*
X114942545Y-117125406D01*
X114966190Y-117144810D01*
X114985594Y-117168455D01*
X115000014Y-117195432D01*
X115008895Y-117224710D01*
X115012200Y-117258267D01*
X115012200Y-117691733D01*
X115008895Y-117725290D01*
X115000014Y-117754568D01*
X114985594Y-117781545D01*
X114966190Y-117805190D01*
X114942545Y-117824594D01*
X114915568Y-117839014D01*
X114886290Y-117847895D01*
X114852733Y-117851200D01*
X113544267Y-117851200D01*
X113510710Y-117847895D01*
X113481432Y-117839014D01*
X113454455Y-117824594D01*
X113430810Y-117805190D01*
X113411406Y-117781545D01*
X113396986Y-117754568D01*
X113388105Y-117725290D01*
X113384800Y-117691733D01*
X113384800Y-117258267D01*
X113388105Y-117224710D01*
X113396986Y-117195432D01*
X113411406Y-117168455D01*
X113430810Y-117144810D01*
X113454455Y-117125406D01*
X113481432Y-117110986D01*
X113510710Y-117102105D01*
X113544267Y-117098800D01*
X114852733Y-117098800D01*
X114886290Y-117102105D01*
G37*
G36*
X109887290Y-117102105D02*
G01*
X109916568Y-117110986D01*
X109943545Y-117125406D01*
X109967190Y-117144810D01*
X109986594Y-117168455D01*
X110001014Y-117195432D01*
X110009895Y-117224710D01*
X110013200Y-117258267D01*
X110013200Y-117691733D01*
X110009895Y-117725290D01*
X110001014Y-117754568D01*
X109986594Y-117781545D01*
X109967190Y-117805190D01*
X109943545Y-117824594D01*
X109916568Y-117839014D01*
X109887290Y-117847895D01*
X109853733Y-117851200D01*
X107970267Y-117851200D01*
X107936710Y-117847895D01*
X107907432Y-117839014D01*
X107880455Y-117824594D01*
X107856810Y-117805190D01*
X107837406Y-117781545D01*
X107822986Y-117754568D01*
X107814105Y-117725290D01*
X107810800Y-117691733D01*
X107810800Y-117258267D01*
X107814105Y-117224710D01*
X107822986Y-117195432D01*
X107837406Y-117168455D01*
X107856810Y-117144810D01*
X107880455Y-117125406D01*
X107907432Y-117110986D01*
X107936710Y-117102105D01*
X107970267Y-117098800D01*
X109853733Y-117098800D01*
X109887290Y-117102105D01*
G37*
G36*
X96787290Y-117102105D02*
G01*
X96816568Y-117110986D01*
X96843545Y-117125406D01*
X96867190Y-117144810D01*
X96886594Y-117168455D01*
X96901014Y-117195432D01*
X96909895Y-117224710D01*
X96913200Y-117258267D01*
X96913200Y-117691733D01*
X96909895Y-117725290D01*
X96901014Y-117754568D01*
X96886594Y-117781545D01*
X96867190Y-117805190D01*
X96843545Y-117824594D01*
X96816568Y-117839014D01*
X96787290Y-117847895D01*
X96753733Y-117851200D01*
X94870267Y-117851200D01*
X94836710Y-117847895D01*
X94807432Y-117839014D01*
X94780455Y-117824594D01*
X94756810Y-117805190D01*
X94737406Y-117781545D01*
X94722986Y-117754568D01*
X94714105Y-117725290D01*
X94710800Y-117691733D01*
X94710800Y-117258267D01*
X94714105Y-117224710D01*
X94722986Y-117195432D01*
X94737406Y-117168455D01*
X94756810Y-117144810D01*
X94780455Y-117125406D01*
X94807432Y-117110986D01*
X94836710Y-117102105D01*
X94870267Y-117098800D01*
X96753733Y-117098800D01*
X96787290Y-117102105D01*
G37*
G36*
X92112290Y-117102105D02*
G01*
X92141568Y-117110986D01*
X92168545Y-117125406D01*
X92192190Y-117144810D01*
X92211594Y-117168455D01*
X92226014Y-117195432D01*
X92234895Y-117224710D01*
X92238200Y-117258267D01*
X92238200Y-117691733D01*
X92234895Y-117725290D01*
X92226014Y-117754568D01*
X92211594Y-117781545D01*
X92192190Y-117805190D01*
X92168545Y-117824594D01*
X92141568Y-117839014D01*
X92112290Y-117847895D01*
X92078733Y-117851200D01*
X90195267Y-117851200D01*
X90161710Y-117847895D01*
X90132432Y-117839014D01*
X90105455Y-117824594D01*
X90081810Y-117805190D01*
X90062406Y-117781545D01*
X90047986Y-117754568D01*
X90039105Y-117725290D01*
X90035800Y-117691733D01*
X90035800Y-117258267D01*
X90039105Y-117224710D01*
X90047986Y-117195432D01*
X90062406Y-117168455D01*
X90081810Y-117144810D01*
X90105455Y-117125406D01*
X90132432Y-117110986D01*
X90161710Y-117102105D01*
X90195267Y-117098800D01*
X92078733Y-117098800D01*
X92112290Y-117102105D01*
G37*
G36*
X114886290Y-115832105D02*
G01*
X114915568Y-115840986D01*
X114942545Y-115855406D01*
X114966190Y-115874810D01*
X114985594Y-115898455D01*
X115000014Y-115925432D01*
X115008895Y-115954710D01*
X115012200Y-115988267D01*
X115012200Y-116421733D01*
X115008895Y-116455290D01*
X115000014Y-116484568D01*
X114985594Y-116511545D01*
X114966190Y-116535190D01*
X114942545Y-116554594D01*
X114915568Y-116569014D01*
X114886290Y-116577895D01*
X114852733Y-116581200D01*
X113544267Y-116581200D01*
X113510710Y-116577895D01*
X113481432Y-116569014D01*
X113454455Y-116554594D01*
X113430810Y-116535190D01*
X113411406Y-116511545D01*
X113396986Y-116484568D01*
X113388105Y-116455290D01*
X113384800Y-116421733D01*
X113384800Y-115988267D01*
X113388105Y-115954710D01*
X113396986Y-115925432D01*
X113411406Y-115898455D01*
X113430810Y-115874810D01*
X113454455Y-115855406D01*
X113481432Y-115840986D01*
X113510710Y-115832105D01*
X113544267Y-115828800D01*
X114852733Y-115828800D01*
X114886290Y-115832105D01*
G37*
G36*
X131546290Y-115832105D02*
G01*
X131575568Y-115840986D01*
X131602545Y-115855406D01*
X131626190Y-115874810D01*
X131645594Y-115898455D01*
X131660014Y-115925432D01*
X131668895Y-115954710D01*
X131672200Y-115988267D01*
X131672200Y-116421733D01*
X131668895Y-116455290D01*
X131660014Y-116484568D01*
X131645594Y-116511545D01*
X131626190Y-116535190D01*
X131602545Y-116554594D01*
X131575568Y-116569014D01*
X131546290Y-116577895D01*
X131512733Y-116581200D01*
X129729267Y-116581200D01*
X129695710Y-116577895D01*
X129666432Y-116569014D01*
X129639455Y-116554594D01*
X129615810Y-116535190D01*
X129596406Y-116511545D01*
X129581986Y-116484568D01*
X129573105Y-116455290D01*
X129569800Y-116421733D01*
X129569800Y-115988267D01*
X129573105Y-115954710D01*
X129581986Y-115925432D01*
X129596406Y-115898455D01*
X129615810Y-115874810D01*
X129639455Y-115855406D01*
X129666432Y-115840986D01*
X129695710Y-115832105D01*
X129729267Y-115828800D01*
X131512733Y-115828800D01*
X131546290Y-115832105D01*
G37*
G36*
X136496290Y-115832105D02*
G01*
X136525568Y-115840986D01*
X136552545Y-115855406D01*
X136576190Y-115874810D01*
X136595594Y-115898455D01*
X136610014Y-115925432D01*
X136618895Y-115954710D01*
X136622200Y-115988267D01*
X136622200Y-116421733D01*
X136618895Y-116455290D01*
X136610014Y-116484568D01*
X136595594Y-116511545D01*
X136576190Y-116535190D01*
X136552545Y-116554594D01*
X136525568Y-116569014D01*
X136496290Y-116577895D01*
X136462733Y-116581200D01*
X134679267Y-116581200D01*
X134645710Y-116577895D01*
X134616432Y-116569014D01*
X134589455Y-116554594D01*
X134565810Y-116535190D01*
X134546406Y-116511545D01*
X134531986Y-116484568D01*
X134523105Y-116455290D01*
X134519800Y-116421733D01*
X134519800Y-115988267D01*
X134523105Y-115954710D01*
X134531986Y-115925432D01*
X134546406Y-115898455D01*
X134565810Y-115874810D01*
X134589455Y-115855406D01*
X134616432Y-115840986D01*
X134645710Y-115832105D01*
X134679267Y-115828800D01*
X136462733Y-115828800D01*
X136496290Y-115832105D01*
G37*
G36*
X96787290Y-115832105D02*
G01*
X96816568Y-115840986D01*
X96843545Y-115855406D01*
X96867190Y-115874810D01*
X96886594Y-115898455D01*
X96901014Y-115925432D01*
X96909895Y-115954710D01*
X96913200Y-115988267D01*
X96913200Y-116421733D01*
X96909895Y-116455290D01*
X96901014Y-116484568D01*
X96886594Y-116511545D01*
X96867190Y-116535190D01*
X96843545Y-116554594D01*
X96816568Y-116569014D01*
X96787290Y-116577895D01*
X96753733Y-116581200D01*
X94870267Y-116581200D01*
X94836710Y-116577895D01*
X94807432Y-116569014D01*
X94780455Y-116554594D01*
X94756810Y-116535190D01*
X94737406Y-116511545D01*
X94722986Y-116484568D01*
X94714105Y-116455290D01*
X94710800Y-116421733D01*
X94710800Y-115988267D01*
X94714105Y-115954710D01*
X94722986Y-115925432D01*
X94737406Y-115898455D01*
X94756810Y-115874810D01*
X94780455Y-115855406D01*
X94807432Y-115840986D01*
X94836710Y-115832105D01*
X94870267Y-115828800D01*
X96753733Y-115828800D01*
X96787290Y-115832105D01*
G37*
G36*
X109887290Y-115832105D02*
G01*
X109916568Y-115840986D01*
X109943545Y-115855406D01*
X109967190Y-115874810D01*
X109986594Y-115898455D01*
X110001014Y-115925432D01*
X110009895Y-115954710D01*
X110013200Y-115988267D01*
X110013200Y-116421733D01*
X110009895Y-116455290D01*
X110001014Y-116484568D01*
X109986594Y-116511545D01*
X109967190Y-116535190D01*
X109943545Y-116554594D01*
X109916568Y-116569014D01*
X109887290Y-116577895D01*
X109853733Y-116581200D01*
X107970267Y-116581200D01*
X107936710Y-116577895D01*
X107907432Y-116569014D01*
X107880455Y-116554594D01*
X107856810Y-116535190D01*
X107837406Y-116511545D01*
X107822986Y-116484568D01*
X107814105Y-116455290D01*
X107810800Y-116421733D01*
X107810800Y-115988267D01*
X107814105Y-115954710D01*
X107822986Y-115925432D01*
X107837406Y-115898455D01*
X107856810Y-115874810D01*
X107880455Y-115855406D01*
X107907432Y-115840986D01*
X107936710Y-115832105D01*
X107970267Y-115828800D01*
X109853733Y-115828800D01*
X109887290Y-115832105D01*
G37*
G36*
X82812290Y-115832105D02*
G01*
X82841568Y-115840986D01*
X82868545Y-115855406D01*
X82892190Y-115874810D01*
X82911594Y-115898455D01*
X82926014Y-115925432D01*
X82934895Y-115954710D01*
X82938200Y-115988267D01*
X82938200Y-116421733D01*
X82934895Y-116455290D01*
X82926014Y-116484568D01*
X82911594Y-116511545D01*
X82892190Y-116535190D01*
X82868545Y-116554594D01*
X82841568Y-116569014D01*
X82812290Y-116577895D01*
X82778733Y-116581200D01*
X80895267Y-116581200D01*
X80861710Y-116577895D01*
X80832432Y-116569014D01*
X80805455Y-116554594D01*
X80781810Y-116535190D01*
X80762406Y-116511545D01*
X80747986Y-116484568D01*
X80739105Y-116455290D01*
X80735800Y-116421733D01*
X80735800Y-115988267D01*
X80739105Y-115954710D01*
X80747986Y-115925432D01*
X80762406Y-115898455D01*
X80781810Y-115874810D01*
X80805455Y-115855406D01*
X80832432Y-115840986D01*
X80861710Y-115832105D01*
X80895267Y-115828800D01*
X82778733Y-115828800D01*
X82812290Y-115832105D01*
G37*
G36*
X92112290Y-115832105D02*
G01*
X92141568Y-115840986D01*
X92168545Y-115855406D01*
X92192190Y-115874810D01*
X92211594Y-115898455D01*
X92226014Y-115925432D01*
X92234895Y-115954710D01*
X92238200Y-115988267D01*
X92238200Y-116421733D01*
X92234895Y-116455290D01*
X92226014Y-116484568D01*
X92211594Y-116511545D01*
X92192190Y-116535190D01*
X92168545Y-116554594D01*
X92141568Y-116569014D01*
X92112290Y-116577895D01*
X92078733Y-116581200D01*
X90195267Y-116581200D01*
X90161710Y-116577895D01*
X90132432Y-116569014D01*
X90105455Y-116554594D01*
X90081810Y-116535190D01*
X90062406Y-116511545D01*
X90047986Y-116484568D01*
X90039105Y-116455290D01*
X90035800Y-116421733D01*
X90035800Y-115988267D01*
X90039105Y-115954710D01*
X90047986Y-115925432D01*
X90062406Y-115898455D01*
X90081810Y-115874810D01*
X90105455Y-115855406D01*
X90132432Y-115840986D01*
X90161710Y-115832105D01*
X90195267Y-115828800D01*
X92078733Y-115828800D01*
X92112290Y-115832105D01*
G37*
G36*
X126011290Y-115832105D02*
G01*
X126040568Y-115840986D01*
X126067545Y-115855406D01*
X126091190Y-115874810D01*
X126110594Y-115898455D01*
X126125014Y-115925432D01*
X126133895Y-115954710D01*
X126137200Y-115988267D01*
X126137200Y-116421733D01*
X126133895Y-116455290D01*
X126125014Y-116484568D01*
X126110594Y-116511545D01*
X126091190Y-116535190D01*
X126067545Y-116554594D01*
X126040568Y-116569014D01*
X126011290Y-116577895D01*
X125977733Y-116581200D01*
X124669267Y-116581200D01*
X124635710Y-116577895D01*
X124606432Y-116569014D01*
X124579455Y-116554594D01*
X124555810Y-116535190D01*
X124536406Y-116511545D01*
X124521986Y-116484568D01*
X124513105Y-116455290D01*
X124509800Y-116421733D01*
X124509800Y-115988267D01*
X124513105Y-115954710D01*
X124521986Y-115925432D01*
X124536406Y-115898455D01*
X124555810Y-115874810D01*
X124579455Y-115855406D01*
X124606432Y-115840986D01*
X124635710Y-115832105D01*
X124669267Y-115828800D01*
X125977733Y-115828800D01*
X126011290Y-115832105D01*
G37*
G36*
X70649692Y-114227429D02*
G01*
X70831679Y-114302811D01*
X70995458Y-114412245D01*
X70995460Y-114412247D01*
X70995463Y-114412249D01*
X71134751Y-114551537D01*
X71134753Y-114551540D01*
X71134755Y-114551542D01*
X71244189Y-114715321D01*
X71319571Y-114897308D01*
X71358000Y-115090509D01*
X71358000Y-115287491D01*
X71319571Y-115480692D01*
X71244189Y-115662679D01*
X71134755Y-115826458D01*
X71134753Y-115826460D01*
X71134751Y-115826463D01*
X70995463Y-115965751D01*
X70995460Y-115965753D01*
X70995458Y-115965755D01*
X70831679Y-116075189D01*
X70649692Y-116150571D01*
X70456491Y-116189000D01*
X70259509Y-116189000D01*
X70066308Y-116150571D01*
X69884321Y-116075189D01*
X69720542Y-115965755D01*
X69720540Y-115965753D01*
X69720537Y-115965751D01*
X69581249Y-115826463D01*
X69581247Y-115826460D01*
X69581245Y-115826458D01*
X69471811Y-115662679D01*
X69396429Y-115480692D01*
X69358000Y-115287491D01*
X69358000Y-115090509D01*
X69396429Y-114897308D01*
X69471811Y-114715321D01*
X69581245Y-114551542D01*
X69581247Y-114551540D01*
X69581249Y-114551537D01*
X69720537Y-114412249D01*
X69720540Y-114412247D01*
X69720542Y-114412245D01*
X69884321Y-114302811D01*
X70066308Y-114227429D01*
X70259509Y-114189000D01*
X70456491Y-114189000D01*
X70649692Y-114227429D01*
G37*
G36*
X131546290Y-114562105D02*
G01*
X131575568Y-114570986D01*
X131602545Y-114585406D01*
X131626190Y-114604810D01*
X131645594Y-114628455D01*
X131660014Y-114655432D01*
X131668895Y-114684710D01*
X131672200Y-114718267D01*
X131672200Y-115151733D01*
X131668895Y-115185290D01*
X131660014Y-115214568D01*
X131645594Y-115241545D01*
X131626190Y-115265190D01*
X131602545Y-115284594D01*
X131575568Y-115299014D01*
X131546290Y-115307895D01*
X131512733Y-115311200D01*
X129729267Y-115311200D01*
X129695710Y-115307895D01*
X129666432Y-115299014D01*
X129639455Y-115284594D01*
X129615810Y-115265190D01*
X129596406Y-115241545D01*
X129581986Y-115214568D01*
X129573105Y-115185290D01*
X129569800Y-115151733D01*
X129569800Y-114718267D01*
X129573105Y-114684710D01*
X129581986Y-114655432D01*
X129596406Y-114628455D01*
X129615810Y-114604810D01*
X129639455Y-114585406D01*
X129666432Y-114570986D01*
X129695710Y-114562105D01*
X129729267Y-114558800D01*
X131512733Y-114558800D01*
X131546290Y-114562105D01*
G37*
G36*
X96787290Y-114562105D02*
G01*
X96816568Y-114570986D01*
X96843545Y-114585406D01*
X96867190Y-114604810D01*
X96886594Y-114628455D01*
X96901014Y-114655432D01*
X96909895Y-114684710D01*
X96913200Y-114718267D01*
X96913200Y-115151733D01*
X96909895Y-115185290D01*
X96901014Y-115214568D01*
X96886594Y-115241545D01*
X96867190Y-115265190D01*
X96843545Y-115284594D01*
X96816568Y-115299014D01*
X96787290Y-115307895D01*
X96753733Y-115311200D01*
X94870267Y-115311200D01*
X94836710Y-115307895D01*
X94807432Y-115299014D01*
X94780455Y-115284594D01*
X94756810Y-115265190D01*
X94737406Y-115241545D01*
X94722986Y-115214568D01*
X94714105Y-115185290D01*
X94710800Y-115151733D01*
X94710800Y-114718267D01*
X94714105Y-114684710D01*
X94722986Y-114655432D01*
X94737406Y-114628455D01*
X94756810Y-114604810D01*
X94780455Y-114585406D01*
X94807432Y-114570986D01*
X94836710Y-114562105D01*
X94870267Y-114558800D01*
X96753733Y-114558800D01*
X96787290Y-114562105D01*
G37*
G36*
X126011290Y-114562105D02*
G01*
X126040568Y-114570986D01*
X126067545Y-114585406D01*
X126091190Y-114604810D01*
X126110594Y-114628455D01*
X126125014Y-114655432D01*
X126133895Y-114684710D01*
X126137200Y-114718267D01*
X126137200Y-115151733D01*
X126133895Y-115185290D01*
X126125014Y-115214568D01*
X126110594Y-115241545D01*
X126091190Y-115265190D01*
X126067545Y-115284594D01*
X126040568Y-115299014D01*
X126011290Y-115307895D01*
X125977733Y-115311200D01*
X124669267Y-115311200D01*
X124635710Y-115307895D01*
X124606432Y-115299014D01*
X124579455Y-115284594D01*
X124555810Y-115265190D01*
X124536406Y-115241545D01*
X124521986Y-115214568D01*
X124513105Y-115185290D01*
X124509800Y-115151733D01*
X124509800Y-114718267D01*
X124513105Y-114684710D01*
X124521986Y-114655432D01*
X124536406Y-114628455D01*
X124555810Y-114604810D01*
X124579455Y-114585406D01*
X124606432Y-114570986D01*
X124635710Y-114562105D01*
X124669267Y-114558800D01*
X125977733Y-114558800D01*
X126011290Y-114562105D01*
G37*
G36*
X114886290Y-114562105D02*
G01*
X114915568Y-114570986D01*
X114942545Y-114585406D01*
X114966190Y-114604810D01*
X114985594Y-114628455D01*
X115000014Y-114655432D01*
X115008895Y-114684710D01*
X115012200Y-114718267D01*
X115012200Y-115151733D01*
X115008895Y-115185290D01*
X115000014Y-115214568D01*
X114985594Y-115241545D01*
X114966190Y-115265190D01*
X114942545Y-115284594D01*
X114915568Y-115299014D01*
X114886290Y-115307895D01*
X114852733Y-115311200D01*
X113544267Y-115311200D01*
X113510710Y-115307895D01*
X113481432Y-115299014D01*
X113454455Y-115284594D01*
X113430810Y-115265190D01*
X113411406Y-115241545D01*
X113396986Y-115214568D01*
X113388105Y-115185290D01*
X113384800Y-115151733D01*
X113384800Y-114718267D01*
X113388105Y-114684710D01*
X113396986Y-114655432D01*
X113411406Y-114628455D01*
X113430810Y-114604810D01*
X113454455Y-114585406D01*
X113481432Y-114570986D01*
X113510710Y-114562105D01*
X113544267Y-114558800D01*
X114852733Y-114558800D01*
X114886290Y-114562105D01*
G37*
G36*
X109887290Y-114562105D02*
G01*
X109916568Y-114570986D01*
X109943545Y-114585406D01*
X109967190Y-114604810D01*
X109986594Y-114628455D01*
X110001014Y-114655432D01*
X110009895Y-114684710D01*
X110013200Y-114718267D01*
X110013200Y-115151733D01*
X110009895Y-115185290D01*
X110001014Y-115214568D01*
X109986594Y-115241545D01*
X109967190Y-115265190D01*
X109943545Y-115284594D01*
X109916568Y-115299014D01*
X109887290Y-115307895D01*
X109853733Y-115311200D01*
X107970267Y-115311200D01*
X107936710Y-115307895D01*
X107907432Y-115299014D01*
X107880455Y-115284594D01*
X107856810Y-115265190D01*
X107837406Y-115241545D01*
X107822986Y-115214568D01*
X107814105Y-115185290D01*
X107810800Y-115151733D01*
X107810800Y-114718267D01*
X107814105Y-114684710D01*
X107822986Y-114655432D01*
X107837406Y-114628455D01*
X107856810Y-114604810D01*
X107880455Y-114585406D01*
X107907432Y-114570986D01*
X107936710Y-114562105D01*
X107970267Y-114558800D01*
X109853733Y-114558800D01*
X109887290Y-114562105D01*
G37*
G36*
X136496290Y-114562105D02*
G01*
X136525568Y-114570986D01*
X136552545Y-114585406D01*
X136576190Y-114604810D01*
X136595594Y-114628455D01*
X136610014Y-114655432D01*
X136618895Y-114684710D01*
X136622200Y-114718267D01*
X136622200Y-115151733D01*
X136618895Y-115185290D01*
X136610014Y-115214568D01*
X136595594Y-115241545D01*
X136576190Y-115265190D01*
X136552545Y-115284594D01*
X136525568Y-115299014D01*
X136496290Y-115307895D01*
X136462733Y-115311200D01*
X134679267Y-115311200D01*
X134645710Y-115307895D01*
X134616432Y-115299014D01*
X134589455Y-115284594D01*
X134565810Y-115265190D01*
X134546406Y-115241545D01*
X134531986Y-115214568D01*
X134523105Y-115185290D01*
X134519800Y-115151733D01*
X134519800Y-114718267D01*
X134523105Y-114684710D01*
X134531986Y-114655432D01*
X134546406Y-114628455D01*
X134565810Y-114604810D01*
X134589455Y-114585406D01*
X134616432Y-114570986D01*
X134645710Y-114562105D01*
X134679267Y-114558800D01*
X136462733Y-114558800D01*
X136496290Y-114562105D01*
G37*
G36*
X82812290Y-114562105D02*
G01*
X82841568Y-114570986D01*
X82868545Y-114585406D01*
X82892190Y-114604810D01*
X82911594Y-114628455D01*
X82926014Y-114655432D01*
X82934895Y-114684710D01*
X82938200Y-114718267D01*
X82938200Y-115151733D01*
X82934895Y-115185290D01*
X82926014Y-115214568D01*
X82911594Y-115241545D01*
X82892190Y-115265190D01*
X82868545Y-115284594D01*
X82841568Y-115299014D01*
X82812290Y-115307895D01*
X82778733Y-115311200D01*
X80895267Y-115311200D01*
X80861710Y-115307895D01*
X80832432Y-115299014D01*
X80805455Y-115284594D01*
X80781810Y-115265190D01*
X80762406Y-115241545D01*
X80747986Y-115214568D01*
X80739105Y-115185290D01*
X80735800Y-115151733D01*
X80735800Y-114718267D01*
X80739105Y-114684710D01*
X80747986Y-114655432D01*
X80762406Y-114628455D01*
X80781810Y-114604810D01*
X80805455Y-114585406D01*
X80832432Y-114570986D01*
X80861710Y-114562105D01*
X80895267Y-114558800D01*
X82778733Y-114558800D01*
X82812290Y-114562105D01*
G37*
G36*
X92112290Y-114562105D02*
G01*
X92141568Y-114570986D01*
X92168545Y-114585406D01*
X92192190Y-114604810D01*
X92211594Y-114628455D01*
X92226014Y-114655432D01*
X92234895Y-114684710D01*
X92238200Y-114718267D01*
X92238200Y-115151733D01*
X92234895Y-115185290D01*
X92226014Y-115214568D01*
X92211594Y-115241545D01*
X92192190Y-115265190D01*
X92168545Y-115284594D01*
X92141568Y-115299014D01*
X92112290Y-115307895D01*
X92078733Y-115311200D01*
X90195267Y-115311200D01*
X90161710Y-115307895D01*
X90132432Y-115299014D01*
X90105455Y-115284594D01*
X90081810Y-115265190D01*
X90062406Y-115241545D01*
X90047986Y-115214568D01*
X90039105Y-115185290D01*
X90035800Y-115151733D01*
X90035800Y-114718267D01*
X90039105Y-114684710D01*
X90047986Y-114655432D01*
X90062406Y-114628455D01*
X90081810Y-114604810D01*
X90105455Y-114585406D01*
X90132432Y-114570986D01*
X90161710Y-114562105D01*
X90195267Y-114558800D01*
X92078733Y-114558800D01*
X92112290Y-114562105D01*
G37*
G36*
X96787290Y-113292105D02*
G01*
X96816568Y-113300986D01*
X96843545Y-113315406D01*
X96867190Y-113334810D01*
X96886594Y-113358455D01*
X96901014Y-113385432D01*
X96909895Y-113414710D01*
X96913200Y-113448267D01*
X96913200Y-113881733D01*
X96909895Y-113915290D01*
X96901014Y-113944568D01*
X96886594Y-113971545D01*
X96867190Y-113995190D01*
X96843545Y-114014594D01*
X96816568Y-114029014D01*
X96787290Y-114037895D01*
X96753733Y-114041200D01*
X94870267Y-114041200D01*
X94836710Y-114037895D01*
X94807432Y-114029014D01*
X94780455Y-114014594D01*
X94756810Y-113995190D01*
X94737406Y-113971545D01*
X94722986Y-113944568D01*
X94714105Y-113915290D01*
X94710800Y-113881733D01*
X94710800Y-113448267D01*
X94714105Y-113414710D01*
X94722986Y-113385432D01*
X94737406Y-113358455D01*
X94756810Y-113334810D01*
X94780455Y-113315406D01*
X94807432Y-113300986D01*
X94836710Y-113292105D01*
X94870267Y-113288800D01*
X96753733Y-113288800D01*
X96787290Y-113292105D01*
G37*
G36*
X109887290Y-113292105D02*
G01*
X109916568Y-113300986D01*
X109943545Y-113315406D01*
X109967190Y-113334810D01*
X109986594Y-113358455D01*
X110001014Y-113385432D01*
X110009895Y-113414710D01*
X110013200Y-113448267D01*
X110013200Y-113881733D01*
X110009895Y-113915290D01*
X110001014Y-113944568D01*
X109986594Y-113971545D01*
X109967190Y-113995190D01*
X109943545Y-114014594D01*
X109916568Y-114029014D01*
X109887290Y-114037895D01*
X109853733Y-114041200D01*
X107970267Y-114041200D01*
X107936710Y-114037895D01*
X107907432Y-114029014D01*
X107880455Y-114014594D01*
X107856810Y-113995190D01*
X107837406Y-113971545D01*
X107822986Y-113944568D01*
X107814105Y-113915290D01*
X107810800Y-113881733D01*
X107810800Y-113448267D01*
X107814105Y-113414710D01*
X107822986Y-113385432D01*
X107837406Y-113358455D01*
X107856810Y-113334810D01*
X107880455Y-113315406D01*
X107907432Y-113300986D01*
X107936710Y-113292105D01*
X107970267Y-113288800D01*
X109853733Y-113288800D01*
X109887290Y-113292105D01*
G37*
G36*
X92112290Y-113292105D02*
G01*
X92141568Y-113300986D01*
X92168545Y-113315406D01*
X92192190Y-113334810D01*
X92211594Y-113358455D01*
X92226014Y-113385432D01*
X92234895Y-113414710D01*
X92238200Y-113448267D01*
X92238200Y-113881733D01*
X92234895Y-113915290D01*
X92226014Y-113944568D01*
X92211594Y-113971545D01*
X92192190Y-113995190D01*
X92168545Y-114014594D01*
X92141568Y-114029014D01*
X92112290Y-114037895D01*
X92078733Y-114041200D01*
X90195267Y-114041200D01*
X90161710Y-114037895D01*
X90132432Y-114029014D01*
X90105455Y-114014594D01*
X90081810Y-113995190D01*
X90062406Y-113971545D01*
X90047986Y-113944568D01*
X90039105Y-113915290D01*
X90035800Y-113881733D01*
X90035800Y-113448267D01*
X90039105Y-113414710D01*
X90047986Y-113385432D01*
X90062406Y-113358455D01*
X90081810Y-113334810D01*
X90105455Y-113315406D01*
X90132432Y-113300986D01*
X90161710Y-113292105D01*
X90195267Y-113288800D01*
X92078733Y-113288800D01*
X92112290Y-113292105D01*
G37*
G36*
X82812290Y-113292105D02*
G01*
X82841568Y-113300986D01*
X82868545Y-113315406D01*
X82892190Y-113334810D01*
X82911594Y-113358455D01*
X82926014Y-113385432D01*
X82934895Y-113414710D01*
X82938200Y-113448267D01*
X82938200Y-113881733D01*
X82934895Y-113915290D01*
X82926014Y-113944568D01*
X82911594Y-113971545D01*
X82892190Y-113995190D01*
X82868545Y-114014594D01*
X82841568Y-114029014D01*
X82812290Y-114037895D01*
X82778733Y-114041200D01*
X80895267Y-114041200D01*
X80861710Y-114037895D01*
X80832432Y-114029014D01*
X80805455Y-114014594D01*
X80781810Y-113995190D01*
X80762406Y-113971545D01*
X80747986Y-113944568D01*
X80739105Y-113915290D01*
X80735800Y-113881733D01*
X80735800Y-113448267D01*
X80739105Y-113414710D01*
X80747986Y-113385432D01*
X80762406Y-113358455D01*
X80781810Y-113334810D01*
X80805455Y-113315406D01*
X80832432Y-113300986D01*
X80861710Y-113292105D01*
X80895267Y-113288800D01*
X82778733Y-113288800D01*
X82812290Y-113292105D01*
G37*
G36*
X123821290Y-112367105D02*
G01*
X123850568Y-112375986D01*
X123877545Y-112390406D01*
X123901190Y-112409810D01*
X123920594Y-112433455D01*
X123935014Y-112460432D01*
X123943895Y-112489710D01*
X123947200Y-112523267D01*
X123947200Y-113831733D01*
X123943895Y-113865290D01*
X123935014Y-113894568D01*
X123920594Y-113921545D01*
X123901190Y-113945190D01*
X123877545Y-113964594D01*
X123850568Y-113979014D01*
X123821290Y-113987895D01*
X123787733Y-113991200D01*
X123354267Y-113991200D01*
X123320710Y-113987895D01*
X123291432Y-113979014D01*
X123264455Y-113964594D01*
X123240810Y-113945190D01*
X123221406Y-113921545D01*
X123206986Y-113894568D01*
X123198105Y-113865290D01*
X123194800Y-113831733D01*
X123194800Y-112523267D01*
X123198105Y-112489710D01*
X123206986Y-112460432D01*
X123221406Y-112433455D01*
X123240810Y-112409810D01*
X123264455Y-112390406D01*
X123291432Y-112375986D01*
X123320710Y-112367105D01*
X123354267Y-112363800D01*
X123787733Y-112363800D01*
X123821290Y-112367105D01*
G37*
G36*
X116201290Y-112367105D02*
G01*
X116230568Y-112375986D01*
X116257545Y-112390406D01*
X116281190Y-112409810D01*
X116300594Y-112433455D01*
X116315014Y-112460432D01*
X116323895Y-112489710D01*
X116327200Y-112523267D01*
X116327200Y-113831733D01*
X116323895Y-113865290D01*
X116315014Y-113894568D01*
X116300594Y-113921545D01*
X116281190Y-113945190D01*
X116257545Y-113964594D01*
X116230568Y-113979014D01*
X116201290Y-113987895D01*
X116167733Y-113991200D01*
X115734267Y-113991200D01*
X115700710Y-113987895D01*
X115671432Y-113979014D01*
X115644455Y-113964594D01*
X115620810Y-113945190D01*
X115601406Y-113921545D01*
X115586986Y-113894568D01*
X115578105Y-113865290D01*
X115574800Y-113831733D01*
X115574800Y-112523267D01*
X115578105Y-112489710D01*
X115586986Y-112460432D01*
X115601406Y-112433455D01*
X115620810Y-112409810D01*
X115644455Y-112390406D01*
X115671432Y-112375986D01*
X115700710Y-112367105D01*
X115734267Y-112363800D01*
X116167733Y-112363800D01*
X116201290Y-112367105D01*
G37*
G36*
X117471290Y-112367105D02*
G01*
X117500568Y-112375986D01*
X117527545Y-112390406D01*
X117551190Y-112409810D01*
X117570594Y-112433455D01*
X117585014Y-112460432D01*
X117593895Y-112489710D01*
X117597200Y-112523267D01*
X117597200Y-113831733D01*
X117593895Y-113865290D01*
X117585014Y-113894568D01*
X117570594Y-113921545D01*
X117551190Y-113945190D01*
X117527545Y-113964594D01*
X117500568Y-113979014D01*
X117471290Y-113987895D01*
X117437733Y-113991200D01*
X117004267Y-113991200D01*
X116970710Y-113987895D01*
X116941432Y-113979014D01*
X116914455Y-113964594D01*
X116890810Y-113945190D01*
X116871406Y-113921545D01*
X116856986Y-113894568D01*
X116848105Y-113865290D01*
X116844800Y-113831733D01*
X116844800Y-112523267D01*
X116848105Y-112489710D01*
X116856986Y-112460432D01*
X116871406Y-112433455D01*
X116890810Y-112409810D01*
X116914455Y-112390406D01*
X116941432Y-112375986D01*
X116970710Y-112367105D01*
X117004267Y-112363800D01*
X117437733Y-112363800D01*
X117471290Y-112367105D01*
G37*
G36*
X118741290Y-112367105D02*
G01*
X118770568Y-112375986D01*
X118797545Y-112390406D01*
X118821190Y-112409810D01*
X118840594Y-112433455D01*
X118855014Y-112460432D01*
X118863895Y-112489710D01*
X118867200Y-112523267D01*
X118867200Y-113831733D01*
X118863895Y-113865290D01*
X118855014Y-113894568D01*
X118840594Y-113921545D01*
X118821190Y-113945190D01*
X118797545Y-113964594D01*
X118770568Y-113979014D01*
X118741290Y-113987895D01*
X118707733Y-113991200D01*
X118274267Y-113991200D01*
X118240710Y-113987895D01*
X118211432Y-113979014D01*
X118184455Y-113964594D01*
X118160810Y-113945190D01*
X118141406Y-113921545D01*
X118126986Y-113894568D01*
X118118105Y-113865290D01*
X118114800Y-113831733D01*
X118114800Y-112523267D01*
X118118105Y-112489710D01*
X118126986Y-112460432D01*
X118141406Y-112433455D01*
X118160810Y-112409810D01*
X118184455Y-112390406D01*
X118211432Y-112375986D01*
X118240710Y-112367105D01*
X118274267Y-112363800D01*
X118707733Y-112363800D01*
X118741290Y-112367105D01*
G37*
G36*
X121281290Y-112367105D02*
G01*
X121310568Y-112375986D01*
X121337545Y-112390406D01*
X121361190Y-112409810D01*
X121380594Y-112433455D01*
X121395014Y-112460432D01*
X121403895Y-112489710D01*
X121407200Y-112523267D01*
X121407200Y-113831733D01*
X121403895Y-113865290D01*
X121395014Y-113894568D01*
X121380594Y-113921545D01*
X121361190Y-113945190D01*
X121337545Y-113964594D01*
X121310568Y-113979014D01*
X121281290Y-113987895D01*
X121247733Y-113991200D01*
X120814267Y-113991200D01*
X120780710Y-113987895D01*
X120751432Y-113979014D01*
X120724455Y-113964594D01*
X120700810Y-113945190D01*
X120681406Y-113921545D01*
X120666986Y-113894568D01*
X120658105Y-113865290D01*
X120654800Y-113831733D01*
X120654800Y-112523267D01*
X120658105Y-112489710D01*
X120666986Y-112460432D01*
X120681406Y-112433455D01*
X120700810Y-112409810D01*
X120724455Y-112390406D01*
X120751432Y-112375986D01*
X120780710Y-112367105D01*
X120814267Y-112363800D01*
X121247733Y-112363800D01*
X121281290Y-112367105D01*
G37*
G36*
X120011290Y-112367105D02*
G01*
X120040568Y-112375986D01*
X120067545Y-112390406D01*
X120091190Y-112409810D01*
X120110594Y-112433455D01*
X120125014Y-112460432D01*
X120133895Y-112489710D01*
X120137200Y-112523267D01*
X120137200Y-113831733D01*
X120133895Y-113865290D01*
X120125014Y-113894568D01*
X120110594Y-113921545D01*
X120091190Y-113945190D01*
X120067545Y-113964594D01*
X120040568Y-113979014D01*
X120011290Y-113987895D01*
X119977733Y-113991200D01*
X119544267Y-113991200D01*
X119510710Y-113987895D01*
X119481432Y-113979014D01*
X119454455Y-113964594D01*
X119430810Y-113945190D01*
X119411406Y-113921545D01*
X119396986Y-113894568D01*
X119388105Y-113865290D01*
X119384800Y-113831733D01*
X119384800Y-112523267D01*
X119388105Y-112489710D01*
X119396986Y-112460432D01*
X119411406Y-112433455D01*
X119430810Y-112409810D01*
X119454455Y-112390406D01*
X119481432Y-112375986D01*
X119510710Y-112367105D01*
X119544267Y-112363800D01*
X119977733Y-112363800D01*
X120011290Y-112367105D01*
G37*
G36*
X122551290Y-112367105D02*
G01*
X122580568Y-112375986D01*
X122607545Y-112390406D01*
X122631190Y-112409810D01*
X122650594Y-112433455D01*
X122665014Y-112460432D01*
X122673895Y-112489710D01*
X122677200Y-112523267D01*
X122677200Y-113831733D01*
X122673895Y-113865290D01*
X122665014Y-113894568D01*
X122650594Y-113921545D01*
X122631190Y-113945190D01*
X122607545Y-113964594D01*
X122580568Y-113979014D01*
X122551290Y-113987895D01*
X122517733Y-113991200D01*
X122084267Y-113991200D01*
X122050710Y-113987895D01*
X122021432Y-113979014D01*
X121994455Y-113964594D01*
X121970810Y-113945190D01*
X121951406Y-113921545D01*
X121936986Y-113894568D01*
X121928105Y-113865290D01*
X121924800Y-113831733D01*
X121924800Y-112523267D01*
X121928105Y-112489710D01*
X121936986Y-112460432D01*
X121951406Y-112433455D01*
X121970810Y-112409810D01*
X121994455Y-112390406D01*
X122021432Y-112375986D01*
X122050710Y-112367105D01*
X122084267Y-112363800D01*
X122517733Y-112363800D01*
X122551290Y-112367105D01*
G37*
G36*
X135957237Y-112005267D02*
G01*
X136007619Y-112020550D01*
X136054046Y-112045366D01*
X136094739Y-112078761D01*
X136128134Y-112119454D01*
X136152950Y-112165881D01*
X136168233Y-112216263D01*
X136173700Y-112271767D01*
X136173700Y-113280233D01*
X136168233Y-113335737D01*
X136152950Y-113386119D01*
X136128134Y-113432546D01*
X136094739Y-113473239D01*
X136054046Y-113506634D01*
X136007619Y-113531450D01*
X135957237Y-113546733D01*
X135901733Y-113552200D01*
X135243267Y-113552200D01*
X135187763Y-113546733D01*
X135137381Y-113531450D01*
X135090954Y-113506634D01*
X135050261Y-113473239D01*
X135016866Y-113432546D01*
X134992050Y-113386119D01*
X134976767Y-113335737D01*
X134971300Y-113280233D01*
X134971300Y-112271767D01*
X134976767Y-112216263D01*
X134992050Y-112165881D01*
X135016866Y-112119454D01*
X135050261Y-112078761D01*
X135090954Y-112045366D01*
X135137381Y-112020550D01*
X135187763Y-112005267D01*
X135243267Y-111999800D01*
X135901733Y-111999800D01*
X135957237Y-112005267D01*
G37*
G36*
X134257237Y-112005267D02*
G01*
X134307619Y-112020550D01*
X134354046Y-112045366D01*
X134394739Y-112078761D01*
X134428134Y-112119454D01*
X134452950Y-112165881D01*
X134468233Y-112216263D01*
X134473700Y-112271767D01*
X134473700Y-113280233D01*
X134468233Y-113335737D01*
X134452950Y-113386119D01*
X134428134Y-113432546D01*
X134394739Y-113473239D01*
X134354046Y-113506634D01*
X134307619Y-113531450D01*
X134257237Y-113546733D01*
X134201733Y-113552200D01*
X133543267Y-113552200D01*
X133487763Y-113546733D01*
X133437381Y-113531450D01*
X133390954Y-113506634D01*
X133350261Y-113473239D01*
X133316866Y-113432546D01*
X133292050Y-113386119D01*
X133276767Y-113335737D01*
X133271300Y-113280233D01*
X133271300Y-112271767D01*
X133276767Y-112216263D01*
X133292050Y-112165881D01*
X133316866Y-112119454D01*
X133350261Y-112078761D01*
X133390954Y-112045366D01*
X133437381Y-112020550D01*
X133487763Y-112005267D01*
X133543267Y-111999800D01*
X134201733Y-111999800D01*
X134257237Y-112005267D01*
G37*
G36*
X82812290Y-112022105D02*
G01*
X82841568Y-112030986D01*
X82868545Y-112045406D01*
X82892190Y-112064810D01*
X82911594Y-112088455D01*
X82926014Y-112115432D01*
X82934895Y-112144710D01*
X82938200Y-112178267D01*
X82938200Y-112611733D01*
X82934895Y-112645290D01*
X82926014Y-112674568D01*
X82911594Y-112701545D01*
X82892190Y-112725190D01*
X82868545Y-112744594D01*
X82841568Y-112759014D01*
X82812290Y-112767895D01*
X82778733Y-112771200D01*
X80895267Y-112771200D01*
X80861710Y-112767895D01*
X80832432Y-112759014D01*
X80805455Y-112744594D01*
X80781810Y-112725190D01*
X80762406Y-112701545D01*
X80747986Y-112674568D01*
X80739105Y-112645290D01*
X80735800Y-112611733D01*
X80735800Y-112178267D01*
X80739105Y-112144710D01*
X80747986Y-112115432D01*
X80762406Y-112088455D01*
X80781810Y-112064810D01*
X80805455Y-112045406D01*
X80832432Y-112030986D01*
X80861710Y-112022105D01*
X80895267Y-112018800D01*
X82778733Y-112018800D01*
X82812290Y-112022105D01*
G37*
G36*
X109887290Y-112022105D02*
G01*
X109916568Y-112030986D01*
X109943545Y-112045406D01*
X109967190Y-112064810D01*
X109986594Y-112088455D01*
X110001014Y-112115432D01*
X110009895Y-112144710D01*
X110013200Y-112178267D01*
X110013200Y-112611733D01*
X110009895Y-112645290D01*
X110001014Y-112674568D01*
X109986594Y-112701545D01*
X109967190Y-112725190D01*
X109943545Y-112744594D01*
X109916568Y-112759014D01*
X109887290Y-112767895D01*
X109853733Y-112771200D01*
X107970267Y-112771200D01*
X107936710Y-112767895D01*
X107907432Y-112759014D01*
X107880455Y-112744594D01*
X107856810Y-112725190D01*
X107837406Y-112701545D01*
X107822986Y-112674568D01*
X107814105Y-112645290D01*
X107810800Y-112611733D01*
X107810800Y-112178267D01*
X107814105Y-112144710D01*
X107822986Y-112115432D01*
X107837406Y-112088455D01*
X107856810Y-112064810D01*
X107880455Y-112045406D01*
X107907432Y-112030986D01*
X107936710Y-112022105D01*
X107970267Y-112018800D01*
X109853733Y-112018800D01*
X109887290Y-112022105D01*
G37*
G36*
X96787290Y-112022105D02*
G01*
X96816568Y-112030986D01*
X96843545Y-112045406D01*
X96867190Y-112064810D01*
X96886594Y-112088455D01*
X96901014Y-112115432D01*
X96909895Y-112144710D01*
X96913200Y-112178267D01*
X96913200Y-112611733D01*
X96909895Y-112645290D01*
X96901014Y-112674568D01*
X96886594Y-112701545D01*
X96867190Y-112725190D01*
X96843545Y-112744594D01*
X96816568Y-112759014D01*
X96787290Y-112767895D01*
X96753733Y-112771200D01*
X94870267Y-112771200D01*
X94836710Y-112767895D01*
X94807432Y-112759014D01*
X94780455Y-112744594D01*
X94756810Y-112725190D01*
X94737406Y-112701545D01*
X94722986Y-112674568D01*
X94714105Y-112645290D01*
X94710800Y-112611733D01*
X94710800Y-112178267D01*
X94714105Y-112144710D01*
X94722986Y-112115432D01*
X94737406Y-112088455D01*
X94756810Y-112064810D01*
X94780455Y-112045406D01*
X94807432Y-112030986D01*
X94836710Y-112022105D01*
X94870267Y-112018800D01*
X96753733Y-112018800D01*
X96787290Y-112022105D01*
G37*
G36*
X92112290Y-112022105D02*
G01*
X92141568Y-112030986D01*
X92168545Y-112045406D01*
X92192190Y-112064810D01*
X92211594Y-112088455D01*
X92226014Y-112115432D01*
X92234895Y-112144710D01*
X92238200Y-112178267D01*
X92238200Y-112611733D01*
X92234895Y-112645290D01*
X92226014Y-112674568D01*
X92211594Y-112701545D01*
X92192190Y-112725190D01*
X92168545Y-112744594D01*
X92141568Y-112759014D01*
X92112290Y-112767895D01*
X92078733Y-112771200D01*
X90195267Y-112771200D01*
X90161710Y-112767895D01*
X90132432Y-112759014D01*
X90105455Y-112744594D01*
X90081810Y-112725190D01*
X90062406Y-112701545D01*
X90047986Y-112674568D01*
X90039105Y-112645290D01*
X90035800Y-112611733D01*
X90035800Y-112178267D01*
X90039105Y-112144710D01*
X90047986Y-112115432D01*
X90062406Y-112088455D01*
X90081810Y-112064810D01*
X90105455Y-112045406D01*
X90132432Y-112030986D01*
X90161710Y-112022105D01*
X90195267Y-112018800D01*
X92078733Y-112018800D01*
X92112290Y-112022105D01*
G37*
G36*
X92112290Y-110752105D02*
G01*
X92141568Y-110760986D01*
X92168545Y-110775406D01*
X92192190Y-110794810D01*
X92211594Y-110818455D01*
X92226014Y-110845432D01*
X92234895Y-110874710D01*
X92238200Y-110908267D01*
X92238200Y-111341733D01*
X92234895Y-111375290D01*
X92226014Y-111404568D01*
X92211594Y-111431545D01*
X92192190Y-111455190D01*
X92168545Y-111474594D01*
X92141568Y-111489014D01*
X92112290Y-111497895D01*
X92078733Y-111501200D01*
X90195267Y-111501200D01*
X90161710Y-111497895D01*
X90132432Y-111489014D01*
X90105455Y-111474594D01*
X90081810Y-111455190D01*
X90062406Y-111431545D01*
X90047986Y-111404568D01*
X90039105Y-111375290D01*
X90035800Y-111341733D01*
X90035800Y-110908267D01*
X90039105Y-110874710D01*
X90047986Y-110845432D01*
X90062406Y-110818455D01*
X90081810Y-110794810D01*
X90105455Y-110775406D01*
X90132432Y-110760986D01*
X90161710Y-110752105D01*
X90195267Y-110748800D01*
X92078733Y-110748800D01*
X92112290Y-110752105D01*
G37*
G36*
X96787290Y-110752105D02*
G01*
X96816568Y-110760986D01*
X96843545Y-110775406D01*
X96867190Y-110794810D01*
X96886594Y-110818455D01*
X96901014Y-110845432D01*
X96909895Y-110874710D01*
X96913200Y-110908267D01*
X96913200Y-111341733D01*
X96909895Y-111375290D01*
X96901014Y-111404568D01*
X96886594Y-111431545D01*
X96867190Y-111455190D01*
X96843545Y-111474594D01*
X96816568Y-111489014D01*
X96787290Y-111497895D01*
X96753733Y-111501200D01*
X94870267Y-111501200D01*
X94836710Y-111497895D01*
X94807432Y-111489014D01*
X94780455Y-111474594D01*
X94756810Y-111455190D01*
X94737406Y-111431545D01*
X94722986Y-111404568D01*
X94714105Y-111375290D01*
X94710800Y-111341733D01*
X94710800Y-110908267D01*
X94714105Y-110874710D01*
X94722986Y-110845432D01*
X94737406Y-110818455D01*
X94756810Y-110794810D01*
X94780455Y-110775406D01*
X94807432Y-110760986D01*
X94836710Y-110752105D01*
X94870267Y-110748800D01*
X96753733Y-110748800D01*
X96787290Y-110752105D01*
G37*
G36*
X109887290Y-110752105D02*
G01*
X109916568Y-110760986D01*
X109943545Y-110775406D01*
X109967190Y-110794810D01*
X109986594Y-110818455D01*
X110001014Y-110845432D01*
X110009895Y-110874710D01*
X110013200Y-110908267D01*
X110013200Y-111341733D01*
X110009895Y-111375290D01*
X110001014Y-111404568D01*
X109986594Y-111431545D01*
X109967190Y-111455190D01*
X109943545Y-111474594D01*
X109916568Y-111489014D01*
X109887290Y-111497895D01*
X109853733Y-111501200D01*
X107970267Y-111501200D01*
X107936710Y-111497895D01*
X107907432Y-111489014D01*
X107880455Y-111474594D01*
X107856810Y-111455190D01*
X107837406Y-111431545D01*
X107822986Y-111404568D01*
X107814105Y-111375290D01*
X107810800Y-111341733D01*
X107810800Y-110908267D01*
X107814105Y-110874710D01*
X107822986Y-110845432D01*
X107837406Y-110818455D01*
X107856810Y-110794810D01*
X107880455Y-110775406D01*
X107907432Y-110760986D01*
X107936710Y-110752105D01*
X107970267Y-110748800D01*
X109853733Y-110748800D01*
X109887290Y-110752105D01*
G37*
G36*
X82812290Y-110752105D02*
G01*
X82841568Y-110760986D01*
X82868545Y-110775406D01*
X82892190Y-110794810D01*
X82911594Y-110818455D01*
X82926014Y-110845432D01*
X82934895Y-110874710D01*
X82938200Y-110908267D01*
X82938200Y-111341733D01*
X82934895Y-111375290D01*
X82926014Y-111404568D01*
X82911594Y-111431545D01*
X82892190Y-111455190D01*
X82868545Y-111474594D01*
X82841568Y-111489014D01*
X82812290Y-111497895D01*
X82778733Y-111501200D01*
X80895267Y-111501200D01*
X80861710Y-111497895D01*
X80832432Y-111489014D01*
X80805455Y-111474594D01*
X80781810Y-111455190D01*
X80762406Y-111431545D01*
X80747986Y-111404568D01*
X80739105Y-111375290D01*
X80735800Y-111341733D01*
X80735800Y-110908267D01*
X80739105Y-110874710D01*
X80747986Y-110845432D01*
X80762406Y-110818455D01*
X80781810Y-110794810D01*
X80805455Y-110775406D01*
X80832432Y-110760986D01*
X80861710Y-110752105D01*
X80895267Y-110748800D01*
X82778733Y-110748800D01*
X82812290Y-110752105D01*
G37*
G36*
X121415737Y-109338267D02*
G01*
X121466119Y-109353550D01*
X121512546Y-109378366D01*
X121553239Y-109411761D01*
X121586634Y-109452454D01*
X121611450Y-109498881D01*
X121626733Y-109549263D01*
X121632200Y-109604767D01*
X121632200Y-110613233D01*
X121626733Y-110668737D01*
X121611450Y-110719119D01*
X121586634Y-110765546D01*
X121553239Y-110806239D01*
X121512546Y-110839634D01*
X121466119Y-110864450D01*
X121415737Y-110879733D01*
X121360233Y-110885200D01*
X120701767Y-110885200D01*
X120646263Y-110879733D01*
X120595881Y-110864450D01*
X120549454Y-110839634D01*
X120508761Y-110806239D01*
X120475366Y-110765546D01*
X120450550Y-110719119D01*
X120435267Y-110668737D01*
X120429800Y-110613233D01*
X120429800Y-109604767D01*
X120435267Y-109549263D01*
X120450550Y-109498881D01*
X120475366Y-109452454D01*
X120508761Y-109411761D01*
X120549454Y-109378366D01*
X120595881Y-109353550D01*
X120646263Y-109338267D01*
X120701767Y-109332800D01*
X121360233Y-109332800D01*
X121415737Y-109338267D01*
G37*
G36*
X119715737Y-109338267D02*
G01*
X119766119Y-109353550D01*
X119812546Y-109378366D01*
X119853239Y-109411761D01*
X119886634Y-109452454D01*
X119911450Y-109498881D01*
X119926733Y-109549263D01*
X119932200Y-109604767D01*
X119932200Y-110613233D01*
X119926733Y-110668737D01*
X119911450Y-110719119D01*
X119886634Y-110765546D01*
X119853239Y-110806239D01*
X119812546Y-110839634D01*
X119766119Y-110864450D01*
X119715737Y-110879733D01*
X119660233Y-110885200D01*
X119001767Y-110885200D01*
X118946263Y-110879733D01*
X118895881Y-110864450D01*
X118849454Y-110839634D01*
X118808761Y-110806239D01*
X118775366Y-110765546D01*
X118750550Y-110719119D01*
X118735267Y-110668737D01*
X118729800Y-110613233D01*
X118729800Y-109604767D01*
X118735267Y-109549263D01*
X118750550Y-109498881D01*
X118775366Y-109452454D01*
X118808761Y-109411761D01*
X118849454Y-109378366D01*
X118895881Y-109353550D01*
X118946263Y-109338267D01*
X119001767Y-109332800D01*
X119660233Y-109332800D01*
X119715737Y-109338267D01*
G37*
G36*
X96787290Y-109482105D02*
G01*
X96816568Y-109490986D01*
X96843545Y-109505406D01*
X96867190Y-109524810D01*
X96886594Y-109548455D01*
X96901014Y-109575432D01*
X96909895Y-109604710D01*
X96913200Y-109638267D01*
X96913200Y-110071733D01*
X96909895Y-110105290D01*
X96901014Y-110134568D01*
X96886594Y-110161545D01*
X96867190Y-110185190D01*
X96843545Y-110204594D01*
X96816568Y-110219014D01*
X96787290Y-110227895D01*
X96753733Y-110231200D01*
X94870267Y-110231200D01*
X94836710Y-110227895D01*
X94807432Y-110219014D01*
X94780455Y-110204594D01*
X94756810Y-110185190D01*
X94737406Y-110161545D01*
X94722986Y-110134568D01*
X94714105Y-110105290D01*
X94710800Y-110071733D01*
X94710800Y-109638267D01*
X94714105Y-109604710D01*
X94722986Y-109575432D01*
X94737406Y-109548455D01*
X94756810Y-109524810D01*
X94780455Y-109505406D01*
X94807432Y-109490986D01*
X94836710Y-109482105D01*
X94870267Y-109478800D01*
X96753733Y-109478800D01*
X96787290Y-109482105D01*
G37*
G36*
X109887290Y-109482105D02*
G01*
X109916568Y-109490986D01*
X109943545Y-109505406D01*
X109967190Y-109524810D01*
X109986594Y-109548455D01*
X110001014Y-109575432D01*
X110009895Y-109604710D01*
X110013200Y-109638267D01*
X110013200Y-110071733D01*
X110009895Y-110105290D01*
X110001014Y-110134568D01*
X109986594Y-110161545D01*
X109967190Y-110185190D01*
X109943545Y-110204594D01*
X109916568Y-110219014D01*
X109887290Y-110227895D01*
X109853733Y-110231200D01*
X107970267Y-110231200D01*
X107936710Y-110227895D01*
X107907432Y-110219014D01*
X107880455Y-110204594D01*
X107856810Y-110185190D01*
X107837406Y-110161545D01*
X107822986Y-110134568D01*
X107814105Y-110105290D01*
X107810800Y-110071733D01*
X107810800Y-109638267D01*
X107814105Y-109604710D01*
X107822986Y-109575432D01*
X107837406Y-109548455D01*
X107856810Y-109524810D01*
X107880455Y-109505406D01*
X107907432Y-109490986D01*
X107936710Y-109482105D01*
X107970267Y-109478800D01*
X109853733Y-109478800D01*
X109887290Y-109482105D01*
G37*
G36*
X92112290Y-109482105D02*
G01*
X92141568Y-109490986D01*
X92168545Y-109505406D01*
X92192190Y-109524810D01*
X92211594Y-109548455D01*
X92226014Y-109575432D01*
X92234895Y-109604710D01*
X92238200Y-109638267D01*
X92238200Y-110071733D01*
X92234895Y-110105290D01*
X92226014Y-110134568D01*
X92211594Y-110161545D01*
X92192190Y-110185190D01*
X92168545Y-110204594D01*
X92141568Y-110219014D01*
X92112290Y-110227895D01*
X92078733Y-110231200D01*
X90195267Y-110231200D01*
X90161710Y-110227895D01*
X90132432Y-110219014D01*
X90105455Y-110204594D01*
X90081810Y-110185190D01*
X90062406Y-110161545D01*
X90047986Y-110134568D01*
X90039105Y-110105290D01*
X90035800Y-110071733D01*
X90035800Y-109638267D01*
X90039105Y-109604710D01*
X90047986Y-109575432D01*
X90062406Y-109548455D01*
X90081810Y-109524810D01*
X90105455Y-109505406D01*
X90132432Y-109490986D01*
X90161710Y-109482105D01*
X90195267Y-109478800D01*
X92078733Y-109478800D01*
X92112290Y-109482105D01*
G37*
G36*
X82812290Y-109482105D02*
G01*
X82841568Y-109490986D01*
X82868545Y-109505406D01*
X82892190Y-109524810D01*
X82911594Y-109548455D01*
X82926014Y-109575432D01*
X82934895Y-109604710D01*
X82938200Y-109638267D01*
X82938200Y-110071733D01*
X82934895Y-110105290D01*
X82926014Y-110134568D01*
X82911594Y-110161545D01*
X82892190Y-110185190D01*
X82868545Y-110204594D01*
X82841568Y-110219014D01*
X82812290Y-110227895D01*
X82778733Y-110231200D01*
X80895267Y-110231200D01*
X80861710Y-110227895D01*
X80832432Y-110219014D01*
X80805455Y-110204594D01*
X80781810Y-110185190D01*
X80762406Y-110161545D01*
X80747986Y-110134568D01*
X80739105Y-110105290D01*
X80735800Y-110071733D01*
X80735800Y-109638267D01*
X80739105Y-109604710D01*
X80747986Y-109575432D01*
X80762406Y-109548455D01*
X80781810Y-109524810D01*
X80805455Y-109505406D01*
X80832432Y-109490986D01*
X80861710Y-109482105D01*
X80895267Y-109478800D01*
X82778733Y-109478800D01*
X82812290Y-109482105D01*
G37*
G36*
X96787290Y-108212105D02*
G01*
X96816568Y-108220986D01*
X96843545Y-108235406D01*
X96867190Y-108254810D01*
X96886594Y-108278455D01*
X96901014Y-108305432D01*
X96909895Y-108334710D01*
X96913200Y-108368267D01*
X96913200Y-108801733D01*
X96909895Y-108835290D01*
X96901014Y-108864568D01*
X96886594Y-108891545D01*
X96867190Y-108915190D01*
X96843545Y-108934594D01*
X96816568Y-108949014D01*
X96787290Y-108957895D01*
X96753733Y-108961200D01*
X94870267Y-108961200D01*
X94836710Y-108957895D01*
X94807432Y-108949014D01*
X94780455Y-108934594D01*
X94756810Y-108915190D01*
X94737406Y-108891545D01*
X94722986Y-108864568D01*
X94714105Y-108835290D01*
X94710800Y-108801733D01*
X94710800Y-108368267D01*
X94714105Y-108334710D01*
X94722986Y-108305432D01*
X94737406Y-108278455D01*
X94756810Y-108254810D01*
X94780455Y-108235406D01*
X94807432Y-108220986D01*
X94836710Y-108212105D01*
X94870267Y-108208800D01*
X96753733Y-108208800D01*
X96787290Y-108212105D01*
G37*
G36*
X109887290Y-108212105D02*
G01*
X109916568Y-108220986D01*
X109943545Y-108235406D01*
X109967190Y-108254810D01*
X109986594Y-108278455D01*
X110001014Y-108305432D01*
X110009895Y-108334710D01*
X110013200Y-108368267D01*
X110013200Y-108801733D01*
X110009895Y-108835290D01*
X110001014Y-108864568D01*
X109986594Y-108891545D01*
X109967190Y-108915190D01*
X109943545Y-108934594D01*
X109916568Y-108949014D01*
X109887290Y-108957895D01*
X109853733Y-108961200D01*
X107970267Y-108961200D01*
X107936710Y-108957895D01*
X107907432Y-108949014D01*
X107880455Y-108934594D01*
X107856810Y-108915190D01*
X107837406Y-108891545D01*
X107822986Y-108864568D01*
X107814105Y-108835290D01*
X107810800Y-108801733D01*
X107810800Y-108368267D01*
X107814105Y-108334710D01*
X107822986Y-108305432D01*
X107837406Y-108278455D01*
X107856810Y-108254810D01*
X107880455Y-108235406D01*
X107907432Y-108220986D01*
X107936710Y-108212105D01*
X107970267Y-108208800D01*
X109853733Y-108208800D01*
X109887290Y-108212105D01*
G37*
G36*
X82812290Y-108212105D02*
G01*
X82841568Y-108220986D01*
X82868545Y-108235406D01*
X82892190Y-108254810D01*
X82911594Y-108278455D01*
X82926014Y-108305432D01*
X82934895Y-108334710D01*
X82938200Y-108368267D01*
X82938200Y-108801733D01*
X82934895Y-108835290D01*
X82926014Y-108864568D01*
X82911594Y-108891545D01*
X82892190Y-108915190D01*
X82868545Y-108934594D01*
X82841568Y-108949014D01*
X82812290Y-108957895D01*
X82778733Y-108961200D01*
X80895267Y-108961200D01*
X80861710Y-108957895D01*
X80832432Y-108949014D01*
X80805455Y-108934594D01*
X80781810Y-108915190D01*
X80762406Y-108891545D01*
X80747986Y-108864568D01*
X80739105Y-108835290D01*
X80735800Y-108801733D01*
X80735800Y-108368267D01*
X80739105Y-108334710D01*
X80747986Y-108305432D01*
X80762406Y-108278455D01*
X80781810Y-108254810D01*
X80805455Y-108235406D01*
X80832432Y-108220986D01*
X80861710Y-108212105D01*
X80895267Y-108208800D01*
X82778733Y-108208800D01*
X82812290Y-108212105D01*
G37*
G36*
X92112290Y-108212105D02*
G01*
X92141568Y-108220986D01*
X92168545Y-108235406D01*
X92192190Y-108254810D01*
X92211594Y-108278455D01*
X92226014Y-108305432D01*
X92234895Y-108334710D01*
X92238200Y-108368267D01*
X92238200Y-108801733D01*
X92234895Y-108835290D01*
X92226014Y-108864568D01*
X92211594Y-108891545D01*
X92192190Y-108915190D01*
X92168545Y-108934594D01*
X92141568Y-108949014D01*
X92112290Y-108957895D01*
X92078733Y-108961200D01*
X90195267Y-108961200D01*
X90161710Y-108957895D01*
X90132432Y-108949014D01*
X90105455Y-108934594D01*
X90081810Y-108915190D01*
X90062406Y-108891545D01*
X90047986Y-108864568D01*
X90039105Y-108835290D01*
X90035800Y-108801733D01*
X90035800Y-108368267D01*
X90039105Y-108334710D01*
X90047986Y-108305432D01*
X90062406Y-108278455D01*
X90081810Y-108254810D01*
X90105455Y-108235406D01*
X90132432Y-108220986D01*
X90161710Y-108212105D01*
X90195267Y-108208800D01*
X92078733Y-108208800D01*
X92112290Y-108212105D01*
G37*
G36*
X81847914Y-105518157D02*
G01*
X82043777Y-105599286D01*
X82220033Y-105717057D01*
X82369943Y-105866967D01*
X82487714Y-106043223D01*
X82568843Y-106239086D01*
X82610200Y-106447004D01*
X82610200Y-106658996D01*
X82568843Y-106866914D01*
X82487714Y-107062777D01*
X82369943Y-107239033D01*
X82220033Y-107388943D01*
X82043777Y-107506714D01*
X81847914Y-107587843D01*
X81639996Y-107629200D01*
X81428004Y-107629200D01*
X81220086Y-107587843D01*
X81024223Y-107506714D01*
X80847967Y-107388943D01*
X80698057Y-107239033D01*
X80580286Y-107062777D01*
X80499157Y-106866914D01*
X80457800Y-106658996D01*
X80457800Y-106447004D01*
X80499157Y-106239086D01*
X80580286Y-106043223D01*
X80698057Y-105866967D01*
X80847967Y-105717057D01*
X81024223Y-105599286D01*
X81220086Y-105518157D01*
X81428004Y-105476800D01*
X81639996Y-105476800D01*
X81847914Y-105518157D01*
G37*
G36*
X134679914Y-105518157D02*
G01*
X134875777Y-105599286D01*
X135052033Y-105717057D01*
X135201943Y-105866967D01*
X135319714Y-106043223D01*
X135400843Y-106239086D01*
X135442200Y-106447004D01*
X135442200Y-106658996D01*
X135400843Y-106866914D01*
X135319714Y-107062777D01*
X135201943Y-107239033D01*
X135052033Y-107388943D01*
X134875777Y-107506714D01*
X134679914Y-107587843D01*
X134471996Y-107629200D01*
X134260004Y-107629200D01*
X134052086Y-107587843D01*
X133856223Y-107506714D01*
X133679967Y-107388943D01*
X133530057Y-107239033D01*
X133412286Y-107062777D01*
X133331157Y-106866914D01*
X133289800Y-106658996D01*
X133289800Y-106447004D01*
X133331157Y-106239086D01*
X133412286Y-106043223D01*
X133530057Y-105866967D01*
X133679967Y-105717057D01*
X133856223Y-105599286D01*
X134052086Y-105518157D01*
X134260004Y-105476800D01*
X134471996Y-105476800D01*
X134679914Y-105518157D01*
G37*
G36*
X137197692Y-105591429D02*
G01*
X137379679Y-105666811D01*
X137543458Y-105776245D01*
X137543460Y-105776247D01*
X137543463Y-105776249D01*
X137682751Y-105915537D01*
X137682753Y-105915540D01*
X137682755Y-105915542D01*
X137792189Y-106079321D01*
X137867571Y-106261308D01*
X137906000Y-106454509D01*
X137906000Y-106651491D01*
X137867571Y-106844692D01*
X137792189Y-107026679D01*
X137682755Y-107190458D01*
X137682753Y-107190460D01*
X137682751Y-107190463D01*
X137543463Y-107329751D01*
X137543460Y-107329753D01*
X137543458Y-107329755D01*
X137379679Y-107439189D01*
X137197692Y-107514571D01*
X137004491Y-107553000D01*
X136807509Y-107553000D01*
X136614308Y-107514571D01*
X136432321Y-107439189D01*
X136268542Y-107329755D01*
X136268540Y-107329753D01*
X136268537Y-107329751D01*
X136129249Y-107190463D01*
X136129247Y-107190460D01*
X136129245Y-107190458D01*
X136019811Y-107026679D01*
X135944429Y-106844692D01*
X135906000Y-106651491D01*
X135906000Y-106454509D01*
X135944429Y-106261308D01*
X136019811Y-106079321D01*
X136129245Y-105915542D01*
X136129247Y-105915540D01*
X136129249Y-105915537D01*
X136268537Y-105776249D01*
X136268540Y-105776247D01*
X136268542Y-105776245D01*
X136432321Y-105666811D01*
X136614308Y-105591429D01*
X136807509Y-105553000D01*
X137004491Y-105553000D01*
X137197692Y-105591429D01*
G37*
G36*
X79285692Y-105591429D02*
G01*
X79467679Y-105666811D01*
X79631458Y-105776245D01*
X79631460Y-105776247D01*
X79631463Y-105776249D01*
X79770751Y-105915537D01*
X79770753Y-105915540D01*
X79770755Y-105915542D01*
X79880189Y-106079321D01*
X79955571Y-106261308D01*
X79994000Y-106454509D01*
X79994000Y-106651491D01*
X79955571Y-106844692D01*
X79880189Y-107026679D01*
X79770755Y-107190458D01*
X79770753Y-107190460D01*
X79770751Y-107190463D01*
X79631463Y-107329751D01*
X79631460Y-107329753D01*
X79631458Y-107329755D01*
X79467679Y-107439189D01*
X79285692Y-107514571D01*
X79092491Y-107553000D01*
X78895509Y-107553000D01*
X78702308Y-107514571D01*
X78520321Y-107439189D01*
X78356542Y-107329755D01*
X78356540Y-107329753D01*
X78356537Y-107329751D01*
X78217249Y-107190463D01*
X78217247Y-107190460D01*
X78217245Y-107190458D01*
X78107811Y-107026679D01*
X78032429Y-106844692D01*
X77994000Y-106651491D01*
X77994000Y-106454509D01*
X78032429Y-106261308D01*
X78107811Y-106079321D01*
X78217245Y-105915542D01*
X78217247Y-105915540D01*
X78217249Y-105915537D01*
X78356537Y-105776249D01*
X78356540Y-105776247D01*
X78356542Y-105776245D01*
X78520321Y-105666811D01*
X78702308Y-105591429D01*
X78895509Y-105553000D01*
X79092491Y-105553000D01*
X79285692Y-105591429D01*
G37*
M02*
