G04 #@! TF.GenerationSoftware,KiCad,Pcbnew,(5.1.5-0-10_14)*
G04 #@! TF.CreationDate,2020-04-11T03:56:32-04:00*
G04 #@! TF.ProjectId,Voyager128,566f7961-6765-4723-9132-382e6b696361,rev?*
G04 #@! TF.SameCoordinates,Original*
G04 #@! TF.FileFunction,Soldermask,Bot*
G04 #@! TF.FilePolarity,Negative*
%FSLAX46Y46*%
G04 Gerber Fmt 4.6, Leading zero omitted, Abs format (unit mm)*
G04 Created by KiCad (PCBNEW (5.1.5-0-10_14)) date 2020-04-11 03:56:32*
%MOMM*%
%LPD*%
G04 APERTURE LIST*
%ADD10C,0.100000*%
G04 APERTURE END LIST*
D10*
G36*
X139700000Y-139446000D02*
G01*
X139192000Y-139954000D01*
X74168000Y-139954000D01*
X73660000Y-139446000D01*
X73660000Y-132080000D01*
X139700000Y-132080000D01*
X139700000Y-139446000D01*
G37*
G36*
X137686355Y-131543544D02*
G01*
X137758967Y-131565570D01*
X137825881Y-131601336D01*
X137884531Y-131649469D01*
X137932664Y-131708119D01*
X137968430Y-131775033D01*
X137990456Y-131847645D01*
X137998200Y-131926267D01*
X137998200Y-138637733D01*
X137990456Y-138716355D01*
X137968430Y-138788967D01*
X137932664Y-138855881D01*
X137884531Y-138914531D01*
X137825881Y-138962664D01*
X137758967Y-138998430D01*
X137686355Y-139020456D01*
X137607733Y-139028200D01*
X136712267Y-139028200D01*
X136633645Y-139020456D01*
X136561033Y-138998430D01*
X136494119Y-138962664D01*
X136435469Y-138914531D01*
X136387336Y-138855881D01*
X136351570Y-138788967D01*
X136329544Y-138716355D01*
X136321800Y-138637733D01*
X136321800Y-131926267D01*
X136329544Y-131847645D01*
X136351570Y-131775033D01*
X136387336Y-131708119D01*
X136435469Y-131649469D01*
X136494119Y-131601336D01*
X136561033Y-131565570D01*
X136633645Y-131543544D01*
X136712267Y-131535800D01*
X137607733Y-131535800D01*
X137686355Y-131543544D01*
G37*
G36*
X135146355Y-131543544D02*
G01*
X135218967Y-131565570D01*
X135285881Y-131601336D01*
X135344531Y-131649469D01*
X135392664Y-131708119D01*
X135428430Y-131775033D01*
X135450456Y-131847645D01*
X135458200Y-131926267D01*
X135458200Y-138637733D01*
X135450456Y-138716355D01*
X135428430Y-138788967D01*
X135392664Y-138855881D01*
X135344531Y-138914531D01*
X135285881Y-138962664D01*
X135218967Y-138998430D01*
X135146355Y-139020456D01*
X135067733Y-139028200D01*
X134172267Y-139028200D01*
X134093645Y-139020456D01*
X134021033Y-138998430D01*
X133954119Y-138962664D01*
X133895469Y-138914531D01*
X133847336Y-138855881D01*
X133811570Y-138788967D01*
X133789544Y-138716355D01*
X133781800Y-138637733D01*
X133781800Y-131926267D01*
X133789544Y-131847645D01*
X133811570Y-131775033D01*
X133847336Y-131708119D01*
X133895469Y-131649469D01*
X133954119Y-131601336D01*
X134021033Y-131565570D01*
X134093645Y-131543544D01*
X134172267Y-131535800D01*
X135067733Y-131535800D01*
X135146355Y-131543544D01*
G37*
G36*
X132606355Y-131543544D02*
G01*
X132678967Y-131565570D01*
X132745881Y-131601336D01*
X132804531Y-131649469D01*
X132852664Y-131708119D01*
X132888430Y-131775033D01*
X132910456Y-131847645D01*
X132918200Y-131926267D01*
X132918200Y-138637733D01*
X132910456Y-138716355D01*
X132888430Y-138788967D01*
X132852664Y-138855881D01*
X132804531Y-138914531D01*
X132745881Y-138962664D01*
X132678967Y-138998430D01*
X132606355Y-139020456D01*
X132527733Y-139028200D01*
X131632267Y-139028200D01*
X131553645Y-139020456D01*
X131481033Y-138998430D01*
X131414119Y-138962664D01*
X131355469Y-138914531D01*
X131307336Y-138855881D01*
X131271570Y-138788967D01*
X131249544Y-138716355D01*
X131241800Y-138637733D01*
X131241800Y-131926267D01*
X131249544Y-131847645D01*
X131271570Y-131775033D01*
X131307336Y-131708119D01*
X131355469Y-131649469D01*
X131414119Y-131601336D01*
X131481033Y-131565570D01*
X131553645Y-131543544D01*
X131632267Y-131535800D01*
X132527733Y-131535800D01*
X132606355Y-131543544D01*
G37*
G36*
X130066355Y-131543544D02*
G01*
X130138967Y-131565570D01*
X130205881Y-131601336D01*
X130264531Y-131649469D01*
X130312664Y-131708119D01*
X130348430Y-131775033D01*
X130370456Y-131847645D01*
X130378200Y-131926267D01*
X130378200Y-138637733D01*
X130370456Y-138716355D01*
X130348430Y-138788967D01*
X130312664Y-138855881D01*
X130264531Y-138914531D01*
X130205881Y-138962664D01*
X130138967Y-138998430D01*
X130066355Y-139020456D01*
X129987733Y-139028200D01*
X129092267Y-139028200D01*
X129013645Y-139020456D01*
X128941033Y-138998430D01*
X128874119Y-138962664D01*
X128815469Y-138914531D01*
X128767336Y-138855881D01*
X128731570Y-138788967D01*
X128709544Y-138716355D01*
X128701800Y-138637733D01*
X128701800Y-131926267D01*
X128709544Y-131847645D01*
X128731570Y-131775033D01*
X128767336Y-131708119D01*
X128815469Y-131649469D01*
X128874119Y-131601336D01*
X128941033Y-131565570D01*
X129013645Y-131543544D01*
X129092267Y-131535800D01*
X129987733Y-131535800D01*
X130066355Y-131543544D01*
G37*
G36*
X127526355Y-131543544D02*
G01*
X127598967Y-131565570D01*
X127665881Y-131601336D01*
X127724531Y-131649469D01*
X127772664Y-131708119D01*
X127808430Y-131775033D01*
X127830456Y-131847645D01*
X127838200Y-131926267D01*
X127838200Y-138637733D01*
X127830456Y-138716355D01*
X127808430Y-138788967D01*
X127772664Y-138855881D01*
X127724531Y-138914531D01*
X127665881Y-138962664D01*
X127598967Y-138998430D01*
X127526355Y-139020456D01*
X127447733Y-139028200D01*
X126552267Y-139028200D01*
X126473645Y-139020456D01*
X126401033Y-138998430D01*
X126334119Y-138962664D01*
X126275469Y-138914531D01*
X126227336Y-138855881D01*
X126191570Y-138788967D01*
X126169544Y-138716355D01*
X126161800Y-138637733D01*
X126161800Y-131926267D01*
X126169544Y-131847645D01*
X126191570Y-131775033D01*
X126227336Y-131708119D01*
X126275469Y-131649469D01*
X126334119Y-131601336D01*
X126401033Y-131565570D01*
X126473645Y-131543544D01*
X126552267Y-131535800D01*
X127447733Y-131535800D01*
X127526355Y-131543544D01*
G37*
G36*
X124986355Y-131543544D02*
G01*
X125058967Y-131565570D01*
X125125881Y-131601336D01*
X125184531Y-131649469D01*
X125232664Y-131708119D01*
X125268430Y-131775033D01*
X125290456Y-131847645D01*
X125298200Y-131926267D01*
X125298200Y-138637733D01*
X125290456Y-138716355D01*
X125268430Y-138788967D01*
X125232664Y-138855881D01*
X125184531Y-138914531D01*
X125125881Y-138962664D01*
X125058967Y-138998430D01*
X124986355Y-139020456D01*
X124907733Y-139028200D01*
X124012267Y-139028200D01*
X123933645Y-139020456D01*
X123861033Y-138998430D01*
X123794119Y-138962664D01*
X123735469Y-138914531D01*
X123687336Y-138855881D01*
X123651570Y-138788967D01*
X123629544Y-138716355D01*
X123621800Y-138637733D01*
X123621800Y-131926267D01*
X123629544Y-131847645D01*
X123651570Y-131775033D01*
X123687336Y-131708119D01*
X123735469Y-131649469D01*
X123794119Y-131601336D01*
X123861033Y-131565570D01*
X123933645Y-131543544D01*
X124012267Y-131535800D01*
X124907733Y-131535800D01*
X124986355Y-131543544D01*
G37*
G36*
X122446355Y-131543544D02*
G01*
X122518967Y-131565570D01*
X122585881Y-131601336D01*
X122644531Y-131649469D01*
X122692664Y-131708119D01*
X122728430Y-131775033D01*
X122750456Y-131847645D01*
X122758200Y-131926267D01*
X122758200Y-138637733D01*
X122750456Y-138716355D01*
X122728430Y-138788967D01*
X122692664Y-138855881D01*
X122644531Y-138914531D01*
X122585881Y-138962664D01*
X122518967Y-138998430D01*
X122446355Y-139020456D01*
X122367733Y-139028200D01*
X121472267Y-139028200D01*
X121393645Y-139020456D01*
X121321033Y-138998430D01*
X121254119Y-138962664D01*
X121195469Y-138914531D01*
X121147336Y-138855881D01*
X121111570Y-138788967D01*
X121089544Y-138716355D01*
X121081800Y-138637733D01*
X121081800Y-131926267D01*
X121089544Y-131847645D01*
X121111570Y-131775033D01*
X121147336Y-131708119D01*
X121195469Y-131649469D01*
X121254119Y-131601336D01*
X121321033Y-131565570D01*
X121393645Y-131543544D01*
X121472267Y-131535800D01*
X122367733Y-131535800D01*
X122446355Y-131543544D01*
G37*
G36*
X119906355Y-131543544D02*
G01*
X119978967Y-131565570D01*
X120045881Y-131601336D01*
X120104531Y-131649469D01*
X120152664Y-131708119D01*
X120188430Y-131775033D01*
X120210456Y-131847645D01*
X120218200Y-131926267D01*
X120218200Y-138637733D01*
X120210456Y-138716355D01*
X120188430Y-138788967D01*
X120152664Y-138855881D01*
X120104531Y-138914531D01*
X120045881Y-138962664D01*
X119978967Y-138998430D01*
X119906355Y-139020456D01*
X119827733Y-139028200D01*
X118932267Y-139028200D01*
X118853645Y-139020456D01*
X118781033Y-138998430D01*
X118714119Y-138962664D01*
X118655469Y-138914531D01*
X118607336Y-138855881D01*
X118571570Y-138788967D01*
X118549544Y-138716355D01*
X118541800Y-138637733D01*
X118541800Y-131926267D01*
X118549544Y-131847645D01*
X118571570Y-131775033D01*
X118607336Y-131708119D01*
X118655469Y-131649469D01*
X118714119Y-131601336D01*
X118781033Y-131565570D01*
X118853645Y-131543544D01*
X118932267Y-131535800D01*
X119827733Y-131535800D01*
X119906355Y-131543544D01*
G37*
G36*
X117366355Y-131543544D02*
G01*
X117438967Y-131565570D01*
X117505881Y-131601336D01*
X117564531Y-131649469D01*
X117612664Y-131708119D01*
X117648430Y-131775033D01*
X117670456Y-131847645D01*
X117678200Y-131926267D01*
X117678200Y-138637733D01*
X117670456Y-138716355D01*
X117648430Y-138788967D01*
X117612664Y-138855881D01*
X117564531Y-138914531D01*
X117505881Y-138962664D01*
X117438967Y-138998430D01*
X117366355Y-139020456D01*
X117287733Y-139028200D01*
X116392267Y-139028200D01*
X116313645Y-139020456D01*
X116241033Y-138998430D01*
X116174119Y-138962664D01*
X116115469Y-138914531D01*
X116067336Y-138855881D01*
X116031570Y-138788967D01*
X116009544Y-138716355D01*
X116001800Y-138637733D01*
X116001800Y-131926267D01*
X116009544Y-131847645D01*
X116031570Y-131775033D01*
X116067336Y-131708119D01*
X116115469Y-131649469D01*
X116174119Y-131601336D01*
X116241033Y-131565570D01*
X116313645Y-131543544D01*
X116392267Y-131535800D01*
X117287733Y-131535800D01*
X117366355Y-131543544D01*
G37*
G36*
X114826355Y-131543544D02*
G01*
X114898967Y-131565570D01*
X114965881Y-131601336D01*
X115024531Y-131649469D01*
X115072664Y-131708119D01*
X115108430Y-131775033D01*
X115130456Y-131847645D01*
X115138200Y-131926267D01*
X115138200Y-138637733D01*
X115130456Y-138716355D01*
X115108430Y-138788967D01*
X115072664Y-138855881D01*
X115024531Y-138914531D01*
X114965881Y-138962664D01*
X114898967Y-138998430D01*
X114826355Y-139020456D01*
X114747733Y-139028200D01*
X113852267Y-139028200D01*
X113773645Y-139020456D01*
X113701033Y-138998430D01*
X113634119Y-138962664D01*
X113575469Y-138914531D01*
X113527336Y-138855881D01*
X113491570Y-138788967D01*
X113469544Y-138716355D01*
X113461800Y-138637733D01*
X113461800Y-131926267D01*
X113469544Y-131847645D01*
X113491570Y-131775033D01*
X113527336Y-131708119D01*
X113575469Y-131649469D01*
X113634119Y-131601336D01*
X113701033Y-131565570D01*
X113773645Y-131543544D01*
X113852267Y-131535800D01*
X114747733Y-131535800D01*
X114826355Y-131543544D01*
G37*
G36*
X112286355Y-131543544D02*
G01*
X112358967Y-131565570D01*
X112425881Y-131601336D01*
X112484531Y-131649469D01*
X112532664Y-131708119D01*
X112568430Y-131775033D01*
X112590456Y-131847645D01*
X112598200Y-131926267D01*
X112598200Y-138637733D01*
X112590456Y-138716355D01*
X112568430Y-138788967D01*
X112532664Y-138855881D01*
X112484531Y-138914531D01*
X112425881Y-138962664D01*
X112358967Y-138998430D01*
X112286355Y-139020456D01*
X112207733Y-139028200D01*
X111312267Y-139028200D01*
X111233645Y-139020456D01*
X111161033Y-138998430D01*
X111094119Y-138962664D01*
X111035469Y-138914531D01*
X110987336Y-138855881D01*
X110951570Y-138788967D01*
X110929544Y-138716355D01*
X110921800Y-138637733D01*
X110921800Y-131926267D01*
X110929544Y-131847645D01*
X110951570Y-131775033D01*
X110987336Y-131708119D01*
X111035469Y-131649469D01*
X111094119Y-131601336D01*
X111161033Y-131565570D01*
X111233645Y-131543544D01*
X111312267Y-131535800D01*
X112207733Y-131535800D01*
X112286355Y-131543544D01*
G37*
G36*
X109746355Y-131543544D02*
G01*
X109818967Y-131565570D01*
X109885881Y-131601336D01*
X109944531Y-131649469D01*
X109992664Y-131708119D01*
X110028430Y-131775033D01*
X110050456Y-131847645D01*
X110058200Y-131926267D01*
X110058200Y-138637733D01*
X110050456Y-138716355D01*
X110028430Y-138788967D01*
X109992664Y-138855881D01*
X109944531Y-138914531D01*
X109885881Y-138962664D01*
X109818967Y-138998430D01*
X109746355Y-139020456D01*
X109667733Y-139028200D01*
X108772267Y-139028200D01*
X108693645Y-139020456D01*
X108621033Y-138998430D01*
X108554119Y-138962664D01*
X108495469Y-138914531D01*
X108447336Y-138855881D01*
X108411570Y-138788967D01*
X108389544Y-138716355D01*
X108381800Y-138637733D01*
X108381800Y-131926267D01*
X108389544Y-131847645D01*
X108411570Y-131775033D01*
X108447336Y-131708119D01*
X108495469Y-131649469D01*
X108554119Y-131601336D01*
X108621033Y-131565570D01*
X108693645Y-131543544D01*
X108772267Y-131535800D01*
X109667733Y-131535800D01*
X109746355Y-131543544D01*
G37*
G36*
X107206355Y-131543544D02*
G01*
X107278967Y-131565570D01*
X107345881Y-131601336D01*
X107404531Y-131649469D01*
X107452664Y-131708119D01*
X107488430Y-131775033D01*
X107510456Y-131847645D01*
X107518200Y-131926267D01*
X107518200Y-138637733D01*
X107510456Y-138716355D01*
X107488430Y-138788967D01*
X107452664Y-138855881D01*
X107404531Y-138914531D01*
X107345881Y-138962664D01*
X107278967Y-138998430D01*
X107206355Y-139020456D01*
X107127733Y-139028200D01*
X106232267Y-139028200D01*
X106153645Y-139020456D01*
X106081033Y-138998430D01*
X106014119Y-138962664D01*
X105955469Y-138914531D01*
X105907336Y-138855881D01*
X105871570Y-138788967D01*
X105849544Y-138716355D01*
X105841800Y-138637733D01*
X105841800Y-131926267D01*
X105849544Y-131847645D01*
X105871570Y-131775033D01*
X105907336Y-131708119D01*
X105955469Y-131649469D01*
X106014119Y-131601336D01*
X106081033Y-131565570D01*
X106153645Y-131543544D01*
X106232267Y-131535800D01*
X107127733Y-131535800D01*
X107206355Y-131543544D01*
G37*
G36*
X104666355Y-131543544D02*
G01*
X104738967Y-131565570D01*
X104805881Y-131601336D01*
X104864531Y-131649469D01*
X104912664Y-131708119D01*
X104948430Y-131775033D01*
X104970456Y-131847645D01*
X104978200Y-131926267D01*
X104978200Y-138637733D01*
X104970456Y-138716355D01*
X104948430Y-138788967D01*
X104912664Y-138855881D01*
X104864531Y-138914531D01*
X104805881Y-138962664D01*
X104738967Y-138998430D01*
X104666355Y-139020456D01*
X104587733Y-139028200D01*
X103692267Y-139028200D01*
X103613645Y-139020456D01*
X103541033Y-138998430D01*
X103474119Y-138962664D01*
X103415469Y-138914531D01*
X103367336Y-138855881D01*
X103331570Y-138788967D01*
X103309544Y-138716355D01*
X103301800Y-138637733D01*
X103301800Y-131926267D01*
X103309544Y-131847645D01*
X103331570Y-131775033D01*
X103367336Y-131708119D01*
X103415469Y-131649469D01*
X103474119Y-131601336D01*
X103541033Y-131565570D01*
X103613645Y-131543544D01*
X103692267Y-131535800D01*
X104587733Y-131535800D01*
X104666355Y-131543544D01*
G37*
G36*
X102126355Y-131543544D02*
G01*
X102198967Y-131565570D01*
X102265881Y-131601336D01*
X102324531Y-131649469D01*
X102372664Y-131708119D01*
X102408430Y-131775033D01*
X102430456Y-131847645D01*
X102438200Y-131926267D01*
X102438200Y-138637733D01*
X102430456Y-138716355D01*
X102408430Y-138788967D01*
X102372664Y-138855881D01*
X102324531Y-138914531D01*
X102265881Y-138962664D01*
X102198967Y-138998430D01*
X102126355Y-139020456D01*
X102047733Y-139028200D01*
X101152267Y-139028200D01*
X101073645Y-139020456D01*
X101001033Y-138998430D01*
X100934119Y-138962664D01*
X100875469Y-138914531D01*
X100827336Y-138855881D01*
X100791570Y-138788967D01*
X100769544Y-138716355D01*
X100761800Y-138637733D01*
X100761800Y-131926267D01*
X100769544Y-131847645D01*
X100791570Y-131775033D01*
X100827336Y-131708119D01*
X100875469Y-131649469D01*
X100934119Y-131601336D01*
X101001033Y-131565570D01*
X101073645Y-131543544D01*
X101152267Y-131535800D01*
X102047733Y-131535800D01*
X102126355Y-131543544D01*
G37*
G36*
X99586355Y-131543544D02*
G01*
X99658967Y-131565570D01*
X99725881Y-131601336D01*
X99784531Y-131649469D01*
X99832664Y-131708119D01*
X99868430Y-131775033D01*
X99890456Y-131847645D01*
X99898200Y-131926267D01*
X99898200Y-138637733D01*
X99890456Y-138716355D01*
X99868430Y-138788967D01*
X99832664Y-138855881D01*
X99784531Y-138914531D01*
X99725881Y-138962664D01*
X99658967Y-138998430D01*
X99586355Y-139020456D01*
X99507733Y-139028200D01*
X98612267Y-139028200D01*
X98533645Y-139020456D01*
X98461033Y-138998430D01*
X98394119Y-138962664D01*
X98335469Y-138914531D01*
X98287336Y-138855881D01*
X98251570Y-138788967D01*
X98229544Y-138716355D01*
X98221800Y-138637733D01*
X98221800Y-131926267D01*
X98229544Y-131847645D01*
X98251570Y-131775033D01*
X98287336Y-131708119D01*
X98335469Y-131649469D01*
X98394119Y-131601336D01*
X98461033Y-131565570D01*
X98533645Y-131543544D01*
X98612267Y-131535800D01*
X99507733Y-131535800D01*
X99586355Y-131543544D01*
G37*
G36*
X97046355Y-131543544D02*
G01*
X97118967Y-131565570D01*
X97185881Y-131601336D01*
X97244531Y-131649469D01*
X97292664Y-131708119D01*
X97328430Y-131775033D01*
X97350456Y-131847645D01*
X97358200Y-131926267D01*
X97358200Y-138637733D01*
X97350456Y-138716355D01*
X97328430Y-138788967D01*
X97292664Y-138855881D01*
X97244531Y-138914531D01*
X97185881Y-138962664D01*
X97118967Y-138998430D01*
X97046355Y-139020456D01*
X96967733Y-139028200D01*
X96072267Y-139028200D01*
X95993645Y-139020456D01*
X95921033Y-138998430D01*
X95854119Y-138962664D01*
X95795469Y-138914531D01*
X95747336Y-138855881D01*
X95711570Y-138788967D01*
X95689544Y-138716355D01*
X95681800Y-138637733D01*
X95681800Y-131926267D01*
X95689544Y-131847645D01*
X95711570Y-131775033D01*
X95747336Y-131708119D01*
X95795469Y-131649469D01*
X95854119Y-131601336D01*
X95921033Y-131565570D01*
X95993645Y-131543544D01*
X96072267Y-131535800D01*
X96967733Y-131535800D01*
X97046355Y-131543544D01*
G37*
G36*
X94506355Y-131543544D02*
G01*
X94578967Y-131565570D01*
X94645881Y-131601336D01*
X94704531Y-131649469D01*
X94752664Y-131708119D01*
X94788430Y-131775033D01*
X94810456Y-131847645D01*
X94818200Y-131926267D01*
X94818200Y-138637733D01*
X94810456Y-138716355D01*
X94788430Y-138788967D01*
X94752664Y-138855881D01*
X94704531Y-138914531D01*
X94645881Y-138962664D01*
X94578967Y-138998430D01*
X94506355Y-139020456D01*
X94427733Y-139028200D01*
X93532267Y-139028200D01*
X93453645Y-139020456D01*
X93381033Y-138998430D01*
X93314119Y-138962664D01*
X93255469Y-138914531D01*
X93207336Y-138855881D01*
X93171570Y-138788967D01*
X93149544Y-138716355D01*
X93141800Y-138637733D01*
X93141800Y-131926267D01*
X93149544Y-131847645D01*
X93171570Y-131775033D01*
X93207336Y-131708119D01*
X93255469Y-131649469D01*
X93314119Y-131601336D01*
X93381033Y-131565570D01*
X93453645Y-131543544D01*
X93532267Y-131535800D01*
X94427733Y-131535800D01*
X94506355Y-131543544D01*
G37*
G36*
X91966355Y-131543544D02*
G01*
X92038967Y-131565570D01*
X92105881Y-131601336D01*
X92164531Y-131649469D01*
X92212664Y-131708119D01*
X92248430Y-131775033D01*
X92270456Y-131847645D01*
X92278200Y-131926267D01*
X92278200Y-138637733D01*
X92270456Y-138716355D01*
X92248430Y-138788967D01*
X92212664Y-138855881D01*
X92164531Y-138914531D01*
X92105881Y-138962664D01*
X92038967Y-138998430D01*
X91966355Y-139020456D01*
X91887733Y-139028200D01*
X90992267Y-139028200D01*
X90913645Y-139020456D01*
X90841033Y-138998430D01*
X90774119Y-138962664D01*
X90715469Y-138914531D01*
X90667336Y-138855881D01*
X90631570Y-138788967D01*
X90609544Y-138716355D01*
X90601800Y-138637733D01*
X90601800Y-131926267D01*
X90609544Y-131847645D01*
X90631570Y-131775033D01*
X90667336Y-131708119D01*
X90715469Y-131649469D01*
X90774119Y-131601336D01*
X90841033Y-131565570D01*
X90913645Y-131543544D01*
X90992267Y-131535800D01*
X91887733Y-131535800D01*
X91966355Y-131543544D01*
G37*
G36*
X89426355Y-131543544D02*
G01*
X89498967Y-131565570D01*
X89565881Y-131601336D01*
X89624531Y-131649469D01*
X89672664Y-131708119D01*
X89708430Y-131775033D01*
X89730456Y-131847645D01*
X89738200Y-131926267D01*
X89738200Y-138637733D01*
X89730456Y-138716355D01*
X89708430Y-138788967D01*
X89672664Y-138855881D01*
X89624531Y-138914531D01*
X89565881Y-138962664D01*
X89498967Y-138998430D01*
X89426355Y-139020456D01*
X89347733Y-139028200D01*
X88452267Y-139028200D01*
X88373645Y-139020456D01*
X88301033Y-138998430D01*
X88234119Y-138962664D01*
X88175469Y-138914531D01*
X88127336Y-138855881D01*
X88091570Y-138788967D01*
X88069544Y-138716355D01*
X88061800Y-138637733D01*
X88061800Y-131926267D01*
X88069544Y-131847645D01*
X88091570Y-131775033D01*
X88127336Y-131708119D01*
X88175469Y-131649469D01*
X88234119Y-131601336D01*
X88301033Y-131565570D01*
X88373645Y-131543544D01*
X88452267Y-131535800D01*
X89347733Y-131535800D01*
X89426355Y-131543544D01*
G37*
G36*
X86886355Y-131543544D02*
G01*
X86958967Y-131565570D01*
X87025881Y-131601336D01*
X87084531Y-131649469D01*
X87132664Y-131708119D01*
X87168430Y-131775033D01*
X87190456Y-131847645D01*
X87198200Y-131926267D01*
X87198200Y-138637733D01*
X87190456Y-138716355D01*
X87168430Y-138788967D01*
X87132664Y-138855881D01*
X87084531Y-138914531D01*
X87025881Y-138962664D01*
X86958967Y-138998430D01*
X86886355Y-139020456D01*
X86807733Y-139028200D01*
X85912267Y-139028200D01*
X85833645Y-139020456D01*
X85761033Y-138998430D01*
X85694119Y-138962664D01*
X85635469Y-138914531D01*
X85587336Y-138855881D01*
X85551570Y-138788967D01*
X85529544Y-138716355D01*
X85521800Y-138637733D01*
X85521800Y-131926267D01*
X85529544Y-131847645D01*
X85551570Y-131775033D01*
X85587336Y-131708119D01*
X85635469Y-131649469D01*
X85694119Y-131601336D01*
X85761033Y-131565570D01*
X85833645Y-131543544D01*
X85912267Y-131535800D01*
X86807733Y-131535800D01*
X86886355Y-131543544D01*
G37*
G36*
X84346355Y-131543544D02*
G01*
X84418967Y-131565570D01*
X84485881Y-131601336D01*
X84544531Y-131649469D01*
X84592664Y-131708119D01*
X84628430Y-131775033D01*
X84650456Y-131847645D01*
X84658200Y-131926267D01*
X84658200Y-138637733D01*
X84650456Y-138716355D01*
X84628430Y-138788967D01*
X84592664Y-138855881D01*
X84544531Y-138914531D01*
X84485881Y-138962664D01*
X84418967Y-138998430D01*
X84346355Y-139020456D01*
X84267733Y-139028200D01*
X83372267Y-139028200D01*
X83293645Y-139020456D01*
X83221033Y-138998430D01*
X83154119Y-138962664D01*
X83095469Y-138914531D01*
X83047336Y-138855881D01*
X83011570Y-138788967D01*
X82989544Y-138716355D01*
X82981800Y-138637733D01*
X82981800Y-131926267D01*
X82989544Y-131847645D01*
X83011570Y-131775033D01*
X83047336Y-131708119D01*
X83095469Y-131649469D01*
X83154119Y-131601336D01*
X83221033Y-131565570D01*
X83293645Y-131543544D01*
X83372267Y-131535800D01*
X84267733Y-131535800D01*
X84346355Y-131543544D01*
G37*
G36*
X81806355Y-131543544D02*
G01*
X81878967Y-131565570D01*
X81945881Y-131601336D01*
X82004531Y-131649469D01*
X82052664Y-131708119D01*
X82088430Y-131775033D01*
X82110456Y-131847645D01*
X82118200Y-131926267D01*
X82118200Y-138637733D01*
X82110456Y-138716355D01*
X82088430Y-138788967D01*
X82052664Y-138855881D01*
X82004531Y-138914531D01*
X81945881Y-138962664D01*
X81878967Y-138998430D01*
X81806355Y-139020456D01*
X81727733Y-139028200D01*
X80832267Y-139028200D01*
X80753645Y-139020456D01*
X80681033Y-138998430D01*
X80614119Y-138962664D01*
X80555469Y-138914531D01*
X80507336Y-138855881D01*
X80471570Y-138788967D01*
X80449544Y-138716355D01*
X80441800Y-138637733D01*
X80441800Y-131926267D01*
X80449544Y-131847645D01*
X80471570Y-131775033D01*
X80507336Y-131708119D01*
X80555469Y-131649469D01*
X80614119Y-131601336D01*
X80681033Y-131565570D01*
X80753645Y-131543544D01*
X80832267Y-131535800D01*
X81727733Y-131535800D01*
X81806355Y-131543544D01*
G37*
G36*
X79266355Y-131543544D02*
G01*
X79338967Y-131565570D01*
X79405881Y-131601336D01*
X79464531Y-131649469D01*
X79512664Y-131708119D01*
X79548430Y-131775033D01*
X79570456Y-131847645D01*
X79578200Y-131926267D01*
X79578200Y-138637733D01*
X79570456Y-138716355D01*
X79548430Y-138788967D01*
X79512664Y-138855881D01*
X79464531Y-138914531D01*
X79405881Y-138962664D01*
X79338967Y-138998430D01*
X79266355Y-139020456D01*
X79187733Y-139028200D01*
X78292267Y-139028200D01*
X78213645Y-139020456D01*
X78141033Y-138998430D01*
X78074119Y-138962664D01*
X78015469Y-138914531D01*
X77967336Y-138855881D01*
X77931570Y-138788967D01*
X77909544Y-138716355D01*
X77901800Y-138637733D01*
X77901800Y-131926267D01*
X77909544Y-131847645D01*
X77931570Y-131775033D01*
X77967336Y-131708119D01*
X78015469Y-131649469D01*
X78074119Y-131601336D01*
X78141033Y-131565570D01*
X78213645Y-131543544D01*
X78292267Y-131535800D01*
X79187733Y-131535800D01*
X79266355Y-131543544D01*
G37*
G36*
X76726355Y-131543544D02*
G01*
X76798967Y-131565570D01*
X76865881Y-131601336D01*
X76924531Y-131649469D01*
X76972664Y-131708119D01*
X77008430Y-131775033D01*
X77030456Y-131847645D01*
X77038200Y-131926267D01*
X77038200Y-138637733D01*
X77030456Y-138716355D01*
X77008430Y-138788967D01*
X76972664Y-138855881D01*
X76924531Y-138914531D01*
X76865881Y-138962664D01*
X76798967Y-138998430D01*
X76726355Y-139020456D01*
X76647733Y-139028200D01*
X75752267Y-139028200D01*
X75673645Y-139020456D01*
X75601033Y-138998430D01*
X75534119Y-138962664D01*
X75475469Y-138914531D01*
X75427336Y-138855881D01*
X75391570Y-138788967D01*
X75369544Y-138716355D01*
X75361800Y-138637733D01*
X75361800Y-131926267D01*
X75369544Y-131847645D01*
X75391570Y-131775033D01*
X75427336Y-131708119D01*
X75475469Y-131649469D01*
X75534119Y-131601336D01*
X75601033Y-131565570D01*
X75673645Y-131543544D01*
X75752267Y-131535800D01*
X76647733Y-131535800D01*
X76726355Y-131543544D01*
G37*
G36*
X73211914Y-128505157D02*
G01*
X73407777Y-128586286D01*
X73584033Y-128704057D01*
X73733943Y-128853967D01*
X73851714Y-129030223D01*
X73932843Y-129226086D01*
X73974200Y-129434004D01*
X73974200Y-129645996D01*
X73932843Y-129853914D01*
X73851714Y-130049777D01*
X73733943Y-130226033D01*
X73584033Y-130375943D01*
X73407777Y-130493714D01*
X73211914Y-130574843D01*
X73003996Y-130616200D01*
X72792004Y-130616200D01*
X72584086Y-130574843D01*
X72388223Y-130493714D01*
X72211967Y-130375943D01*
X72062057Y-130226033D01*
X71944286Y-130049777D01*
X71863157Y-129853914D01*
X71821800Y-129645996D01*
X71821800Y-129434004D01*
X71863157Y-129226086D01*
X71944286Y-129030223D01*
X72062057Y-128853967D01*
X72211967Y-128704057D01*
X72388223Y-128586286D01*
X72584086Y-128505157D01*
X72792004Y-128463800D01*
X73003996Y-128463800D01*
X73211914Y-128505157D01*
G37*
G36*
X133663914Y-128505157D02*
G01*
X133859777Y-128586286D01*
X134036033Y-128704057D01*
X134185943Y-128853967D01*
X134303714Y-129030223D01*
X134384843Y-129226086D01*
X134426200Y-129434004D01*
X134426200Y-129645996D01*
X134384843Y-129853914D01*
X134303714Y-130049777D01*
X134185943Y-130226033D01*
X134036033Y-130375943D01*
X133859777Y-130493714D01*
X133663914Y-130574843D01*
X133455996Y-130616200D01*
X133244004Y-130616200D01*
X133036086Y-130574843D01*
X132840223Y-130493714D01*
X132663967Y-130375943D01*
X132514057Y-130226033D01*
X132396286Y-130049777D01*
X132315157Y-129853914D01*
X132273800Y-129645996D01*
X132273800Y-129434004D01*
X132315157Y-129226086D01*
X132396286Y-129030223D01*
X132514057Y-128853967D01*
X132663967Y-128704057D01*
X132840223Y-128586286D01*
X133036086Y-128505157D01*
X133244004Y-128463800D01*
X133455996Y-128463800D01*
X133663914Y-128505157D01*
G37*
G36*
X70671914Y-116694157D02*
G01*
X70867777Y-116775286D01*
X71044033Y-116893057D01*
X71193943Y-117042967D01*
X71311714Y-117219223D01*
X71392843Y-117415086D01*
X71434200Y-117623004D01*
X71434200Y-117834996D01*
X71392843Y-118042914D01*
X71311714Y-118238777D01*
X71193943Y-118415033D01*
X71044033Y-118564943D01*
X70867777Y-118682714D01*
X70671914Y-118763843D01*
X70463996Y-118805200D01*
X70252004Y-118805200D01*
X70044086Y-118763843D01*
X69848223Y-118682714D01*
X69671967Y-118564943D01*
X69522057Y-118415033D01*
X69404286Y-118238777D01*
X69323157Y-118042914D01*
X69281800Y-117834996D01*
X69281800Y-117623004D01*
X69323157Y-117415086D01*
X69404286Y-117219223D01*
X69522057Y-117042967D01*
X69671967Y-116893057D01*
X69848223Y-116775286D01*
X70044086Y-116694157D01*
X70252004Y-116652800D01*
X70463996Y-116652800D01*
X70671914Y-116694157D01*
G37*
G36*
X81847914Y-105518157D02*
G01*
X82043777Y-105599286D01*
X82220033Y-105717057D01*
X82369943Y-105866967D01*
X82487714Y-106043223D01*
X82568843Y-106239086D01*
X82610200Y-106447004D01*
X82610200Y-106658996D01*
X82568843Y-106866914D01*
X82487714Y-107062777D01*
X82369943Y-107239033D01*
X82220033Y-107388943D01*
X82043777Y-107506714D01*
X81847914Y-107587843D01*
X81639996Y-107629200D01*
X81428004Y-107629200D01*
X81220086Y-107587843D01*
X81024223Y-107506714D01*
X80847967Y-107388943D01*
X80698057Y-107239033D01*
X80580286Y-107062777D01*
X80499157Y-106866914D01*
X80457800Y-106658996D01*
X80457800Y-106447004D01*
X80499157Y-106239086D01*
X80580286Y-106043223D01*
X80698057Y-105866967D01*
X80847967Y-105717057D01*
X81024223Y-105599286D01*
X81220086Y-105518157D01*
X81428004Y-105476800D01*
X81639996Y-105476800D01*
X81847914Y-105518157D01*
G37*
G36*
X134679914Y-105518157D02*
G01*
X134875777Y-105599286D01*
X135052033Y-105717057D01*
X135201943Y-105866967D01*
X135319714Y-106043223D01*
X135400843Y-106239086D01*
X135442200Y-106447004D01*
X135442200Y-106658996D01*
X135400843Y-106866914D01*
X135319714Y-107062777D01*
X135201943Y-107239033D01*
X135052033Y-107388943D01*
X134875777Y-107506714D01*
X134679914Y-107587843D01*
X134471996Y-107629200D01*
X134260004Y-107629200D01*
X134052086Y-107587843D01*
X133856223Y-107506714D01*
X133679967Y-107388943D01*
X133530057Y-107239033D01*
X133412286Y-107062777D01*
X133331157Y-106866914D01*
X133289800Y-106658996D01*
X133289800Y-106447004D01*
X133331157Y-106239086D01*
X133412286Y-106043223D01*
X133530057Y-105866967D01*
X133679967Y-105717057D01*
X133856223Y-105599286D01*
X134052086Y-105518157D01*
X134260004Y-105476800D01*
X134471996Y-105476800D01*
X134679914Y-105518157D01*
G37*
M02*
